<?xml version="1.0" encoding="utf-8"?>
<svg version="1.1" xmlns:xlink="http://www.w3.org/1999/xlink" width="10px" height="10px" xmlns="http://www.w3.org/2000/svg">
  <g transform="matrix(1 0 0 1 -333 -17 )">
    <path d="M 4.3184005849658 9.95502249023438  C 4.27364684390547 9.990005  4.23386573966107 9.990005  4.1493308846393 9.990005  C 4.06479603933458 9.990005  3.98523383084577 9.95002499023437  3.94048008978545 9.95002499023437  C 3.81616414023632 9.86506747070312  3.73162929493159 9.70014993164062  3.73162928521455 9.57521239257812  L 3.73162928521455 5.957021484375  L 0.0866855954601992 0.669665166015625  C 0.00215075015547285 0.54472763671875  -0.0376303540889301 0.37981009765625  0.0469044912157962 0.209895048828125  C 0.131439336520523 0.08495751953125  0.255755286069652 0  0.419852339863184 0  L 9.53469790694963 0  C 9.69879496074316 0  9.82311091029229 0.08495751953125  9.90764575559701 0.209895048828125  C 9.99218060090174 0.334832578125  9.94742685984142 0.4997501171875  9.86786465135261 0.62468765625  L 6.22292096159826 5.957021484375  L 6.22292096159826 8.7456271875  C 6.22292096159826 8.9105447265625  6.13838611629353 9.03548225585937  5.97428905278296 9.12043977539063  L 4.3184005849658 9.95502249023438  Z " fill-rule="nonzero" fill="#999999" stroke="none" transform="matrix(1 0 0 1 333 17 )" />
  </g>
</svg>