<?xml version="1.0" encoding="utf-8"?>
<svg version="1.1" xmlns:xlink="http://www.w3.org/1999/xlink" width="15px" height="14px" xmlns="http://www.w3.org/2000/svg">
  <g transform="matrix(1 0 0 1 -27 -16 )">
    <path d="M 14.0726207386364 4.84010416666667  C 14.4215198863636 4.83854166666667  14.7027698863636 5.13125  14.7901278409091 5.58541666666667  C 14.7970525568182 5.61927083333333  14.9456676136364 6.40520833333333  14.9456676136364 7.02447916666667  C 14.9456676136364 7.65625  14.7922585227273 8.45520833333333  14.7901278409091 8.46302083333333  C 14.7027698863636 8.91614583333333  14.4215198863636 9.21041666666666  14.0614346590909 9.21041666666666  L 13.9985795454545 9.21041666666666  C 12.9928977272727 9.21041666666666  12.1763139204545 10.0171875  12.1763139204545 11.0098958333333  C 12.1763139204545 11.3296875  12.3334517045455 11.69375  12.3350497159091 11.696875  C 12.5150923295455 12.0963541666667  12.3760653409091 12.5859375  11.9888139204545 12.8510416666667  L 10.0877130681818 13.8859375  C 9.69064798373464 14.0447349001915  9.23452230149111 13.9468701533675  8.94193892045455 13.6401041666667  C 8.73526278409091 13.4171875  8.01935369318182 12.7786458333333  7.46004971590909 12.7786458333333  C 6.94442471590909 12.7786458333333  6.24662642045455 13.3473958333333  5.98881392045454 13.6239583333333  C 5.80504261363636 13.8213541666667  5.52059659090909 13.9390625  5.23135653409091 13.9390625  C 5.09286221590909 13.9390625  4.96182528409091 13.9130208333333  4.81800426136364 13.8505208333333  L 2.98561789772727 12.8364583333333  C 2.61970814613688 12.5756947773363  2.48667456571682 12.1022739841721  2.66495028409091 11.6953125  C 2.66654829545455 11.6921875  2.82368607954545 11.33125  2.82368607954545 11.0098958333333  C 2.82368607954545 10.01875  2.00710227272727 9.21041666666667  1.001953125 9.21041666666667  L 0.92578125 9.21041666666667  C 0.578480113636364 9.21041666666667  0.297230113636364 8.91770833333333  0.209872159090909 8.46302083333333  C 0.202947443181818 8.42916666666667  0.0543323863636365 7.64010416666667  0.0543323863636365 7.02447916666667  C 0.0543323863636365 6.40677083333333  0.203480113636364 5.61822916666667  0.209872159090909 5.58541666666667  C 0.297230113636364 5.13125  0.576882102272727 4.83854166666667  0.936967329545455 4.83854166666667  L 0.999822443181818 4.83854166666667  C 2.00550426136364 4.83854166666667  2.82208806818182 4.03125  2.82208806818182 3.0390625  C 2.82208806818182 2.7140625  2.66495028409091 2.35520833333333  2.66335227272727 2.3515625  C 2.48330965909091 1.95260416666667  2.62233664772727 1.4609375  3.01065340909091 1.19583333333333  L 4.94691051136364 0.150000000000001  C 5.06622869318182 0.0994791666666677  5.19513494318182 0.0755208333333345  5.33043323863636 0.0755208333333345  C 5.62020596590909 0.0755208333333345  5.90252130681818 0.190104166666668  6.087890625 0.384375000000001  C 6.29137073863636 0.594270833333335  6.99396306818182 1.19583333333333  7.53675426136364 1.19583333333333  C 8.07368607954546 1.19583333333333  8.77308238636364 0.607291666666668  8.97496448863637 0.400520833333334  C 9.16033380681818 0.211458333333334  9.44105113636364 0.0984375000000008  9.72709517045455 0.0984375000000008  C 9.86612215909091 0.0984375000000008  9.99875710227273 0.123958333333334  10.142578125 0.185416666666667  L 12.0106534090909 1.21354166666667  C 12.3744673295455 1.4640625  12.5134943181818 1.95416666666667  12.3334517045455 2.35520833333333  C 12.3318536931818 2.35833333333333  12.1747159090909 2.71875  12.1747159090909 3.040625  C 12.1747159090909 4.03177083333333  12.9928977272727 4.84010416666667  13.9964488636364 4.84010416666667  L 14.0726207386364 4.84010416666667  Z M 7.50319602272727 9.82447916666667  C 8.95845170454545 9.82447916666667  10.1404474431818 8.65729166666667  10.1404474431818 7.22135416666667  C 10.1404474431818 5.7859375  8.95685369318182 4.61875  7.50372869318182 4.61875  C 6.04953835227273 4.61875  4.86594460227273 5.78541666666667  4.86594460227273 7.22135416666667  C 4.86594460227273 8.65729166666667  6.04847301136364 9.82447916666667  7.50319602272727 9.82447916666667  Z " fill-rule="nonzero" fill="#999999" stroke="none" transform="matrix(1 0 0 1 27 16 )" />
  </g>
</svg>