<?xml version="1.0" encoding="utf-8"?>
<svg version="1.1" xmlns:xlink="http://www.w3.org/1999/xlink" width="4px" height="8px" xmlns="http://www.w3.org/2000/svg">
  <g transform="matrix(1 0 0 1 -337 -35 )">
    <path d="M 0.755288461538462 7.80013020833333  C 0.673194122365578 7.88929673068932  0.561682404500747 7.93934291283424  0.445432692307693 7.93919270833333  C 0.203420282500383 7.93917669874935  0.00723829769334106 7.72663323699847  0.00723829769334106 7.46445312588509  C 0.00723829769334106 7.33855146293373  0.0534026993684773 7.21780580508768  0.135576923076924 7.12877604166667  L 3.02367788461538 4  L 0.135576923076923 0.871223958333333  C 0.0551498710790467 0.782460011655626  0.0100911414785401 0.663047127725982  0.0100911414785401 0.538666444935085  C 0.0100911414785401 0.27647501291906  0.206289435002209 0.0639268616017517  0.448312295324694 0.0639268616017517  C 0.563125233285521 0.0639268616017517  0.67335251075904 0.112740485335634  0.755288461538462 0.199869791666667  L 3.72127403846154 3.4125  C 4.0203249175835 3.73696905829032  4.0203249175835 4.26251010837635  3.72127403846154 4.58697916666667  L 0.755288461538462 7.80013020833333  Z " fill-rule="nonzero" fill="#1890ff" stroke="none" transform="matrix(1 0 0 1 337 35 )" />
  </g>
</svg>