<?xml version="1.0" encoding="utf-8"?>
<svg version="1.1" xmlns:xlink="http://www.w3.org/1999/xlink" width="4px" height="8px" xmlns="http://www.w3.org/2000/svg">
  <g transform="matrix(1 0 0 1 -340 -35 )">
    <path d="M 0.801802884615385 7.80013020833333  C 0.719796754363745 7.88920076091489  0.608432465141191 7.93923900659664  0.492307692307692 7.93919270833333  C 0.250295282500383 7.93917669874935  0.0541132976933411 7.72663323699847  0.0541132976933411 7.46445312588509  C 0.0541132976933411 7.33855146293373  0.100277699368477 7.21780580508768  0.182451923076923 7.12877604166667  L 3.07007211538462 4  L 0.181971153846154 0.871223958333333  C 0.10154410184827 0.782460011655625  0.0564853722477603 0.663047127725976  0.0564853722477603 0.538666444935072  C 0.0564853722477603 0.276475012919047  0.252683665771429 0.063926861601739  0.494706526093914 0.063926861601739  C 0.609519464054748 0.063926861601739  0.71974674152827 0.112740485335626  0.801682692307692 0.199869791666666  L 3.76766826923077 3.4125  C 3.91179095390996 3.56803978461579  3.99280441875431 3.77935330952179  3.99280441875431 3.99973958333333  C 3.99280441875431 4.22012585714488  3.91179095390996 4.43143938205088  3.76766826923077 4.58697916666667  L 0.801802884615385 7.80013020833333  Z " fill-rule="nonzero" fill="#1890ff" stroke="none" transform="matrix(1 0 0 1 340 35 )" />
  </g>
</svg>