<?xml version="1.0" encoding="utf-8"?>
<svg version="1.1" xmlns:xlink="http://www.w3.org/1999/xlink" width="10px" height="10px" xmlns="http://www.w3.org/2000/svg">
  <g transform="matrix(1 0 0 1 -25 -931 )">
    <path d="M 30 932  C 32.24 932  34 933.76  34 936  C 34 938.24  32.24 940  30 940  C 27.76 940  26 938.24  26 936  C 26 933.76  27.76 932  30 932  Z " fill-rule="nonzero" fill="#ffffff" stroke="none" />
    <path d="M 30 932  C 32.24 932  34 933.76  34 936  C 34 938.24  32.24 940  30 940  C 27.76 940  26 938.24  26 936  C 26 933.76  27.76 932  30 932  Z " stroke-width="2" stroke="#1890ff" fill="none" />
  </g>
</svg>