<?xml version="1.0" encoding="utf-8"?>
<svg version="1.1" xmlns:xlink="http://www.w3.org/1999/xlink" width="128px" height="32px" xmlns="http://www.w3.org/2000/svg">
  <g transform="matrix(1 0 0 1 -1238 -1044 )">
    <path d="M 1239 1048  A 3 3 0 0 1 1242 1045 L 1362 1045  A 3 3 0 0 1 1365 1048 L 1365 1072  A 3 3 0 0 1 1362 1075 L 1242 1075  A 3 3 0 0 1 1239 1072 L 1239 1048  Z " fill-rule="nonzero" fill="#f5f5f5" stroke="none" fill-opacity="0" />
    <path d="M 1238.5 1048  A 3.5 3.5 0 0 1 1242 1044.5 L 1362 1044.5  A 3.5 3.5 0 0 1 1365.5 1048 L 1365.5 1072  A 3.5 3.5 0 0 1 1362 1075.5 L 1242 1075.5  A 3.5 3.5 0 0 1 1238.5 1072 L 1238.5 1048  Z " stroke-width="1" stroke-dasharray="3,1" stroke="#d9d9d9" fill="none" stroke-dashoffset="0.5" />
  </g>
</svg>