<?xml version="1.0" encoding="utf-8"?>
<svg version="1.1" xmlns:xlink="http://www.w3.org/1999/xlink" width="1105px" height="745px" xmlns="http://www.w3.org/2000/svg">
  <defs>
    <filter x="122px" y="1395px" width="1105px" height="745px" filterUnits="userSpaceOnUse" id="filter243">
      <feOffset dx="0" dy="4" in="SourceAlpha" result="shadowOffsetInner" />
      <feGaussianBlur stdDeviation="6" in="shadowOffsetInner" result="shadowGaussian" />
      <feComposite in2="shadowGaussian" operator="atop" in="SourceAlpha" result="shadowComposite" />
      <feColorMatrix type="matrix" values="0 0 0 0 0  0 0 0 0 0  0 0 0 0 0  0 0 0 0.149019607843137 0  " in="shadowComposite" />
    </filter>
    <g id="widget244">
      <path d="M 0.5 0  L 0.5 716.671802773497  C 0 718.535593220339  0.670555032925684 720  1.52398871119473 720.5  L 539.195646339269 720.5  L 1078.47601128881 720  C 1079.32944496707 720  1080 718.535593220339  1080.5 716.671802773497  L 1080.5 0  L 0.5 0  Z " fill-rule="nonzero" fill="#ffffff" stroke="none" transform="matrix(1 0 0 1 134 1403 )" />
      <path d="M 0.5 0  L 0.5 716.671802773497  C 0 718.535593220339  0.670555032925684 720  1.52398871119473 720.5  L 539.195646339269 720.5  L 1078.47601128881 720  C 1079.32944496707 720  1080 718.535593220339  1080.5 716.671802773497  L 1080.5 0  " stroke-width="1" stroke="#e9e9e9" fill="none" transform="matrix(1 0 0 1 134 1403 )" />
    </g>
  </defs>
  <g transform="matrix(1 0 0 1 -122 -1395 )">
    <use xlink:href="#widget244" filter="url(#filter243)" />
    <use xlink:href="#widget244" />
  </g>
</svg>