<?xml version="1.0" encoding="utf-8"?>
<svg version="1.1" xmlns:xlink="http://www.w3.org/1999/xlink" width="16px" height="18px" xmlns="http://www.w3.org/2000/svg">
  <g transform="matrix(1 0 0 1 -1265 -377 )">
    <path d="M 14.3076923076923 15.6294642857143  C 14.3076923076923 16.6262946428571  13.5311538461538 17.4375  12.5769230769231 17.4375  L 2.19230769230769 17.4375  C 1.23807692307692 17.4375  0.461538461538462 16.6262946428571  0.461538461538462 15.6294642857143  L 0.461538461538462 3.57589285714286  C 0.461538461538462 2.5790625  1.23807692307692 1.76785714285714  2.19230769230769 1.76785714285714  L 10.2692307692308 1.76785714285714  C 10.5882692307692 1.76785714285714  10.8461538461538 2.03785714285714  10.8461538461538 2.37053571428571  C 10.8461538461538 2.70321428571429  10.5882692307692 2.97321428571429  10.2692307692308 2.97321428571429  L 2.19230769230769 2.97321428571429  C 1.87442307692308 2.97321428571429  1.61538461538462 3.24381696428571  1.61538461538462 3.57589285714286  L 1.61538461538462 15.6294642857143  C 1.61538461538462 15.9621428571429  1.87442307692308 16.2321428571429  2.19230769230769 16  L 12.5769230769231 16  C 12.8953846153846 16.2321428571429  13.1538461538462 15.9621428571429  13.1538461538462 15.6294642857143  L 13.1538461538462 5.98660714285714  C 13.1538461538462 5.65392857142857  13.4117307692308 5.38392857142857  13.7307692307692 5.38392857142857  C 14.0498076923077 5.38392857142857  14.3076923076923 5.65392857142857  14.3076923076923 5.98660714285714  L 14.3076923076923 15.6294642857143  Z M 7.78442307692308 9.40439732142857  C 7.67192307692308 9.52071428571429  7.52538461538462 9.57857142857143  7.37884615384615 9.57857142857143  C 7.23 9.57857142857143  7.08115384615385 9.51890625  6.96865384615385 9.39957589285714  C 6.74480769230769 9.16272321428571  6.74653846153846 8.78122767857143  6.97326923076923 8.54738839285714  L 14.5148076923077 0.755357142857143  C 14.7421153846154 0.520915178571428  15.1067307692308 0.523928571428571  15.3305769230769 0.760178571428571  C 15.555 0.99703125  15.5526923076923 1.37852678571429  15.3259615384615 1.61236607142857  L 7.78442307692308 9.40439732142857  Z " fill-rule="nonzero" fill="#555555" stroke="none" transform="matrix(1 0 0 1 1265 377 )" />
  </g>
</svg>