<?xml version="1.0" encoding="utf-8"?>
<svg version="1.1" xmlns:xlink="http://www.w3.org/1999/xlink" width="14px" height="14px" xmlns="http://www.w3.org/2000/svg">
  <g transform="matrix(1 0 0 1 -380 -230 )">
    <path d="M 11.9790740740741 13.6302314814815  L 1.82615740740741 13.6302314814815  C 0.931064809751157 13.6302314814815  0.206111116174768 12.9052777727141  0.206111116174768 12.0101851902488  L 0.206111116174768 2.97629630135995  C 0.206111116174768 2.0812037037037  0.93106482494213 1.35560185691551  1.82615740740741 1.35560185691551  L 11.9787500050637 1.35560185691551  C 12.8738426027199 1.35560185691551  13.5994444495081 2.0812037037037  13.5994444495081 2.97629630135995  L 13.5994444495081 12.0101851902488  C 13.5994444495081 12.9052777727141  12.8738425875289 13.6302314814815  11.9790740740741 13.6302314814815  Z M 13.0498148097512 3.46694443938079  C 13.0498148097512 2.57249999493634  12.3248611009838 1.84689814814815  11.4297685185185 1.84689814814815  L 2.37578703197338 1.84689814814815  C 1.48069443431713 1.84689814814815  0.755092587528935 2.57249999493634  0.755092587528935 3.46694443938079  L 0.755092587528935 11.5188888838252  C 0.755092587528935 12.4139814814815  1.48069443431713 13.1395833282697  2.37578703197338 13.1395833282697  L 11.4297685185185 13.1395833282697  C 12.3248611161748 13.1395833282697  13.0498148097512 12.4139814814815  13.0498148097512 11.5188888838252  L 13.0498148097512 3.46694443938079  Z M 3.65134258752893 3.86652777271412  L 3.00319443431713 3.86652777271412  C 2.83726850332755 3.86652777271412  2.70310183666088 3.73171295283565  2.70310183666088 3.56643517505787  L 2.70310185185185 0.540231481481482  C 2.70310185185185 0.374305550491898  2.83726851851852 0.240138883825231  3.0031944495081 0.240138883825231  L 3.65134260271991 0.240138883825231  C 3.81726853370949 0.240138883825231  3.95143520037616 0.374305550491898  3.95143520037616 0.540231481481482  L 3.95143520037616 3.56675925925926  C 3.9517592541956 3.73203703703704  3.81726851851852 3.86652777271412  3.65134258752893 3.86652777271412  Z M 7.39699074074074 3.86652777271412  L 6.74884258752894 3.86652777271412  C 6.58291665653935 3.86652777271412  6.44874998987269 3.73171295283565  6.44874998987269 3.56643517505787  L 6.44875000506366 0.540231481481482  C 6.44875000506366 0.374305550491898  6.58291667173032 0.240138883825231  6.74884260271991 0.240138883825231  L 7.39699075593171 0.240138883825231  C 7.5629166869213 0.240138883825231  7.69708335358796 0.374305550491898  7.69708335358796 0.540231481481482  L 7.69708335358796 3.56675925925926  C 7.69708333839699 3.73203703703704  7.56291667173032 3.86652777271412  7.39699074074074 3.86652777271412  Z M 10.87495369864 3.86652777271412  L 10.2268055454282 3.86652777271412  C 10.0861573922164 3.86652777271412  9.97143516999421 3.7518055504919  9.97143516999421 3.61050925925926  L 9.97143518518519 0.495509259259259  C 9.97143518518519 0.354861106047454  10.0861574074074 0.240138883825231  10.2268055606192 0.240138883825231  L 10.874953713831 0.240138883825231  C 11.0162500050637 0.240138883825231  11.1309722272859 0.354861106047454  11.1309722272859 0.495509259259259  L 11.1309722272859 3.61083332826968  C 11.1306481430845 3.75212963469329  11.0162500050637 3.86652777271412  10.87495369864 3.86652777271412  Z M 2.70310185185185 6.37712963469329  L 2.70310185185185 4.98231481481482  L 4.57560185185185 4.98231481481482  L 4.57560185185185 6.37712963469329  L 2.70310185185185 6.37712963469329  Z M 5.82458333839699 6.37712963469329  L 5.82458333839699 4.98231481481482  L 7.69708333839699 4.98231481481482  L 7.69708333839699 6.37712963469329  L 5.82458333839699 6.37712963469329  Z M 9.25782407407407 6.37712963469329  L 9.25782407407407 4.98231481481482  L 11.1306481430845 4.98231481481482  L 11.1306481430845 6.37712963469329  L 9.25782407407407 6.37712963469329  Z M 2.70310185185185 8.60902777271412  L 2.70310185185185 7.21388888382523  L 4.57560185185185 7.21388888382523  L 4.57560185185185 8.60902777271412  L 2.70310185185185 8.60902777271412  Z M 5.82458333839699 8.60902777271412  L 5.82458333839699 7.21388888382523  L 7.69708333839699 7.21388888382523  L 7.69708333839699 8.60902777271412  L 5.82458333839699 8.60902777271412  Z M 9.25782407407407 8.60902777271412  L 9.25782407407407 7.21388888382523  L 11.1306481430845 7.21388888382523  L 11.1306481430845 8.60902777271412  L 9.25782407407407 8.60902777271412  Z M 2.70310185185185 10.8406018569155  L 2.70310185185185 9.44578703703704  L 4.57560185185185 9.44578703703704  L 4.57560185185185 10.8406018569155  L 2.70310185185185 10.8406018569155  Z M 5.82458333839699 10.8406018569155  L 5.82458333839699 9.44578703703704  L 7.69708333839699 9.44578703703704  L 7.69708333839699 10.8406018569155  L 5.82458333839699 10.8406018569155  Z M 9.25782407407407 10.8406018569155  L 9.25782407407407 9.44578703703704  L 11.1306481430845 9.44578703703704  L 11.1306481430845 10.8406018569155  L 9.25782407407407 10.8406018569155  Z " fill-rule="nonzero" fill="#aaaaaa" stroke="none" transform="matrix(1 0 0 1 380 230 )" />
  </g>
</svg>