<?xml version="1.0" encoding="utf-8"?>
<svg version="1.1" xmlns:xlink="http://www.w3.org/1999/xlink" width="14px" height="14px" xmlns="http://www.w3.org/2000/svg">
  <g transform="matrix(1 0 0 1 -371 82 )">
    <path d="M 13.497879484375 5.521862703125  L 8.512569203125 5.521862703125  L 8.512569203125 0.53495353125  C 8.512569203125 0.25994603125  8.29032478125 0.036102734375  8.01371840625 0.036102734375  L 6.0199140625 0.036102734375  C 5.7449065625 0.036102734375  5.521063265625 0.25834715625  5.521063265625 0.53495353125  L 5.521063265625 5.5202638125  L 0.53575296875 5.5202638125  C 0.26074546875 5.5202638125  0.036902171875 5.742508234375  0.036902171875 6.019114609375  L 0.036902171875 8.012918953125  C 0.036902171875 8.287926453125  0.25914659375 8.51176975  0.53575296875 8.51176975  L 5.52106325 8.51176975  L 5.52106325 13.49708003125  C 5.52106325 13.77208753125  5.743307671875 13.995930828125  6.019914046875 13.995930828125  L 8.013718390625 13.995930828125  C 8.288725890625 13.995930828125  8.5125691875 13.772087515625  8.5125691875 13.49708003125  L 8.512569203125 8.511769765625  L 13.497879484375 8.511769765625  C 13.772886984375 8.511769765625  13.99673028125 8.28952534375  13.99673028125 8.01291896875  L 13.99673028125 6.019114625  C 13.99673028125 5.744107125  13.774485859375 5.521862703125  13.497879484375 5.521862703125  Z " fill-rule="nonzero" fill="#555555" stroke="none" transform="matrix(1 0 0 1 371 -82 )" />
  </g>
</svg>