<?xml version="1.0" encoding="utf-8"?>
<svg version="1.1" xmlns:xlink="http://www.w3.org/1999/xlink" width="18px" height="18px" xmlns="http://www.w3.org/2000/svg">
  <g transform="matrix(1 0 0 1 -823 -79 )">
    <path d="M 17.4375 9  C 17.4375 13.6526688532366  13.6526688532366 17.4375  9 17.4375  C 4.34733114676339 17.4375  0.5625 13.6526688532366  0.5625 9  C 0.5625 4.34733114676339  4.34733114676339 0.5625  9 0.5625  C 13.6526688532366 0.5625  17.4375 4.34733114676339  17.4375 9  Z M 16.2267324421038 9  C 16.2267324421038 5.015080546875  12.9843039111328 1.77326755789621  9 1.77326755789621  C 5.015080546875 1.77326755789621  1.77326755789621 5.01508052804129  1.77326755789621 9  C 1.77326755789621 12.9843039111328  5.01508052804129 16.2267324421038  9 16.2267324421038  C 12.9843039111328 16.2267324421038  16.2267324421038 12.984336305106  16.2267324421038 9  Z M 12.4569014564732 11.6427467787388  L 9.84856107003348 9.02591817313058  L 12.454536413923 6.44825843889509  C 12.6913961363002 6.21441169503348  12.693210405971 5.83292855189732  12.4593636809431 5.59606882952009  C 12.2255169559152 5.35920910714286  11.8434182519531 5.3573948374721  11.6071740715681 5.5912415625  L 8.99757018833705 8.17191427525112  L 6.42775069963727 5.59425454101563  C 6.19208968610491 5.35859352748326  5.81122210379464 5.35739481863839  5.57556109026228 5.59305583217076  C 5.33990007672991 5.82810128487723  5.33931692871093 6.20958442801339  5.57436238141741 6.44524544154576  L 8.14055333077567 9.01927663643973  L 5.5532390813337 11.5788584430804  C 5.31637935895647 11.8132883349609  5.31456508928571 12.1941883300781  5.54841181431362 12.4310480524554  C 5.66653389508928 12.5503688609096  5.82142739188058 12.6100454527065  5.97690405552455 12.6100454527065  C 6.12998328264509 12.6100454527065  6.28306250976562 12.5515999637277  6.40060142368861 12.4358753194754  L 8.99151181849888 9.8732805343192  L 11.6035131382533 12.4937376604353  C 11.72105207101 12.6118597412109  11.8753300069754 12.6709207910156  12.0302235037667 12.6709207910156  C 12.1845014397321 12.6709207910156  12.3381962276786 12.6118597412109  12.4557027476283 12.4949363881138  C 12.6913637611607 12.2598909354074  12.6919469091797 11.8789909591239  12.4569014564732 11.6427467787388  Z " fill-rule="nonzero" fill="#555555" stroke="none" transform="matrix(1 0 0 1 823 79 )" />
  </g>
</svg>