<?xml version="1.0" encoding="utf-8"?>
<svg version="1.1" xmlns:xlink="http://www.w3.org/1999/xlink" width="18px" height="18px" xmlns="http://www.w3.org/2000/svg">
  <g transform="matrix(1 0 0 1 -855 -79 )">
    <path d="M 17.4001454359654 9  C 17.4001454359654 4.36842207170759  13.6321934891183 0.599854564034598  9 0.599854564034598  C 4.36842207170759 0.599854564034598  0.599854564034598 4.36838965890067  0.599854564034598 9  C 0.599854564034598 13.6321934891183  4.36780649204799 17.4001454359654  9 17.4001454359654  C 13.632193507952 17.4001454359654  17.4001454359654 13.6321934891183  17.4001454359654 9  Z M 13.0493261111886 6.7616739718192  C 13.2850519315011 6.99610388253348  13.2874493680246 7.37758702566964  13.0536026241629 7.61444674804688  L 8.22796234654018 12.4925065199498  C 8.22676363769531 12.4937052287946  8.22433380719866 12.4943207896205  8.22313507952009 12.4961350592913  C 8.22132080984933 12.4973337681362  8.22132080984933 12.4997635986328  8.21950654017857 12.5009623263114  C 8.18092085449219 12.538316890346  8.13332860839844 12.5612220849609  8.0887169468471 12.5865570912388  C 8.06642731305804 12.5992246037946  8.04834938546317 12.6185012402344  8.02482864885603 12.6275402134487  C 7.95251693847656 12.6564713839286  7.87596112792969 12.6715363141741  7.79943771135603 12.6715363141741  C 7.72229873395647 12.6715363141741  7.64454421456473 12.6564713839286  7.57161694335938 12.6263415046038  C 7.54751303989956 12.6161038225446  7.52823640345982 12.5955960644531  7.50533120884487 12.5829609647042  C 7.46071954729353 12.5576583523996  7.41432601004464 12.5353363246373  7.37574032435826 12.4973661997768  C 7.37454161551339 12.4961674909319  7.3739260546875 12.4937376604353  7.37272734584264 12.4925389327567  C 7.37152863699777 12.4907246630859  7.36909880650112 12.4907246630859  7.36790007882255 12.4889103934152  L 4.99454035714286 10.0498804980469  C 4.76250788295201 9.81120650599888  4.76791831682478 9.42972336286272  5.00659230887277 9.19769088867187  C 5.24526630092076 8.96627397530692  5.62613390206473 8.97048568150112  5.85878191824777 9.20974284040179  L 7.80361700474331 11.2082285428292  L 12.1971365018136 6.76650123883929  C 12.4309832456752 6.52964151646206  12.8130819308036 6.52724407993862  13.0493261111886 6.7616739718192  Z " fill-rule="nonzero" fill="#555555" stroke="none" transform="matrix(1 0 0 1 855 79 )" />
  </g>
</svg>