<?xml version="1.0" encoding="utf-8"?>
<svg version="1.1" xmlns:xlink="http://www.w3.org/1999/xlink" width="16px" height="16px" xmlns="http://www.w3.org/2000/svg">
  <g transform="matrix(1 0 0 1 -741 -79 )">
    <path d="M 14.3076923076923 13.8928571428571  C 14.3076923076923 14.7789285714286  13.5311538461538 15.5  12.5769230769231 15.5  L 2.19230769230769 15.5  C 1.23807692307692 15.5  0.461538461538462 14.7789285714286  0.461538461538462 13.8928571428571  L 0.461538461538462 3.17857142857143  C 0.461538461538462 2.2925  1.23807692307692 1.57142857142857  2.19230769230769 1.57142857142857  L 10.2692307692308 1.57142857142857  C 10.5882692307692 1.57142857142857  10.8461538461538 1.81142857142857  10.8461538461538 2.10714285714286  C 10.8461538461538 2.40285714285714  10.5882692307692 2.64285714285714  10.2692307692308 2.64285714285714  L 2.19230769230769 2.64285714285714  C 1.87442307692308 2.64285714285714  1.61538461538462 2.88339285714286  1.61538461538462 3.17857142857143  L 1.61538461538462 13.8928571428571  C 1.61538461538462 14.1885714285714  1.87442307692308 14.4285714285714  2.19230769230769 14.4285714285714  L 12.5769230769231 14.4285714285714  C 12.8953846153846 14.4285714285714  13.1538461538462 14.1885714285714  13.1538461538462 13.8928571428571  L 13.1538461538462 5.32142857142857  C 13.1538461538462 5.02571428571429  13.4117307692308 4.78571428571429  13.7307692307692 4.78571428571429  C 14.0498076923077 4.78571428571429  14.3076923076923 5.02571428571429  14.3076923076923 5.32142857142857  L 14.3076923076923 13.8928571428571  Z M 7.78442307692308 8.35946428571429  C 7.67192307692308 8.46285714285714  7.52538461538462 8.51428571428571  7.37884615384615 8.51428571428571  C 7.23 8.51428571428571  7.08115384615385 8.46125  6.96865384615385 8.35517857142857  C 6.74480769230769 8.14464285714286  6.74653846153846 7.80553571428571  6.97326923076923 7.59767857142857  L 14.5148076923077 0.671428571428571  C 14.7421153846154 0.463035714285714  15.1067307692308 0.465714285714286  15.3305769230769 0.675714285714285  C 15.555 0.88625  15.5526923076923 1.22535714285714  15.3259615384615 1.43321428571429  L 7.78442307692308 8.35946428571429  Z " fill-rule="nonzero" fill="#333333" stroke="none" transform="matrix(1 0 0 1 741 79 )" />
  </g>
</svg>