<?xml version="1.0" encoding="utf-8"?>
<svg version="1.1" xmlns:xlink="http://www.w3.org/1999/xlink" width="14px" height="14px" xmlns="http://www.w3.org/2000/svg">
  <g transform="matrix(1 0 0 1 -598 -135 )">
    <path d="M 4.54074074074074 4.90721648075064  C 4.32839506172839 4.8975944876235  4.13827160493827 4.89278349105992  3.97037037037037 4.89278349105992  C 3.70370370370371 4.89278349105992  3.53333333333333 4.8230240408881  3.45925925925926 4.68350514054446  C 3.38518518518519 4.54398624020082  3.43703703703704 4.3635738690668  3.61481481481481 4.1422680271424  C 3.80246913580247 3.91134019209085  4.01975308641975 3.63230239140356  4.26666666666667 3.30515462508054  C 4.51358024691358 2.97800685875752  4.77037037037037 2.63883160102556  5.03703703703704 2.28762885188466  C 5.3037037037037 1.93642610274377  5.56296296296296 1.59484534673003  5.81481481481481 1.26288658384343  C 6.06666666666667 0.930927820956831  6.29135802469136 0.644673525424185  6.48888888888889 0.40412369724549  C 6.66666666666667 0.182817855321091  6.83703703703704 0.0673539377953181  7 0.0577319446681703  C 7.16296296296296 0.0481099515410226  7.33827160493827 0.149140879376074  7.52592592592593 0.360824728173325  C 7.71358024691358 0.582130570097724  7.92839506172839 0.849140879376074  8.17037037037037 1.16185565600838  C 8.41234567901235 1.47457043264068  8.66172839506173 1.8017181989637  8.91851851851852 2.14329895497745  C 9.17530864197531 2.48487971099119  9.42962962962963 2.81924397215958  9.68148148148148 3.1463917384826  C 9.93333333333333 3.47353950480563  10.158024691358 3.75738830205649  10.3555555555556 3.99793813023518  C 10.5728395061728 4.25773194466817  10.6567901234568 4.474226790029  10.6074074074074 4.64742266631766  C 10.558024691358 4.82061854260632  10.3950617283951 4.90240548418707  10.1185185185185 4.89278349105992  C 9.95061728395062 4.89278349105992  9.73333333333333 4.8975944876235  9.46666666666667 4.90721648075064  C 9.2 4.91683847387779  8.97777777777778 4.92164947044137  8.8 4.92164947044137  C 8.60246913580247 4.93127146356851  8.48148148148148 4.99140892061319  8.43703703703703 5.10206184157539  C 8.39259259259259 5.21271476253759  8.37037037037037 5.36426115429016  8.37037037037037 5.55670101683312  L 8.37037037037037 6.26391751167848  C 8.37037037037037 6.52371132611147  8.37283950617284 6.78831613710803  8.37777777777778 7.05773194466817  C 8.38271604938272 7.32714775222831  8.38518518518518 7.59175256322487  8.38518518518518 7.85154637765786  L 8.38518518518518 8.57319586219394  C 8.38518518518518 8.66941579346542  8.37777777777778 8.77044672130047  8.36296296296296 8.8762886456991  C 8.34814814814815 8.98213057009773  8.31358024691358 9.0783505013692  8.25925925925926 9.16494843951353  C 8.20493827160494 9.25154637765786  8.12592592592592 9.32371132611147  8.02222222222222 9.38144328487436  C 7.91851851851852 9.43917524363724  7.77777777777778 9.46804122301869  7.6 9.46804122301869  C 7.39259259259259 9.46804122301869  7.20246913580247 9.47044672130047  7.02962962962963 9.47525771786405  C 6.85679012345679 9.48006871442762  6.65185185185185 9.48247421270941  6.41481481481481 9.48247421270941  C 6.08888888888889 9.48247421270941  5.86913580246914 9.40790376597401  5.75555555555555 9.25876287250322  C 5.64197530864198 9.10962197903243  5.58518518518519 8.87147764913552  5.58518518518518 8.5443298828125  L 5.58518518518518 7.98144328487436  C 5.58518518518519 7.76013744294996  5.58271604938272 7.52439861133484  5.57777777777778 7.274226790029  C 5.57283950617284 7.02405496872315  5.57037037037037 6.77388314741731  5.57037037037037 6.52371132611147  L 5.57037037037037 5.84536081064755  C 5.57037037037037 5.55670101683312  5.54074074074074 5.32817868006336  5.48148148148148 5.15979380033827  C 5.42222222222222 4.99140892061319  5.28888888888889 4.91202747731422  5.08148148148148 4.92164947044137  C 4.93333333333333 4.92164947044137  4.75308641975309 4.91683847387779  4.54074074074074 4.90721648075064  Z M 13.8592592447917 12.1164948171714  C 13.8938271460262 12.2079037518793  13.9111110966435 12.2584192157968  13.9111110966435 12.268041208924  C 13.9703703559028 12.4989690439755  13.9580246768904 12.7202748858999  13.8740740596065 12.9319587346972  C 13.7901234423225 13.1436425834944  13.6592592447917 13.328865951192  13.4814814670139 13.4876288377899  C 13.3037036892361 13.6463917243879  13.0864197386188 13.7714776350408  12.829629615162 13.8628865697487  C 12.5728394917052 13.9542955044566  12.2962962818287 13.9999999718106  11.9999999855324 14  L 1.95555555555555 14  C 1.6 13.9999999718106  1.28641975308642 13.9374570164841  1.01481481481481 13.8123711058312  C 0.743209876543208 13.6872851951783  0.525925925925924 13.5333333051439  0.362962962962961 13.3505154357281  C 0.199999999999998 13.1676975663123  0.0913580246913565 12.968041208924  0.0370370370370355 12.7515463635631  C -0.0172839506172854 12.5350515182023  -0.00987654320987804 12.3402061573776  0.0592592592592577 12.1670102810889  C 0.118518518518517 12.0323023773089  0.177777777777776 11.8927834769652  0.237037037037035 11.748453580058  C 0.286419753086418 11.6233676694051  0.345679012345677 11.4814432707796  0.414814814814813 11.3226803841817  C 0.483950617283949 11.1639174975838  0.558024691358023 11.002749112704  0.637037037037036 10.8391752295425  L 1.2 9.51134017799614  L 2.88888888888889 9.51134017799614  L 2.25185185185185 11.3298968790271  L 11.792592578125 11.3298968790271  L 11.155555541088 9.51134017799614  L 12.7703703559028 9.51134017799614  C 12.9777777633102 10.0020618274807  13.1654320842978 10.4446735113295  13.3333333188657 10.8391752295425  C 13.4024691213349 11.0123711058312  13.471604923804 11.1807559855563  13.5407407262731 11.3443298687178  C 13.6098765287423 11.5079037518793  13.671604923804 11.6546391470683  13.7259259114583 11.7845360542848  C 13.7802468991127 11.9144329615013  13.8246913435571 12.0250858824635  13.8592592447917 12.1164948171714  Z " fill-rule="nonzero" fill="#555555" stroke="none" transform="matrix(1 0 0 1 598 135 )" />
  </g>
</svg>