<?xml version="1.0" encoding="utf-8"?>
<svg version="1.1" xmlns:xlink="http://www.w3.org/1999/xlink" width="14px" height="14px" xmlns="http://www.w3.org/2000/svg">
  <g transform="matrix(1 0 0 1 -1688 -328 )">
    <path d="M 7 10.2864030419922  C 6.61167014160156 10.2864030419922  6.29686870117188 10.6012044824219  6.29686870117188 10.9895343408203  C 6.29686870117188 11.3778641992188  6.61167014160156 11.6926656396484  7 11.6926656396484  C 7.38832985839844 11.6926656396484  7.70313129882813 11.3778641992188  7.70313129882813 10.9895343408203  C 7.70313129882813 10.6012044824219  7.38832985839844 10.2864030419922  7 10.2864030419922  Z M 13.5625 7  C 13.5625 10.6187424414062  10.6187424414062 13.5625  7 13.5625  C 3.38125755859375 13.5625  0.4375 10.6187424414062  0.4375 7  C 0.4375 3.38125755859375  3.38125755859375 0.4375  7 0.4375  C 10.6187424414062 0.4375  13.5625 3.38125755859375  13.5625 7  Z M 12.6207918994141 7  C 12.6207918994141 3.900618203125  10.0989030419922 1.37920810058594  7 1.37920810058594  C 3.900618203125 1.37920810058594  1.37920810058594 3.90061818847656  1.37920810058594 7  C 1.37920810058594 10.0989030419922  3.90061818847656 12.6207918994141  7 12.6207918994141  C 10.0989030419922 12.6207918994141  12.6207918994141 10.0989282373047  12.6207918994141 7  Z M 7.46876259765625 8.89936669433594  C 7.46876259765625 9.15812727050781  7.25876057617188 9.3685828515625  7 9.3685828515625  C 6.74123942382812 9.3685828515625  6.53123740234375 9.15858083007812  6.53123740234375 8.89984544921875  L 6.53123740234375 8.10718484863281  C 6.53123740234375 7.34030204101562  7.11717175292969 6.75436769042969  7.63466772460938 6.23735048828125  C 8.01387582519531 5.85766361816406  8.40623740234375 5.46578081054687  8.40623740234375 5.15312122070312  C 8.40623740234375 4.37172422851562  7.7752990234375 3.73609897949219  7 3.73609897949219  C 6.21157270996094 3.73609897949219  5.59376259765625 4.3445353515625  5.59376259765625 5.12124545898437  C 5.59376259765625 5.38000603515625  5.38376057617188 5.58998286132812  5.125 5.58998286132812  C 4.86623942382812 5.58998286132812  4.65623740234375 5.37998083984375  4.65623740234375 5.12124545898437  C 4.65623740234375 3.84062122070312  5.70763338378906 2.79859897949219  7 2.79859897949219  C 8.29236661621094 2.79859897949219  9.34376259765625 3.85468183105469  9.34376259765625 5.15312122070312  C 9.34376259765625 5.85484142089844  8.81172724609375 6.38639800292969  8.29750706054687 6.900618203125  C 7.88969896972656 7.30749396484375  7.46876259765625 7.72843032226562  7.46876259765625 8.10670609375  L 7.46876259765625 8.89936669433594  Z " fill-rule="nonzero" fill="#aaaaaa" stroke="none" transform="matrix(1 0 0 1 1688 328 )" />
  </g>
</svg>