<?xml version="1.0" encoding="utf-8"?>
<svg version="1.1" xmlns:xlink="http://www.w3.org/1999/xlink" width="12px" height="14px" xmlns="http://www.w3.org/2000/svg">
  <g transform="matrix(1 0 0 1 -1008 -311 )">
    <path d="M 10.7307692307692 12.15625  C 10.7307692307692 12.9315625  10.1483653846154 13.5625  9.43269230769231 13.5625  L 1.64423076923077 13.5625  C 0.928557692307692 13.5625  0.346153846153846 12.9315625  0.346153846153846 12.15625  L 0.346153846153846 2.78125  C 0.346153846153846 2.0059375  0.928557692307692 1.375  1.64423076923077 1.375  L 7.70192307692308 1.375  C 7.94120192307692 1.375  8.13461538461539 1.585  8.13461538461539 1.84375  C 8.13461538461539 2.1025  7.94120192307692 2.3125  7.70192307692308 2.3125  L 1.64423076923077 2.3125  C 1.40581730769231 2.3125  1.21153846153846 2.52296875  1.21153846153846 2.78125  L 1.21153846153846 12.15625  C 1.21153846153846 12.415  1.40581730769231 12.625  1.64423076923077 12.625  L 9.43269230769231 12.625  C 9.67153846153846 12.625  9.86538461538461 12.415  9.86538461538461 12.15625  L 9.86538461538461 4.65625  C 9.86538461538461 4.3975  10.0587980769231 4.1875  10.2980769230769 4.1875  C 10.5373557692308 4.1875  10.7307692307692 4.3975  10.7307692307692 4.65625  L 10.7307692307692 12.15625  Z M 5.83831730769231 7.31453125  C 5.75394230769231 7.405  5.64403846153846 7.45  5.53413461538462 7.45  C 5.4225 7.45  5.31086538461539 7.40359375  5.22649038461538 7.31078125  C 5.05860576923077 7.1265625  5.05990384615385 6.82984375  5.22995192307692 6.64796875  L 10.8861057692308 0.5875  C 11.0565865384615 0.40515625  11.3300480769231 0.4075  11.4979326923077 0.59125  C 11.66625 0.77546875  11.6645192307692 1.0721875  11.4944711538462 1.2540625  L 5.83831730769231 7.31453125  Z " fill-rule="nonzero" fill="#555555" stroke="none" transform="matrix(1 0 0 1 1008 311 )" />
  </g>
</svg>