<?xml version="1.0" encoding="utf-8"?>
<svg version="1.1" xmlns:xlink="http://www.w3.org/1999/xlink" width="14px" height="14px" xmlns="http://www.w3.org/2000/svg">
  <g transform="matrix(1 0 0 1 -1164 16 )">
    <path d="M 7 13.9444444498698  C 3.16468923428982 13.9444444498698  0.0555555501302075 10.8353107657102  0.0555555501302075 7  C 0.0555555501302075 3.16468923428982  3.16468923428982 0.0555555501302075  7 0.0555555501302075  C 10.8353107657102 0.0555555501302075  13.9444444498698 3.16468923428982  13.9444444498698 7  C 13.9444444498698 10.8353107657102  10.8353107657102 13.9444444498698  7 13.9444444498698  Z M 7 13.0185185221354  C 10.3239359963496 13.0185185221354  13.0185185221354 10.3239359963496  13.0185185221354 7  C 13.0185185221354 3.67606400365044  10.3239359963496 0.981481477864583  7 0.981481477864583  C 3.67606400365044 0.981481477864583  0.981481477864583 3.67606400365044  0.981481477864583 7  C 0.981481477864583 10.3239359963496  3.67606400365044 13.0185185221354  7 13.0185185221354  Z " fill-rule="nonzero" fill="#000000" stroke="none" transform="matrix(1 0 0 1 1164 -16 )" />
  </g>
</svg>