<?xml version="1.0" encoding="utf-8"?>
<svg version="1.1" xmlns:xlink="http://www.w3.org/1999/xlink" width="3px" height="6px" xmlns="http://www.w3.org/2000/svg">
  <g transform="matrix(1 0 0 1 -1170 12 )">
    <path d="M 0.95495495143581 3.23627450597427  L 2.81621622149493 5.12549019416361  C 2.91209880333348 5.21850069784698  2.96693350887497 5.3516321198608  2.96693350887497 5.49141185988287  C 2.96693350887497 5.76213967419725  2.76525997591387 5.98160793065493  2.51648306546281 5.98160793065493  C 2.39888344563076 5.98160793065493  2.28594665368661 5.93155996945384  2.20180179476351 5.84215686465993  L 0.245045048564188 3.85588235294118  C 0.12548124736485 3.76420063280108  0.0542661945495434 3.61505213068994  0.0540540487753376 3.45588234719669  L 0.0540540487753364 0.514705888097424  C 0.0540540487753387 0.243978069024154  0.255727585281487 0.0245098087086383  0.504504500105574 0.0245098087086383  C 0.753281414929663 0.0245098087086383  0.95495495143581 0.243978069024153  0.95495495143581 0.514705888097424  L 0.95495495143581 3.23529411190257  Z " fill-rule="nonzero" fill="#000000" stroke="none" transform="matrix(1 0 0 1 1170 -12 )" />
  </g>
</svg>