<?xml version="1.0" encoding="utf-8"?>
<svg version="1.1" xmlns:xlink="http://www.w3.org/1999/xlink" width="10px" height="12px" xmlns="http://www.w3.org/2000/svg">
  <g transform="matrix(1 0 0 1 -1177 -217 )">
    <path d="M 9.77487664473684 6.38040865384615  C 9.97704221491228 6.17127403846154  9.97704221491228 5.82872596153846  9.7765899122807 5.61778846153846  L 4.60594846491228 0.176682692307692  C 4.4054961622807 -0.0342548076923077  4.07997532894737 -0.0342548076923077  3.87952302631579 0.176682692307692  C 3.67907072368421 0.387620192307692  3.67907072368421 0.730168269230769  3.87952302631579 0.941105769230769  L 8.6852384868421 6  L 3.87952302631579 11.0570913461538  C 3.67907072368421 11.2680288461538  3.67907072368421 11.6105769230769  3.87952302631579 11.8215144230769  C 3.98060581140351 11.9278846153846  4.11081414473684 11.9801682692308  4.24273574561404 11.9801682692308  C 4.37465734649123 11.9801682692308  4.50657894736842 11.9278846153846  4.60594846491228 11.8215144230769  L 9.77487664473684 6.38040865384615  Z M 6.12047697368421 6.38040865384615  C 6.32264254385965 6.17127403846154  6.32264254385965 5.82872596153846  6.12047697368421 5.61778846153846  L 0.951548793859649 0.176682692307692  C 0.75109649122807 -0.0342548076923077  0.425575657894737 -0.0342548076923077  0.225123355263158 0.176682692307692  C 0.0246710526315783 0.387620192307692  0.0246710526315789 0.730168269230769  0.225123355263158 0.941105769230769  L 5.03083881578947 6  L 0.225123355263158 11.0570913461538  C 0.0246710526315796 11.2680288461538  0.0246710526315796 11.6105769230769  0.225123355263158 11.8215144230769  C 0.326206140350877 11.9278846153846  0.456414473684211 11.9801682692308  0.588336074561403 11.9801682692308  C 0.720257675438596 11.9801682692308  0.852179276315789 11.9278846153846  0.951548793859649 11.8215144230769  L 6.12047697368421 6.38040865384615  Z " fill-rule="nonzero" fill="#000000" stroke="none" transform="matrix(1 0 0 1 1177 217 )" />
  </g>
</svg>