<?xml version="1.0" encoding="utf-8"?>
<svg version="1.1" xmlns:xlink="http://www.w3.org/1999/xlink" width="12px" height="12px" xmlns="http://www.w3.org/2000/svg">
  <g transform="matrix(1 0 0 1 -1175 -273 )">
    <path d="M 6 11.625  C 9.10177315848214 11.625  11.625 9.10177315848214  11.625 6  C 11.625 2.89822684151786  9.10177315848214 0.375  6 0.375  C 2.89822684151786 0.375  0.375 2.89822684151786  0.375 6  C 0.375 9.10177315848214  2.89822684151786 11.625  6 11.625  Z M 5.6990625 7.88036969866071  L 3.70901785714286 5.86823939732143  C 3.63186244419643 5.78990373883929  3.59290178571429 5.68782505580357  3.59290178571429 5.585771484375  C 3.59290178571429 5.48212332589286  3.63269112723214 5.37845005580357  3.71223214285714 5.30011439732143  C 3.87013392857143 5.14422154017857  4.12407505580357 5.14542689732143  4.28035714285714 5.30332868303571  L 5.98675362723214 7.02859654017857  L 7.70278041294643 5.31739118303571  C 7.85989118303571 5.16069475446428  8.114208984375 5.16110909598214  8.27090541294643 5.31819475446428  C 8.42801618303571 5.47530552455357  8.4271875 5.72962332589286  8.27010184151786 5.88631975446429  L 6.26922154017857 7.88158761160714  C 6.26880719866071 7.882001953125  6.26841796875 7.882001953125  6.26801618303572 7.88239118303571  C 6.26761439732143 7.88278041294643  6.26760184151786 7.88319475446428  6.26721261160714 7.88359654017857  C 6.22984654017857 7.92054827008929  6.18645368303572 7.94707868303571  6.14105189732143 7.96636439732143  C 6.13945731026786 7.96716796875  6.13783761160714 7.96916434151786  6.13621791294643 7.96957868303571  C 5.99034458705357 8.02904296875  5.81676060267857 7.99929827008928  5.69903738839286 7.88038225446428  Z " fill-rule="nonzero" fill="#1890ff" stroke="none" transform="matrix(1 0 0 1 1175 273 )" />
  </g>
</svg>