<?xml version="1.0" encoding="utf-8"?>
<svg version="1.1" xmlns:xlink="http://www.w3.org/1999/xlink" width="89px" height="32px" xmlns="http://www.w3.org/2000/svg">
  <g transform="matrix(1 0 0 1 -233 -122 )">
    <path d="M 234 126  A 3 3 0 0 1 237 123 L 318 123  A 3 3 0 0 1 321 126 L 321 150  A 3 3 0 0 1 318 153 L 237 153  A 3 3 0 0 1 234 150 L 234 126  Z " fill-rule="nonzero" fill="#ffffff" stroke="none" />
    <path d="M 233.5 126  A 3.5 3.5 0 0 1 237 122.5 L 318 122.5  A 3.5 3.5 0 0 1 321.5 126 L 321.5 150  A 3.5 3.5 0 0 1 318 153.5 L 237 153.5  A 3.5 3.5 0 0 1 233.5 150 L 233.5 126  Z " stroke-width="1" stroke-dasharray="3,1" stroke="#d9d9d9" fill="none" stroke-dashoffset="0.5" />
  </g>
</svg>