<?xml version="1.0" encoding="utf-8"?>
<svg version="1.1" xmlns:xlink="http://www.w3.org/1999/xlink" width="14px" height="14px" xmlns="http://www.w3.org/2000/svg">
  <g transform="matrix(1 0 0 1 -2197 -2490 )">
    <path d="M 13.5624864332933 1.95195021033654  C 13.5625135667067 1.11695853365385  12.8830414663462 0.437513566706731  12.0480769230769 0.437513566706731  L 1.95192307692308 0.437513566706731  C 1.11695853365385 0.437513566706731  0.437486433293269 1.11698566706731  0.437486433293269 1.95195021033654  L 0.437486433293269 12.0481040564904  C 0.437486433293269 12.8830414663462  1.11695853365385 13.5625135667067  1.95192307692308 13.5625135667067  L 12.0480769230769 13.5625135667067  C 12.8830143329327 13.5625135667067  13.5624864332933 12.8830414663462  13.5624864332933 12.0481040564904  L 13.5624864332933 1.95195021033654  Z M 10.3917432384315 5.12565127854567  C 10.5891887973257 5.32201135892428  10.5911969065505 5.64157138146034  10.3953252749399 5.83945112229567  L 6.35333598257212 9.92534734149639  C 6.35233193584736 9.92635138822115  6.35029669320913 9.92686698617788  6.34929263070913 9.92838663085938  C 6.34777298602764 9.92939067758413  6.34777298602764 9.93142592022236  6.34625334134615 9.93242998272236  C 6.31393370718149 9.96371842097356  6.2740701164363 9.98290396859976  6.23670308368389 10.0041247430889  C 6.21803313401442 10.0147351382212  6.2028909382512 10.0308813807091  6.18318980844351 10.0384524864784  C 6.12262102539063 10.0626854326923  6.05849735501803 10.075303921274  5.9944008180589 10.075303921274  C 5.92978868314303 10.075303921274  5.86466096604567 10.0626854326923  5.80357658503606 10.0374484397536  C 5.7833869906851 10.0288732872596  5.76724074819712 10.0116958488582  5.74805520057092 10.0011126029147  C 5.71068816781851 9.97991896183894  5.67182862379808 9.96122187875601  5.63950898963342 9.92941784254808  C 5.63850494290866 9.92841379582332  5.63798934495192 9.9263785531851  5.63698529822716 9.9253744906851  C 5.63598125150241 9.92385484600361  5.63394600886418 9.92385484600361  5.63294194636418 9.92233520132212  L 3.64499961538462 7.87938708383414  C 3.45064762845553 7.67947211613582  3.45517944486178 7.35993922701322  3.6550944125601 7.16558724008414  C 3.85500938025841 6.97175085111178  4.17402668719952 6.97527860501803  4.3688942563101 7.17568203725962  L 5.99790142277644 8.84962732647236  L 9.67794339468149 5.12969463040865  C 9.87381502629207 4.93129930739183  10.1938634975962 4.92977966271034  10.3917432384315 5.12565127854567  Z " fill-rule="nonzero" fill="#6ec456" stroke="none" transform="matrix(1 0 0 1 2197 2490 )" />
  </g>
</svg>