<?xml version="1.0" encoding="utf-8"?>
<svg version="1.1" xmlns:xlink="http://www.w3.org/1999/xlink" width="14px" height="14px" xmlns="http://www.w3.org/2000/svg">
  <g transform="matrix(1 0 0 1 -2105 -2490 )">
    <path d="M 13.5624864332933 12.0481040564904  C 13.5625135667067 12.8830414663462  12.8830414663462 13.5625135667067  12.0480769230769 13.5625135667067  L 1.95192307692308 13.5625135667067  C 1.11695853365385 13.5625135667067  0.437486433293269 12.8830414663462  0.437486433293269 12.0481040564904  L 0.437486433293269 1.95195021033654  C 0.437486433293269 1.11698566706731  1.11695853365385 0.43751356670673  1.95192307692308 0.43751356670673  L 12.0480769230769 0.43751356670673  C 12.8830143329327 0.43751356670673  13.5624864332933 1.11698566706731  13.5624864332933 1.95195021033654  L 13.5624864332933 12.0481040564904  Z M 12.0480769230769 1.44712895132212  L 1.95192307692308 1.44712895132212  C 1.67377342322716 1.44712895132212  1.44710181790865 1.67380055664062  1.44710181790865 1.95195021033654  L 1.44710181790865 12.0481040564904  C 1.44710181790865 12.3267692923678  1.67377342322716 12.5528981820913  1.95192307692308 12.5528981820913  L 12.0480769230769 12.5528981820913  C 12.3267421589543 12.5528981820913  12.5528710486779 12.3267421589543  12.5528710486779 12.0481040564904  L 12.5528710486779 1.95195021033654  C 12.5528710486779 1.67380055664062  12.3267150255409 1.44712895132212  12.0480769230769 1.44712895132212  Z " fill-rule="nonzero" fill="#feb408" stroke="none" transform="matrix(1 0 0 1 2105 2490 )" />
  </g>
</svg>