<?xml version="1.0" encoding="utf-8"?>
<svg version="1.1" xmlns:xlink="http://www.w3.org/1999/xlink" width="14px" height="14px" xmlns="http://www.w3.org/2000/svg">
  <g transform="matrix(1 0 0 1 -1828 -1893 )">
    <path d="M 1835 1893  C 1838.92 1893  1842 1896.08  1842 1900  C 1842 1903.92  1838.92 1907  1835 1907  C 1831.08 1907  1828 1903.92  1828 1900  C 1828 1896.08  1831.08 1893  1835 1893  Z " fill-rule="nonzero" fill="#ffffff" stroke="none" />
    <path d="M 1835 1893.5  C 1838.64 1893.5  1841.5 1896.36  1841.5 1900  C 1841.5 1903.64  1838.64 1906.5  1835 1906.5  C 1831.36 1906.5  1828.5 1903.64  1828.5 1900  C 1828.5 1896.36  1831.36 1893.5  1835 1893.5  Z " stroke-width="1" stroke="#1b91fe" fill="none" />
  </g>
</svg>