<?xml version="1.0" encoding="utf-8"?>
<svg version="1.1" xmlns:xlink="http://www.w3.org/1999/xlink" width="9px" height="6px" xmlns="http://www.w3.org/2000/svg">
  <g transform="matrix(1 0 0 1 -701 -1157 )">
    <path d="M 8.64489400268555 0.727463892463235  C 8.77850759399414 0.594808576516544  8.7711371081543 0.385366850873162  8.62981286132813 0.259968612132353  C 8.48848861450195 0.135228498391544  8.26559770385742 0.141187141544118  8.13306133300781 0.27453615234375  L 3.44460380493164 4.97271871668199  L 0.883475002441406 2.59764065831801  C 0.744966650390625 2.46925421070772  0.522415920410156 2.47058823529412  0.386005319824219 2.60094903722427  C 0.249594719238281 2.73098966911765  0.251352301025391 2.94076934972427  0.389879549560547 3.06881784237132  L 3.20765227294922 5.68145885225184  C 3.20871059692383 5.682454921875  3.2101091015625 5.68277509191176  3.21116742553711 5.68377116153493  C 3.21222574951172 5.68476723115809  3.21256593017578 5.68608347081801  3.21362425415039 5.68707954044118  C 3.23577349365234 5.70692981387868  3.2624962097168 5.71818897518382  3.28816060180664 5.73142249080882  C 3.30082270751953 5.73837720358456  3.31170834594727 5.7486225  3.32506969848633 5.75358507352941  C 3.36655228271484 5.76881072840074  3.41049168457031 5.77674372587316  3.45409091674805 5.77674372587316  C 3.50014697753906 5.77674372587316  3.54620302734375 5.76813482881434  3.58908411621094 5.75093480928309  C 3.60350380371094 5.74531412109375  3.61474850830078 5.73373480009191  3.62810987182617 5.72644213235294  C 3.65447351074219 5.71187459214155  3.68189548461914 5.69963714613971  3.70440380126953 5.67813268841912  C 3.70546212524414 5.67713661879596  3.7058023059082 5.6754824241728  3.70686062988281 5.67448635454963  C 3.70755987670899 5.67349028492647  3.70897727783203 5.67317011488971  3.71001670532227 5.67217404526655  L 8.64489400268555 0.727463892463235  Z " fill-rule="nonzero" fill="#40a9ff" stroke="none" transform="matrix(1 0 0 1 701 1157 )" />
  </g>
</svg>