<?xml version="1.0" encoding="utf-8"?>
<svg version="1.1" xmlns:xlink="http://www.w3.org/1999/xlink" width="358px" height="108px" xmlns="http://www.w3.org/2000/svg">
  <defs>
    <filter x="2149px" y="1307px" width="358px" height="108px" filterUnits="userSpaceOnUse" id="filter185">
      <feOffset dx="0" dy="0" in="SourceAlpha" result="shadowOffsetInner" />
      <feGaussianBlur stdDeviation="7" in="shadowOffsetInner" result="shadowGaussian" />
      <feComposite in2="shadowGaussian" operator="atop" in="SourceAlpha" result="shadowComposite" />
      <feColorMatrix type="matrix" values="0 0 0 0 0.105882352941176  0 0 0 0 0.568627450980392  0 0 0 0 0.996078431372549  0 0 0 0.47843137254902 0  " in="shadowComposite" />
    </filter>
    <g id="widget186">
      <path d="M 2164 1325  A 3 3 0 0 1 2167 1322 L 2489 1322  A 3 3 0 0 1 2492 1325 L 2492 1397  A 3 3 0 0 1 2489 1400 L 2167 1400  A 3 3 0 0 1 2164 1397 L 2164 1325  Z " fill-rule="nonzero" fill="#ffffff" stroke="none" />
      <path d="M 2163.5 1325  A 3.5 3.5 0 0 1 2167 1321.5 L 2489 1321.5  A 3.5 3.5 0 0 1 2492.5 1325 L 2492.5 1397  A 3.5 3.5 0 0 1 2489 1400.5 L 2167 1400.5  A 3.5 3.5 0 0 1 2163.5 1397 L 2163.5 1325  Z " stroke-width="1" stroke="#1b91fe" fill="none" stroke-opacity="0.305882352941176" />
    </g>
  </defs>
  <g transform="matrix(1 0 0 1 -2149 -1307 )">
    <use xlink:href="#widget186" filter="url(#filter185)" />
    <use xlink:href="#widget186" />
  </g>
</svg>