<?xml version="1.0" encoding="utf-8"?>
<svg version="1.1" xmlns:xlink="http://www.w3.org/1999/xlink" width="11px" height="6px" xmlns="http://www.w3.org/2000/svg">
  <g transform="matrix(1 0 0 1 -2285 -980 )">
    <path d="M 10.5823351965332 0.932931373197116  C 10.7499139123535 0.76283171123798  10.7486435009766 0.488946377704327  10.5801870544434 0.32061448016827  C 10.4113148449707 0.152724510216346  10.1397472558594 0.153585135216346  9.97260742553711 0.323219585336538  L 5.57047314086914 4.79681959435096  L 1.10687407348633 0.34226944561298  C 0.938001864013672 0.173960805288462  0.666434274902344 0.175240100661057  0.498855572509765 0.34487455078125  C 0.3317157421875 0.514927684795672  0.332986153564453 0.788813018329327  0.501442586669922 0.957144929387019  L 5.24561760131836 5.6912325766226  C 5.25291668945312 5.69858270733173  5.26236391967773 5.70032720102163  5.26968610351562 5.707235390625  C 5.27139538696289 5.70895662710337  5.27183424560547 5.71111979116587  5.27354352905273 5.71286428485577  C 5.35732132568359 5.79636732872596  5.46690001708984 5.83835144981971  5.57603983642578 5.83835144981971  C 5.6864731628418 5.83835144981971  5.79732225219727 5.7955067172476  5.88112315795898 5.71028243689904  L 10.5823351965332 0.932931373197116  Z " fill-rule="nonzero" fill="#272636" stroke="none" transform="matrix(1 0 0 1 2285 980 )" />
  </g>
</svg>