<?xml version="1.0" encoding="utf-8"?>
<svg version="1.1" xmlns:xlink="http://www.w3.org/1999/xlink" width="14px" height="14px" xmlns="http://www.w3.org/2000/svg">
  <g transform="matrix(1 0 0 1 -2466 -1334 )">
    <path d="M 8.40475391113281 6.99874013183594  C 8.40475391113281 7.77481941894531  7.77481941894531 8.40475391113281  6.99874013183594 8.40475391113281  C 6.22266084472656 8.40475391113281  5.59272635253906 7.77481941894531  5.59272635253906 6.99874013183594  C 5.59272635253906 6.22266084472656  6.22266084472656 5.59272635253906  6.99874013183594 5.59272635253906  C 7.77481941894531 5.59272635253906  8.40475391113281 6.22266084472656  8.40475391113281 6.99874013183594  Z M 7.46741139648438 6.99874013183594  C 7.46741139648438 6.74172685058594  7.25827313476562 6.5300688671875  6.99874013183594 6.5300688671875  C 6.74172686523438 6.5300688671875  6.5300688671875 6.74172685058594  6.5300688671875 6.99874013183594  C 6.5300688671875 7.25575341308594  6.74172685058594 7.46741139648438  6.99874013183594 7.46741139648438  C 7.25575341308594 7.46741139648438  7.46741139648438 7.25575341308594  7.46741139648438 6.99874013183594  Z M 8.87342516113281 13.5424995800781  C 8.83058961425781 13.5550982763672  8.78775406738281 13.5626574853516  8.74239878417969 13.5626574853516  C 8.59625398925781 13.5626574853516  8.45262891601563 13.4921048242187  8.3644380859375 13.3711574072266  L 7.28851 11.897110703125  C 7.08945069824219 11.9097093994141  6.90802956542969 11.9097093994141  6.70897027832031 11.897110703125  L 5.63304217773438 13.3686376708984  C 5.51713423339844 13.5273811621094  5.3155551953125 13.5979338232422  5.12657485351563 13.5424995947266  C 4.62010752929687 13.3988745361328  4.13883758300781 13.199815234375  3.69536369628906 12.9528809130859  C 3.52402150878906 12.8571308740234  3.43079120605469 12.66563078125  3.46102807128906 12.4716109667969  L 3.74323871582031 10.6649588623047  C 3.59961365722656 10.5364522216797  3.46354780761719 10.4003863720703  3.33504116699219 10.2567613134766  L 1.5283890625 10.5389719580078  C 1.336888984375 10.5692088085937  1.14286915527344 10.4759785058594  1.04711911621094 10.3046363330078  C 0.800184794921875 9.85864270996094  0.601125493164063 9.37737276367188  0.457500434570313 8.87090543945313  C 0.404585942382813 8.68192509765625  0.4726188671875 8.48034605957031  0.631362358398437 8.36443811523438  L 2.10288932617188 7.28851001464844  C 2.0953301171875 7.18772050292969  2.09281038085938 7.09197044921875  2.09281038085938 6.99874014648438  C 2.09281038085938 6.90550984375  2.0953301171875 6.8097598046875  2.10288932617188 6.70897027832031  L 0.631362358398438 5.63304217773438  C 0.4726188671875 5.51713423339844  0.402066206054688 5.3155551953125  0.457500434570313 5.12657485351563  C 0.601125493164063 4.62010752929688  0.800184794921875 4.13883758300781  1.04711911621094 3.69536369628906  C 1.14286915527344 3.52402150878906  1.336888984375 3.43079120605469  1.5283890625 3.46102807128906  L 3.33504116699219 3.74323871582031  C 3.46354780761719 3.59961365722656  3.59961365722656 3.46354780761719  3.74323871582031 3.33504116699219  L 3.46102807128906 1.5283890625  C 3.43079122070313 1.33436923339844  3.5240215234375 1.14286915527344  3.69788343261719 1.04711911621094  C 4.14387705566406 0.800184794921875  4.62514700195313 0.601125493164063  5.12909458984375 0.457500434570313  C 5.31807493164063 0.404585942382813  5.51965396972656 0.4726188671875  5.6355619140625 0.631362358398437  L 6.71149001464844 2.10288932617188  C 6.91054931640625 2.09029062988281  7.08945071289062 2.09029062988281  7.29102973632813 2.10288932617188  L 8.36695783691406 0.631362358398438  C 8.48286578125 0.4726188671875  8.68444481933594 0.404585942382813  8.87342516113281 0.457500434570313  C 9.37737274902344 0.601125493164063  9.8586426953125 0.800184794921875  10.3046363183594 1.04711911621094  C 10.4759785058594 1.14286915527344  10.5692088085937 1.33436924804688  10.5389719433594 1.5283890625  L 10.2567612988281 3.33504116699219  C 10.4003863574219 3.46354780761719  10.5364522070313 3.59961365722656  10.6649588476562 3.74071897949219  L 12.4716109521484 3.45850833496094  C 12.6631110302734 3.428271484375  12.857130859375 3.52150178710937  12.9528808984375 3.69284395996094  C 13.1998152197266 4.13883758300781  13.3988745214844 4.62010752929688  13.5450193164063 5.12657485351563  C 13.5979338085937 5.3155551953125  13.5299008837891 5.51713423339844  13.3711573925781 5.63304217773438  L 11.897110703125 6.70897026367187  C 11.9046699121094 6.80975977539062  11.9071896484375 6.90550982910156  11.9071896484375 6.99874013183594  C 11.9071896484375 7.09197043457031  11.9046699121094 7.18772047363281  11.897110703125 7.28851  L 13.3686376708984 8.36443810058594  C 13.5273811621094 8.48034604492187  13.5954140869141 8.68192508300781  13.5424995947266 8.87090542480469  C 13.3988745361328 9.37737274902344  13.199815234375 9.8586426953125  12.9503611767578 10.3046363183594  C 12.8546111376953 10.4759785058594  12.6656307958984 10.5692088085937  12.4690912304688 10.5389719433594  L 10.6649588476562 10.2592810351563  C 10.5389719433594 10.40290609375  10.4003863574219 10.5389719433594  10.2567612988281 10.6649588476562  L 10.5389719433594 12.4716109521484  C 10.5692087939453 12.66563078125  10.4759784912109 12.857130859375  10.3046363183594 12.9528808984375  C 9.86116244628906 13.1998152197266  9.37989248535156 13.3988745214844  8.87342516113281 13.5424995800781  Z M 4.70829833007812 10.5490508886719  L 4.43868638183594 12.2826306103516  C 4.64278515625 12.3809003857422  4.85696287597656 12.4690912158203  5.07618008300781 12.5446833496094  L 6.10927263671875 11.1311103613281  C 6.20754241210937 10.9950445117187  6.37384512695312 10.9219721142578  6.54014782714844 10.9421300195312  C 6.84251637695312 10.9774063574219  7.15748362304687 10.9774063574219  7.45733243652344 10.9421300195312  C 7.63119436035156 10.9219721142578  7.7899378515625 10.9950445117187  7.88820762695312 11.1311103613281  L 8.92130018066406 12.5446833496094  C 9.14051738769531 12.4690912158203  9.35469510742187 12.3809003857422  9.55879388183594 12.2826306103516  L 9.28918191894531 10.5490509033203  C 9.26398454101562 10.382748203125  9.32949772949219 10.2139257519531  9.46052410644531 10.1106165039062  C 9.69989921875 9.91911642578125  9.91911641113281 9.70241895507812  10.1080967529297 9.46304385742187  C 10.2139257519531 9.33201748046875  10.3777087158203 9.26398455566406  10.5465311523437 9.29170166992187  L 12.280110859375 9.5613136328125  C 12.3783806347656 9.35721485839844  12.4665714648438 9.14303713867187  12.5421635986328 8.92381993164062  L 11.1285906103516 7.89072737792968  C 10.9925247607422 7.79245760253906  10.9194523632813 7.62615488769531  10.9396102685547 7.4598521875  C 10.9572484375 7.30866790527344  10.9673273828125 7.15748363769531  10.9673273828125 7.0012598828125  C 10.9673273828125 6.84503612792969  10.9572484375 6.69385186035156  10.9396102685547 6.542667578125  C 10.9194523632813 6.37636487792969  10.9925247607422 6.21006216308594  11.1285906103516 6.11179238769531  L 12.5421635986328 5.07869983398437  C 12.4665714648437 4.85948262695312  12.3783806347656 4.64530490722656  12.280110859375 4.4412061328125  L 10.5465311523437 4.71081809570312  C 10.3802284521484 4.73601547363281  10.2114060009766 4.67050228515625  10.1080967529297 4.53947590820312  C 9.91911641113281 4.302620546875  9.70241894042969 4.08340333984375  9.46052410644531 3.89190326171875  C 9.32949772949219 3.78607426269531  9.26398454101562 3.6197715625  9.28918191894531 3.45346886230469  L 9.56131361816406 1.71736938964844  C 9.35721484375 1.61909961425781  9.14303712402344 1.53090878417969  8.92381991699219 1.45531665039063  L 7.89072736328125 2.86888963867188  C 7.79245758789062 3.00495548828125  7.63119436035156 3.08054762207031  7.45985217285156 3.05786998046875  C 7.160003359375 3.02259364257813  6.84503611328125 3.02259364257813  6.54266756347656 3.05786998046875  C 6.37384512695312 3.07802788574219  6.2100621484375 3.00495548828125  6.10927263671875 2.86888963867188  L 5.07618008300781 1.45531665039063  C 4.85696287597656 1.53090878417969  4.64278515625 1.61909961425781  4.43868638183594 1.71736938964844  L 4.70829834472656 3.45094909667969  C 4.73349572265625 3.617251796875  4.66798253417969 3.78607424804687  4.53695615722656 3.88938349609375  C 4.29758104492188 4.07836383789062  4.08088358886719 4.29758104492188  3.88938351074219 4.53695614257812  C 3.78355451171875 4.66798251953125  3.61725181152344 4.73349570800781  3.45094911132812 4.70829833007812  L 1.71736938964844 4.43868638183594  C 1.61909961425781 4.64278515625  1.53090878417969 4.85696287597656  1.45531665039063 5.07618008300781  L 2.86888963867188 6.10927263671875  C 3.00495548828125 6.20754241210937  3.07802788574219 6.37384512695312  3.05786998046875 6.54266756347656  C 3.04023181152344 6.691332109375  3.03015286621094 6.84503611328125  3.03015286621094 6.99874013183594  C 3.03015286621094 7.15496388671875  3.04023181152344 7.30614815429687  3.05786998046875 7.45733243652344  C 3.07802788574219 7.62615487304688  3.00495548828125 7.7899378515625  2.86888963867188 7.89072736328125  L 1.45531665039063 8.92381991699219  C 1.53090878417969 9.14303712402344  1.61909961425781 9.35721484375  1.71736938964844 9.56131361816406  L 3.45094909667969 9.29170165527344  C 3.617251796875 9.26650427734375  3.78607424804687 9.33201746582031  3.88938349609375 9.46304384277344  C 4.07836383789062 9.70241895507812  4.29506130859375 9.91911641113281  4.53695614257812 10.1106164892578  C 4.66798251953125 10.2164454882813  4.73601544433594 10.3827481884766  4.70829833007812 10.5490508886719  Z " fill-rule="nonzero" fill="#7f7f7f" stroke="none" transform="matrix(1 0 0 1 2466 1334 )" />
  </g>
</svg>