<?xml version="1.0" encoding="utf-8"?>
<svg version="1.1" xmlns:xlink="http://www.w3.org/1999/xlink" width="12px" height="12px" xmlns="http://www.w3.org/2000/svg">
  <g transform="matrix(1 0 0 1 -1188 -1062 )">
    <path d="M 11.6000969573103 6  C 11.6000969573103 9.08812900530134  9.08812899274553 11.6000969573103  6 11.6000969573103  C 2.91228138113839 11.6000969573103  0.399903042689732 9.08812900530134  0.399903042689732 6  C 0.399903042689732 2.91228138113839  2.91225977260045 0.399903042689732  6 0.399903042689732  C 9.08812899274553 0.399903042689732  11.6000969573103 2.91187099469866  11.6000969573103 6  Z M 10.7965255287388 6  C 10.7965255287388 3.35502859654018  8.64456101702009 1.20347447126116  6 1.20347447126116  C 3.35505020507813 1.20347447126116  1.20347447126116 3.35502859654018  1.20347447126116 6  C 1.20347447126116 8.64456101702009  3.35502859654018 10.7965255287388  6 10.7965255287388  C 8.64456101702009 10.7965255287388  10.7965255287388 8.64497140345982  10.7965255287388 6  Z M 6 2.78571428571429  C 5.66714583565848 2.78571428571429  5.39731602957589 3.05554409179687  5.39731602957589 3.38839825613839  C 5.39731602957589 3.72125242047991  5.66714583565848 3.9910822265625  6 3.9910822265625  C 6.33285416434152 3.9910822265625  6.60268397042411 3.72125242047991  6.60268397042411 3.38839825613839  C 6.60268397042411 3.05554409179687  6.33285416434152 2.78571428571429  6 2.78571428571429  Z M 6.40179651227679 8.81248920200893  C 6.40179651227679 9.03469435546875  6.22179477957589 9.21428571428572  6 9.21428571428572  C 5.77820522042411 9.21428571428572  5.59820348772321 9.03469435546875  5.59820348772321 8.81248920200893  L 5.59820348772321 5.19642857142857  C 5.59820348772321 4.97463379185268  5.77820522042411 4.79463205915179  6 4.79463205915179  C 6.22179477957589 4.79463205915179  6.40179651227679 4.97463379185268  6.40179651227679 5.19642857142857  L 6.40179651227679 8.81248920200893  Z " fill-rule="nonzero" fill="#aaaaaa" stroke="none" transform="matrix(1 0 0 1 1188 1062 )" />
  </g>
</svg>