<?xml version="1.0" encoding="utf-8"?>
<svg version="1.1" xmlns:xlink="http://www.w3.org/1999/xlink" width="15px" height="16px" xmlns="http://www.w3.org/2000/svg">
  <g transform="matrix(1 0 0 1 -3122 -1998 )">
    <path d="M 13.4134615384615 13.8928571428571  C 13.4134615384615 14.7789285714286  12.6854567307692 15.5  11.7908653846154 15.5  L 2.05528846153846 15.5  C 1.16069711538462 15.5  0.432692307692308 14.7789285714286  0.432692307692308 13.8928571428571  L 0.432692307692308 3.17857142857143  C 0.432692307692308 2.2925  1.16069711538462 1.57142857142857  2.05528846153846 1.57142857142857  L 9.62740384615385 1.57142857142857  C 9.92650240384615 1.57142857142857  10.1682692307692 1.81142857142857  10.1682692307692 2.10714285714286  C 10.1682692307692 2.40285714285714  9.92650240384615 2.64285714285714  9.62740384615385 2.64285714285714  L 2.05528846153846 2.64285714285714  C 1.75727163461538 2.64285714285714  1.51442307692308 2.88339285714286  1.51442307692308 3.17857142857143  L 1.51442307692308 13.8928571428571  C 1.51442307692308 14.1885714285714  1.75727163461538 14.4285714285714  2.05528846153846 14.4285714285714  L 11.7908653846154 14.4285714285714  C 12.0894230769231 14.4285714285714  12.3317307692308 14.1885714285714  12.3317307692308 13.8928571428571  L 12.3317307692308 5.32142857142857  C 12.3317307692308 5.02571428571429  12.5734975961538 4.78571428571429  12.8725961538462 4.78571428571429  C 13.1716947115385 4.78571428571429  13.4134615384615 5.02571428571429  13.4134615384615 5.32142857142857  L 13.4134615384615 13.8928571428571  Z M 7.29789663461538 8.35946428571429  C 7.19242788461539 8.46285714285714  7.05504807692308 8.51428571428571  6.91766826923077 8.51428571428571  C 6.778125 8.51428571428571  6.63858173076923 8.46125  6.53311298076923 8.35517857142857  C 6.32325721153846 8.14464285714286  6.32487980769231 7.80553571428571  6.53743990384615 7.59767857142857  L 13.6076322115385 0.671428571428571  C 13.8207331730769 0.463035714285714  14.1625600961538 0.465714285714286  14.3724158653846 0.675714285714285  C 14.5828125 0.88625  14.5806490384615 1.22535714285714  14.3680889423077 1.43321428571429  L 7.29789663461538 8.35946428571429  Z " fill-rule="nonzero" fill="#272636" stroke="none" transform="matrix(1 0 0 1 3122 1998 )" />
  </g>
</svg>