<?xml version="1.0" encoding="utf-8"?>
<svg version="1.1" xmlns:xlink="http://www.w3.org/1999/xlink" width="8px" height="4px" xmlns="http://www.w3.org/2000/svg">
  <g transform="matrix(1 0 0 1 -3255 -1958 )">
    <path d="M 7.69624377929687 0.621954248798077  C 7.81811920898437 0.508554474158654  7.8171952734375 0.325964251802885  7.69468149414062 0.213742986778846  C 7.57186534179688 0.101816340144231  7.374361640625 0.10239009014423  7.25280540039063 0.215479723557692  L 4.05125319335937 3.19787972956731  L 0.804999326171875 0.228179630408654  C 0.682183173828125 0.115973870192308  0.48467947265625 0.116826733774038  0.362804052734375 0.2299163671875  C 0.2412478125 0.343285123197115  0.242171748046875 0.525875345552884  0.364685517578125 0.638096619591346  L 3.81499461914062 3.79415505108173  C 3.820303046875 3.79905513822115  3.82717375976562 3.80021813401442  3.832498984375 3.80482359375  C 3.83374209960937 3.80597108473558  3.83406126953125 3.80741319411058  3.83530438476562 3.80857618990385  C 3.89623369140625 3.86424488581731  3.97592728515625 3.89223429987981  4.05530169921875 3.89223429987981  C 4.13561684570313 3.89223429987981  4.21623436523437 3.86367114483173  4.27718047851562 3.80685495793269  L 7.69624377929687 0.621954248798077  Z " fill-rule="nonzero" fill="#333333" stroke="none" transform="matrix(1 0 0 1 3255 1958 )" />
  </g>
</svg>