<?xml version="1.0" encoding="utf-8"?>
<svg version="1.1" xmlns:xlink="http://www.w3.org/1999/xlink" width="21px" height="16px" xmlns="http://www.w3.org/2000/svg">
  <g transform="matrix(1 0 0 1 -4463 -2569 )">
    <path d="M 20.5178481445312 14.4816822585227  L 17.2787250073242 10.3804651420455  C 18.4277255200195 9.31759386363636  19.1496304394531 7.82957406960227  19.1496304394531 6.17296090198864  C 19.1496304394531 2.96235661931818  16.4472114916992 0.349159296875  13.1287166162109 0.349159296875  C 9.80644213623047 0.349159296875  7.10780279296875 2.96235661931818  7.10780279296875 6.17296090198864  C 7.10780279296875 9.38356518465909  9.81022174072266 11.9967625071023  13.1287166162109 11.9967625071023  C 14.1983453686523 11.9967625071023  15.1999412182617 11.7218820099432  16.0730304052734 11.2490875284091  L 19.323492355957 15.3649649289773  C 19.470897019043 15.5518836789773  19.6938938378906 15.6508406605114  19.9244498657227 15.6508406605114  C 20.0831933642578 15.6508406605114  20.2457164453125 15.6031947159091  20.3780026904297 15.5005726420455  C 20.7068284790039 15.2550127556818  20.7710817993164 14.8005436505682  20.5178481445312 14.4816822585227  Z M 8.50247775146484 6.17296092329545  C 8.50247775146484 3.70636654829546  10.5774819580078 1.70157139914773  13.1287166162109 1.70157139914773  C 15.6799512744141 1.70157139914773  17.754955480957 3.70636652698864  17.754955480957 6.17296092329545  C 17.754955480957 8.63955531960227  15.6799512744141 10.6443504474432  13.1287166162109 10.6443504474432  C 10.5774819580078 10.6443504474432  8.50247775146484 8.63955529829546  8.50247775146484 6.17296092329545  Z M 5.58840079833984 3.24456730113636  L 1.07932973876953 3.24456730113636  C 0.663572980957031 3.24456730113636  0.327187961425781 2.91837576704545  0.327187961425781 2.51888276988636  C 0.327187961425781 2.11938977272727  0.663572980957031 1.79319823863636  1.07932973876953 1.79319823863636  L 5.58840079833984 1.79319823863636  C 6.00415755615234 1.79319823863636  6.3405425756836 2.11938977272727  6.3405425756836 2.51888276988636  C 6.34054257568359 2.91837576704545  6.004157578125 3.24456730113636  5.58840079833984 3.24456730113636  Z M 5.40697967285156 10.4317761789773  L 1.07932973876953 10.4317761789773  C 0.663572980957031 10.4317761789773  0.327187961425781 10.1055846448864  0.327187961425781 9.70609164772727  C 0.327187961425781 9.30659865056818  0.663572980957031 8.98040711647727  1.07932973876953 8.98040711647727  L 5.40697967285156 8.98040711647727  C 5.82273643066406 8.98040711647727  6.15912145019531 9.30659865056818  6.15912145019531 9.70609164772727  C 6.15912145019531 10.1055846661932  5.82273643066406 10.4317761789773  5.40697967285156 10.4317761789773  Z M 4.51877204589844 6.8290090625  L 1.07932973876953 6.8290090625  C 0.663572980957031 6.8290090625  0.327187961425781 6.50281752840909  0.327187961425781 6.09965946022727  C 0.327187961425781 5.69650139204545  0.663572980957031 5.37030985795454  1.07932973876953 5.37030985795454  L 4.51877204589844 5.37030985795454  C 4.93452880371094 5.37030985795454  5.27091382324219 5.69650139204545  5.27091382324219 6.09965946022727  C 5.26713421875 6.50281752840909  4.93074919921875 6.8290090625  4.51877204589844 6.8290090625  Z M 9.36044852050781 14.1628208877841  L 1.07932973876953 14.1628208877841  C 0.663572980957031 14.1628208877841  0.327187961425781 13.8366293536932  0.327187961425781 13.4334712855114  C 0.327187961425781 13.0303132173295  0.663572980957031 12.7041216832386  1.07932973876953 12.7041216832386  L 9.36044849853516 12.7041216832386  C 9.77620525634766 12.7041216832386  10.1125902758789 13.0303132173295  10.1125902758789 13.4334712855114  C 10.1125902978516 13.8366293536932  9.77620527832031 14.1628208877841  9.36044852050781 14.1628208877841  Z " fill-rule="nonzero" fill="#333333" stroke="none" transform="matrix(1 0 0 1 4463 2569 )" />
  </g>
</svg>