<?xml version="1.0" encoding="utf-8"?>
<svg version="1.1" xmlns:xlink="http://www.w3.org/1999/xlink" width="13px" height="10px" xmlns="http://www.w3.org/2000/svg">
  <g transform="matrix(1 0 0 1 -3558 -1897 )">
    <path d="M 8.14536341488487 0.866666660156251  C 8.14536341488487 0.496296286892361  8.14536341488487 1.23703703342014  8.14536341488487 0.86666666015625  C 8.14536340434137 0.406429372662413  7.7806830629639 0.0333333398437489  7.33082706766917 0.0333333398437489  L 0.814536347215696 0.0333333398437489  C 0.364729047304667 0.0334037913732054  0.000124699898912904 0.406479196158539  0.000124699898912904 0.866666669921875  C 0.000124699898912904 1.32685414368521  0.364729047304667 1.69992954847054  0.814536347215696 1.7  L 7.33082706766917 1.7  C 7.78068307041928 1.7  8.14536341488487 1.32690395527752  8.14536341488487 0.866666660156251  Z M 4.88721804511278 4.2  L 0.814536347215696 4.2  C 0.364729047304667 4.20007045152946  0.000124699898912904 4.57314585631479  0.000124699898912904 5.03333333007812  C 0.000124699898912904 5.49352080384146  0.364729047304667 5.86659620862679  0.814536347215696 5.86666666015625  L 4.88721804511278 5.86666666015625  C 5.33702534502381 5.86659620862679  5.70162969242957 5.49352080384146  5.70162969242957 5.03333333007812  C 5.70162969242957 4.57314585631479  5.33702534502381 4.20007045152946  4.88721804511278 4.2  Z M 12.94158688562 4.39375  C 12.94158688562 4.1725756239224  12.855645469813 3.96047354248323  12.7026942419525 3.80416666015625  C 12.5499130787758 3.64768578857593  12.3425952548127 3.55976110932727  12.1264097744361 3.55976110932727  C 11.9102242940595 3.55976110932727  11.7029064700964 3.64768578857593  11.5501253069196 3.80416666015625  L 7.5181704197016 7.95  L 6.36967417910009 6.77083333984375  C 6.21683403800792 6.61446611857252  6.00953832153657 6.5266199283763  5.793389721129 6.5266199283763  C 5.34328356153614 6.5266199283763  4.97840042488144 6.89992344510765  4.97840042488144 7.36041666992188  C 4.97840042488144 7.58155331495424  5.06426512206571 7.79363277872877  5.21710526315789 7.95  L 6.94392229940085 9.71666666015625  C 7.09670346257759 9.87314753173657  7.30402128654069 9.96107221098523  7.52020676691729 9.96107221098523  C 7.73639224729389 9.96107221098523  7.943710071257 9.87314753173657  8.09649123443374 9.71666666015625  L 12.7026942419525 4.98333333984375  C 12.855645469813 4.82702645751677  12.94158688562 4.6149243760776  12.94158688562 4.39375  Z " fill-rule="nonzero" fill="#1b91fe" stroke="none" transform="matrix(1 0 0 1 3558 1897 )" />
  </g>
</svg>