<?xml version="1.0" encoding="utf-8"?>
<svg version="1.1" xmlns:xlink="http://www.w3.org/1999/xlink" width="15px" height="15px" xmlns="http://www.w3.org/2000/svg">
  <g transform="matrix(1 0 0 1 -1391 -201 )">
    <path d="M 14.4018322317941 14.428829422433  C 14.6070108712333 14.2398490565709  14.6178097412109 13.9212821881975  14.4288294067383 13.718803250558  L 12.0341784511021 11.1567697004046  C 13.0060773768834 9.98779127197266  13.5379220685686 8.52994288330078  13.5379220685686 6.99650237339565  C 13.5379220685686 3.39777664620536  10.6087267037528 0.468581281389509  7.00730125906808 0.468581281389509  C 3.40857553187779 0.468581281389509  0.479380167061943 3.39777664620536  0.479380167061943 6.99650237339565  C 0.479380167061943 10.5952281005859  3.40857553187779 13.5244234654018  7.00730125906808 13.5244234654018  C 7.94950327671596 13.5244234654018  8.85930865304129 13.3273439627511  9.70972021309989 12.9385843924386  C 9.96349381452288 12.8224964617048  10.0741823102679 12.5255273489816  9.95809437953404 12.274453465053  C 9.84200644880022 12.02067986363  9.54503733607701 11.909991367885  9.29396345214844 12.0260792986189  C 8.57313841029576 12.3527453194755  7.80371843784877 12.5201279139927  7.00730125906808 12.5201279139927  C 3.96201796351841 12.5201279139927  1.48367571847098 10.0417856689453  1.48367571847098 6.99650237339565  C 1.48367571847098 3.95121907784598  3.96201796351841 1.47287683279855  7.00730125906808 1.47287683279855  C 10.0525845546177 1.47287683279855  12.5309267996652 3.95121907784598  12.5309267996652 6.99650237339565  C 12.5309267996652 8.43005328892299  11.9828838030134 9.78801205182757  10.9920868390764 10.8220045270647  C 10.8004067714146 11.0217837472098  10.8058062064035 11.3403506155831  11.0055854422433 11.532030683245  C 11.0217837629046 11.5455292864118  11.0406817853655 11.5509287214007  11.0568801060268 11.5644273088728  C 11.0703787091936 11.5833253470285  11.0784778616769 11.607622820173  11.0946761823382 11.6265208583287  L 13.6918060756138 14.4045319492885  C 13.788995968192 14.5098209943499  13.9239819370815 14.5638153913225  14.0589678902762 14.5638153913225  C 14.1831549734933 14.5638153913225  14.304642339216 14.5179201625279  14.4018322317941 14.428829422433  Z " fill-rule="nonzero" fill="#aaaaaa" stroke="none" transform="matrix(1 0 0 1 1391 201 )" />
  </g>
</svg>