<?xml version="1.0" encoding="utf-8"?>
<svg version="1.1" xmlns:xlink="http://www.w3.org/1999/xlink" width="13px" height="10px" xmlns="http://www.w3.org/2000/svg">
  <g transform="matrix(1 0 0 1 -115 -384 )">
    <path d="M 4.11558441685268 4.99668215385493  C 2.75454546595982 4.99668216811131  1.65129870256696 3.89183809021442  1.65129870256696 2.52886529140055  C 1.65129870256696 1.16589249258668  2.75454545200893 0.0610484432025552  4.11558441685268 0.0610484432025552  C 5.47727272600446 0.0610484432025552  6.58051947544643 1.16589250684307  6.58051947544643 2.52886529140055  C 6.58051947544643 3.89183807595803  5.47662336774554 4.99668213959854  4.11558441685268 4.99668215385493  Z M 5.15584415457589 9.9323158645073  C 5.07591312512158 9.74372369887869  5.03607381747474 9.53993901874961  5.03896103515625 9.33443928204836  L 5.03896103515625 9.16390178775091  C 5.03896103515625 7.90577305257756  5.68051947544643 6.80026542541058  6.648051953125 6.14863968407847  C 6.21097795879807 5.93237033580322  5.73171993016021 5.81985650612351  5.24610389229911 5.81950895301095  L 3.19155844029018 5.81950895301095  C 1.43311688058036 5.81950895301095  0.00779220145089278 7.2461844633896  0.00779220145089278 9.00663570654654  L 0.00779220145089278 9.21234239564325  C 0.00779220145089278 9.93231585025091  1.43311688058036 9.93231585025091  3.19155844029018 9.9323158645073  L 5.15584415457589 9.9323158645073  Z M 11.4597402622768 3.78633046304745  C 11.4597402622768 2.65494360173358  10.544805203683 1.73788985515511  9.41428571428571 1.73788984089872  C 8.28506494140625 1.73788984089872  7.36883116629464 2.65494358747719  7.36883116629464 3.78633046304745  C 7.36883116629464 4.9177173386177  8.28506492745536 5.83477107093978  9.41428571428571 5.83477107093978  C 10.5441558454241 5.83477107093978  11.4597402622768 4.91771732436131  11.4597402622768 3.78633046304745  Z M 11.4597402622768 3.78633046304745  C 11.4597402622768 2.65494360173358  10.544805203683 1.73788985515511  9.41428571428571 1.73788984089872  C 8.28506494140625 1.73788984089872  7.36883116629464 2.65494358747719  7.36883116629464 3.78633046304745  C 7.36883116629464 4.9177173386177  8.28506492745536 5.83477107093978  9.41428571428571 5.83477107093978  C 10.5441558454241 5.83477107093978  11.4597402622768 4.91771732436131  11.4597402622768 3.78633046304745  Z M 10.353246749442 6.51824817518248  L 8.648051953125 6.51824817518248  C 7.18831169084821 6.51824817518248  6.00519481026786 7.70272063184307  6.00519481026786 9.16390178775091  L 6.00519481026786 9.33443928204836  C 6.00519481026786 9.93165228672445  7.18831169084821 9.93165228672445  8.648051953125 9.93165228672445  L 10.353246749442 9.93165228672445  C 11.8123376534598 9.93165228672445  12.9948051897321 9.90975447650548  12.9948051897321 9.33443928204836  L 12.9948051897321 9.16390178775091  C 12.9948051897321 7.70272063184307  11.8123376534598 6.51824817518248  10.353246749442 6.51824817518248  Z " fill-rule="nonzero" fill="#7f7f7f" stroke="none" transform="matrix(1 0 0 1 115 384 )" />
  </g>
</svg>