<?xml version="1.0" encoding="utf-8"?>
<svg version="1.1" xmlns:xlink="http://www.w3.org/1999/xlink" width="12px" height="13px" xmlns="http://www.w3.org/2000/svg">
  <g transform="matrix(1 0 0 1 -184 -264 )">
    <path d="M 11.5042788461538 4.59303240740741  C 11.6687019230769 4.41428240740741  11.6648076923077 4.1303587962963  11.4951923076923 3.95702546296296  L 8.15783653846154 0.543622685185185  C 8.075625 0.460115740740741  7.96831730769231 0.421296296296296  7.85019230769231 0.414976851851852  C 7.73509615384615 0.416331018518518  7.62519230769231 0.465081018518518  7.54514423076923 0.550844907407407  L 1.33600961538462 7.18626157407407  C 1.27629807692308 7.24990740740741  1.23605769230769 7.33115740740741  1.22004807692308 7.41827546296296  L 0.382355769230769 12.0824768518519  C 0.355528846153846 12.2318865740741  0.402259615384615 12.3849074074074  0.506971153846154 12.4900810185185  C 0.58875 12.5726851851852  0.696923076923077 12.6173726851852  0.807692307692308 12.6173726851852  C 0.838846153846154 12.6173726851852  0.870865384615384 12.6137615740741  0.902019230769231 12.6065393518519  L 4.85639423076923 11.6866087962963  C 4.93903846153846 11.667650462963  5.01475961538462 11.622962962963  5.07360576923077 11.5593171296296  L 11.5042788461538 4.59303240740741  Z M 4.85076923076923 10.2087615740741  C 5.02471153846154 10.379837962963  5.03293269230769 10.6651157407407  4.86894230769231 10.847025462963  C 4.78370192307692 10.9413657407407  4.66903846153846 10.9887615740741  4.55394230769231 10.9887615740741  C 4.4475 10.9887615740741  4.34105769230769 10.9481365740741  4.25711538461538 10.8664351851852  L 1.79466346153846 8.4487962962963  C 1.62072115384615 8.27771990740741  1.6125 7.99199074074074  1.77649038461538 7.81053240740741  C 1.94048076923077 7.62907407407407  2.21394230769231 7.62049768518518  2.38831730769231 7.79112268518518  L 4.85076923076923 10.2087615740741  Z " fill-rule="nonzero" fill="#aaaaaa" stroke="none" transform="matrix(1 0 0 1 184 264 )" />
  </g>
</svg>