<?xml version="1.0" encoding="utf-8"?>
<svg version="1.1" xmlns:xlink="http://www.w3.org/1999/xlink" width="16px" height="4px" xmlns="http://www.w3.org/2000/svg">
  <g transform="matrix(1 0 0 1 -1375 -1972 )">
    <path d="M 4.2489501171875 1.99832017578125  C 4.2489501171875 3.03309255859375  3.4090374609375 3.87300521484375  2.374265078125 3.87300521484375  C 1.3394926953125 3.87300521484375  0.4995800390625 3.03309255859375  0.4995800390625 1.99832017578125  C 0.4995800390625 0.963547792968749  1.3394926953125 0.12363513671875  2.374265078125 0.12363513671875  C 3.4090374609375 0.12363513671875  4.2489501171875 0.96354779296875  4.2489501171875 1.99832017578125  Z M 9.87300521484375 1.99832017578125  C 9.87300521484375 3.03309255859375  9.03309255859375 3.87300521484375  7.99832017578125 3.87300521484375  C 6.96354779296875 3.87300521484375  6.12363513671875 3.03309255859375  6.12363513671875 1.99832017578125  C 6.12363513671875 0.963547792968749  6.96354779296875 0.12363513671875  7.99832017578125 0.12363513671875  C 9.03309255859375 0.12363513671875  9.87300521484375 0.96354779296875  9.87300521484375 1.99832017578125  Z M 15.5004199609375 1.99832017578125  C 15.5004199609375 3.03309255859375  14.65714765625 3.87300521484375  13.625734921875 3.87300521484375  C 12.5909625390625 3.87300521484375  11.7510498828125 3.03309255859375  11.7510498828125 1.99832017578125  C 11.7510498828125 0.963547792968749  12.5909625390625 0.12363513671875  13.625734921875 0.12363513671875  C 14.6605073046875 0.12363513671875  15.5004199609375 0.96354779296875  15.5004199609375 1.99832017578125  Z " fill-rule="nonzero" fill="#272636" stroke="none" transform="matrix(1 0 0 1 1375 1972 )" />
  </g>
</svg>