<?xml version="1.0" encoding="utf-8"?>
<svg version="1.1" xmlns:xlink="http://www.w3.org/1999/xlink" width="14px" height="14px" xmlns="http://www.w3.org/2000/svg">
  <g transform="matrix(1 0 0 1 -187 -2116 )">
    <path d="M 13.5334464501953 7  C 13.5334464501953 3.39718284179688  10.6028171582031 0.466553549804688  7 0.466553549804688  C 3.39718284179688 0.466553549804688  0.466553549804687 3.39718282714844  0.466553549804687 7  C 0.466553549804687 10.6028171728516  3.39718284179688 13.5334464501953  7 13.5334464501953  C 10.6028171582031 13.5334464501953  13.5334464501953 10.6028171582031  13.5334464501953 7  Z M 7.46876259765625 6.0625  L 7.46876259765625 10.2812625976562  C 7.46876259765625 10.5404767480469  7.25923934570312 10.7500251953125  7 10.7500251953125  C 6.74076065429688 10.7500251953125  6.53123740234375 10.5405019433594  6.53123740234375 10.2812625976562  L 6.53123740234375 6.0625  C 6.53123740234375 5.80328584960937  6.74076065429688 5.59373740234375  7 5.59373740234375  C 7.25921415039062 5.59373740234375  7.46876259765625 5.80326065429688  7.46876259765625 6.0625  Z M 7.70313129882813 3.95313129882812  C 7.70313129882813 4.34078081054688  7.38812828125 4.65626259765625  7 4.65626259765625  C 6.61187171875 4.65626259765625  6.29686870117188 4.34078081054688  6.29686870117188 3.95313129882812  C 6.29686870117188 3.56454945800781  6.61187171875 3.25  7 3.25  C 7.38812828125 3.25  7.70313129882813 3.56452426269531  7.70313129882813 3.95313129882812  Z " fill-rule="nonzero" fill="#ffffff" stroke="none" transform="matrix(1 0 0 1 187 2116 )" />
  </g>
</svg>