<?xml version="1.0" encoding="utf-8"?>
<svg version="1.1" xmlns:xlink="http://www.w3.org/1999/xlink" width="15px" height="16px" xmlns="http://www.w3.org/2000/svg">
  <g transform="matrix(1 0 0 1 -751 -2115 )">
    <path d="M 12.9057075170013 6.6344764167444  C 13.2000027728303 6.6344764167444  13.4549205068005 6.74321647621269  13.6632069462435 6.95749835296176  C 13.8685155458812 7.16202153394606  13.9822044571261 7.44496777491054  13.9771909771697 7.73893429337687  C 13.9771909771697 8.04489897679571  13.8725296288051 8.30289011485541  13.6632069462435 8.52037023379198  C 13.465695780876 8.73224131377861  13.1909956382261 8.84938222839372  12.9057075170013 8.84339218458489  C 12.610376003886 8.84339218458489  12.3585670276069 8.7346521251166  12.1461355873543 8.52037023379198  C 11.9408269877166 8.31584705280767  11.8271380764717 8.0329008118432  11.8321515564281 7.73893429337687  C 11.8321515564281 7.43296960995802  11.9368129047927 7.17497847189832  12.1461355873543 6.95749835296176  C 12.3449363605238 6.7462800228726  12.6199659705985 6.62931862172561  12.9057075170013 6.6344764167444  Z M 11.9316316466969 11.2633916161381  C 12.1378043690523 11.4665942445306  12.2523369362497 11.7489983530966  12.2476881780278 12.0426953999534  C 12.2499913367574 12.3362522989517  12.134527189259 12.6177946704682  11.9285228890058 12.820933098181  C 11.731211078504 13.0330806850591  11.4574520325241 13.1519092404981  11.1720597170499 13.1492854477612  C 10.8746557035298 13.1492854477612  10.6249192276554 13.0405453882929  10.4124877874028 12.8262634969683  C 10.2071791877652 12.621740315984  10.0934902765203 12.3387940750195  10.0985037564767 12.0448275565532  C 10.0985037564767 11.7388628731343  10.2042013479598 11.4819378206623  10.4124877874028 11.2633916161381  C 10.611288558142 11.0521732806899  10.8863181685303 10.935211874132  11.1720597170499 10.9403696653452  C 11.4694637305699 10.9403696653452  11.7202364637306 11.0491097248134  11.9316316466969 11.2633916161381  Z M 12.499497154307 2.0769884998834  C 12.8694387386658 2.45331440939832  13.0538914022021 2.90853015683302  13.0538914022021 3.44050360016325  C 13.0538914022021 3.97567528568097  12.8694387386658 4.43302318971549  12.499497154307 4.80934908465485  C 12.1514901312389 5.17688315576377  11.6717774788893 5.38084613997599  11.1730959743361 5.3733049061334  C 10.653934261658 5.3733049061334  10.2093826202234 5.18460890858209  9.84254977938795 4.80934908465485  C 9.48441467969263 4.45026554149089  9.28641339080264 3.95490251229786  9.29540928999352 3.44050360016325  C 9.29540928999352 2.91066231343284  9.47882571041127 2.45544656599813  9.84254977938795 2.07592241429571  C 10.1905925188752 1.70446235862771  10.6726858646891 1.49796891403555  11.1741322174547 1.50557012301772  C 11.6891489293232 1.50557012301772  12.131628070353 1.69639827716884  12.499497154307 2.0769884998834  Z M 6.9918234820272 12.7164573519123  C 7.28922749554728 12.7164573519123  7.54103647182642 12.8251974113806  7.75243166896049 13.0394793027052  C 7.95735932825892 13.244185226795  8.07066359392918 13.5271079150355  8.06537944260039 13.8209152431203  C 8.06537944260039 14.1268799265392  7.96071809423575 14.3848710645989  7.75243166896049 14.6023511835354  C 7.55338340928114 14.8138429525476  7.27792298046815 14.9308279740213  6.9918234820272 14.9253731343284  C 6.69441946850712 14.9253731343284  6.44468299263277 14.8166330748601  6.23225155238018 14.6023511835354  C 6.02630746600417 14.3982727838165  5.91249877015849 14.1150284258049  5.91826752145401 13.8209152431203  C 5.91826752145401 13.5149505597015  6.02396511293717 13.2580255072295  6.23225155238018 13.0394793027052  C 6.43105232311933 12.8282609672571  6.7060819335076 12.7112995606992  6.9918234820272 12.7164573519123  Z M 8.13480825574806 0.483200326492537  L 8.13584451303433 0.483200326492537  C 8.44879228667422 0.806222277285448  8.60630243078044 1.19640721198694  8.60630243078044 1.65908551480877  C 8.60630243078044 2.1217638176306  8.44879228667422 2.50981659573228  8.13584451303433 2.83390461753731  C 7.83647266745923 3.15039454448474  7.42307690291493 3.32522098126751  6.993895982432 3.31683842992071  C 6.54416308290156 3.31683842992071  6.1669677400421 3.15479441173041  5.85194746599741 2.83390461753731  C 5.54361588632127 2.52631818598864  5.3732373064717 2.10085184191691  5.3814895482513 1.65908551480877  C 5.3814895482513 1.19640721198694  5.54003593547604 0.808354433885261  5.85194746599741 0.483200326492537  C 6.15128356151148 0.167306375251106  6.5641067850897 -0.00743650188840791  6.99285973931347 0.000266514109141791  C 7.44052013843912 0.000266514109141791  7.81978798170337 0.16231053229944  8.13480825574806 0.483200326492537  Z M 2.81158724700453 10.9371714377332  C 3.10899126052461 10.9371714377332  3.36287273720855 11.0448454261894  3.57323167705635 11.2612594595382  C 3.77815934156221 11.4659653811313  3.89146361249071 11.7488880696933  3.88617946486399 12.0426953999534  C 3.88617946486399 12.3486600833722  3.78151811649935 12.6066512214319  3.57323167705635 12.8251974113806  C 3.37400560936083 13.0362972878182  3.09856812095343 13.1528865148079  2.8126235042908 13.1471532911614  C 2.52728011438364 13.1495227455047  2.25361509419451 13.0307350031422  2.05616033233484 12.8188009415812  C 1.85032996508176 12.6156265111358  1.73521085288927 12.3340111287986  1.73803128643135 12.0405632433535  C 1.73803128643135 11.7345985599347  1.84269263479598 11.4776735074627  2.05097907423899 11.2591273029384  C 2.25020514436383 11.048027431858  2.5256426324582 10.931438210279  2.81158724700453 10.9371714377332  Z M 2.81055100388601 2.05779907590952  C 3.17945633095855 2.05779907590952  3.49447661917098 2.19212502915112  3.75975684099741 2.4629091068097  C 4.02296457658679 2.73369318446828  4.15456844438148 3.05991337744869  4.15456844438148 3.43837144356343  C 4.15456844438148 3.8178955806903  4.02296457658679 4.1419836170709  3.75975684099741 4.41489983675373  C 3.49654910540803 4.68675  3.1794563167908 4.82320810984142  2.81055100388601 4.82320810984142  C 2.44268191993199 4.82320810984142  2.12662538860104 4.68888215659981  1.86238140989313 4.41596592234142  C 1.60532474991273 4.16096830742638  1.46239652138023 3.80783506485168  1.46756980650907 3.44050360016325  C 1.46756980650907 3.06204553404851  1.59813741701749 2.73689142665578  1.86238140989313 2.46504126340951  C 2.12766164588731 2.19212502915112  2.44268193409974 2.05779907590952  2.81055100388601 2.05779907590952  Z M 1.84165639167746 6.95856443854944  L 1.84165639167746 6.95749835296176  C 2.04696498610609 7.16202153644635  2.16065389209145 7.44496777708825  2.15564040843588 7.73893429337687  C 2.15564040843588 8.04489897679571  2.04994281695272 8.30289011485541  1.84165639167746 8.52037023379198  C 1.64350673965305 8.73257248687858  1.36804023062594 8.84971969262827  1.08208446203044 8.84339218458489  C 0.784680448510363 8.84339218458489  0.533907715349741 8.7346521251166  0.32251253238342 8.52037023379198  C 0.116515652181266 8.31677009472881  0.00266955203840215 8.03381919312054  0.00852850145725389 7.74000037896455  C 0.00852850145725389 7.43403569554571  0.114226092940415 7.17604455748601  0.32251253238342 6.95856443854944  C 0.521313303122572 6.74734610310133  0.796342913510839 6.6303846965434  1.08208446203044 6.63554248775653  C 1.37948847555052 6.63554248775653  1.63129745182966 6.74428254722481  1.84165639167746 6.95856443854944  Z " fill-rule="nonzero" fill="#ffffff" stroke="none" transform="matrix(1 0 0 1 751 2115 )" />
  </g>
</svg>