<?xml version="1.0" encoding="utf-8"?>
<svg version="1.1" xmlns:xlink="http://www.w3.org/1999/xlink" width="20px" height="16px" xmlns="http://www.w3.org/2000/svg">
  <g transform="matrix(1 0 0 1 -43 -231 )">
    <path d="M 19.4989423 8.0589558  C 19.5059818 8.1645482  19.4778238 8.2578215  19.4162283 8.3352559  L 18.6858807 9.2081532  C 18.6225253 9.2785481  18.5398112 9.322545  18.4377386 9.336624  L 18.4025411 9.336624  C 18.3004684 9.336624  18.2177544 9.3102259  18.1543989 9.2539099  L 9.99914493 2.45551841  L 1.84565081 9.2539099  C 1.75061764 9.3172653  1.65558447 9.3454233  1.56231117 9.336624  C 1.46023851 9.322545  1.37752445 9.2785481  1.314169 9.2081532  L 0.583821484 8.3352559  C 0.520466037 8.2578215  0.494067933 8.1645482  0.501107428 8.0589558  C 0.508146922 7.95336335  0.55214376 7.86712955  0.63133807 7.80553397  L 9.10512917 0.7466812  C 9.35503122 0.54253587  9.65420972 0.4404632  9.99914493 0.4404632  C 10.34584 0.4404632  10.6450185 0.54253587  10.8949206 0.7466812  L 13.7705539 3.15066846  L 13.7705539 0.85227361  C 13.7705539 0.74316145  13.8057514 0.65164803  13.8779062 0.58125309  C 13.9483012 0.51085814  14.0380547 0.47566067  14.1489267 0.47566067  L 16.4103642 0.47566067  C 16.5194764 0.47566067  16.6109898 0.51085814  16.6813848 0.58125309  C 16.7517797 0.65164803  16.7887371 0.74316145  16.7887371 0.85227361  L 16.7887371 5.66024813  L 19.3687117 7.80553397  C 19.447906 7.86712955  19.4901429 7.95336335  19.4989423 8.0589558  Z M 16.7764179 9.0779225  C 16.7834574 9.0937614  16.7887371 9.1166398  16.7887371 9.1483175  L 16.7887371 14.8063109  C 16.7887371 15.0104563  16.7130625 15.1864436  16.5634732 15.3360329  C 16.4156439 15.4838622  16.2378966 15.5595368  16.0337513 15.5595368  L 11.5073566 15.5595368  L 11.5073566 11.033142  L 8.49093331 11.033142  L 8.49093331 15.5595368  L 3.96629843 15.5595368  C 3.7621531 15.5595368  3.58440587 15.4838622  3.43481662 15.3360329  C 3.28522737 15.1864436  3.21131268 15.0104563  3.21131268 14.8063109  L 3.21131268 9.1483175  C 3.21131268 9.141278  3.21307256 9.1289589  3.2165923 9.11312  C 3.22187192 9.0972812  3.2236318 9.084962  3.2236318 9.0779225  L 9.99914493 3.49208392  L 16.7764179 9.0779225  Z " fill-rule="nonzero" fill="#ffffff" stroke="none" transform="matrix(1 0 0 1 43 231 )" />
  </g>
</svg>