<?xml version="1.0" encoding="utf-8"?>
<svg version="1.1" xmlns:xlink="http://www.w3.org/1999/xlink" width="16px" height="20px" xmlns="http://www.w3.org/2000/svg">
  <g transform="matrix(1 0 0 1 -45 -431 )">
    <path d="M 15.9999997 9.25367949  C 15.9999997 8.64260256  15.4486151114757 8.14598718  14.7692304256154 8.14598718  L 13.2307689576346 8.14598718  L 13.2307689576346 6.00752564  C 13.2307689576346 3.12321795  10.8843075064703 0.77675641  7.9999998365 0.77675641  C 5.11569219652966 0.77675641  2.76923071536539 3.12321795  2.76923071536539 6.00752564  L 2.76923071536539 8.14598718  L 1.23076920738462 8.14598718  C 0.551384601524308 8.14598718  0 8.64260256  0 9.25367949  L 0 18.1152179  C 0 18.7269103  0.551384601524308 19.2229103  1.23076920738462 19  L 14.7692304256154 19  C 15.4486151114757 19.2229103  15.9999997 18.7269103  15.9999997 18.1152179  L 15.9999997 9.25367949  Z M 10.1538459216731 12.4536795  C 10.1538459216731 13.3115256  9.6486152321882 14.0456795  8.92307673728847 14.392141  L 8.92307673728847 16.7773718  C 8.92307673728847 16.936141  8.75753828073374 17.064141  8.55323059498589 17.064141  L 7.44615368802693 17.064141  C 7.24184600227908 17.064141  7.07692292571154 16.936141  7.07692292571154 16.7773718  L 7.07692292571154 14.392141  C 6.35076910082462 14.0462949  5.84615372132693 13.3115256  5.84615372132693 12.4536795  C 5.84615372132693 11.264141  6.80984601127008 10.2998333  7.9999998365 10.2998333  C 9.18953827174274 10.2998333  10.1538459216731 11.264141  10.1538459216731 12.4536795  Z M 11.3846151960577 6.00752564  L 11.3846151960577 8.14598718  L 4.61538451694231 8.14598718  L 4.61538451694231 6.00752564  C 4.61538451694231 4.14167949  6.13415371533293 2.62291026  7.9999998365 2.62291026  C 9.86584592766708 2.62291026  11.3846151960577 4.14167949  11.3846151960577 6.00752564  Z " fill-rule="nonzero" fill="#ffffff" stroke="none" transform="matrix(1 0 0 1 45 431 )" />
  </g>
</svg>