<?xml version="1.0" encoding="utf-8"?>
<svg version="1.1" xmlns:xlink="http://www.w3.org/1999/xlink" width="20px" height="16px" xmlns="http://www.w3.org/2000/svg">
  <g transform="matrix(1 0 0 1 -43 -163 )">
    <path d="M 19.7027303391676 15.0918126434315  C 14.8391144989509 9.60663045452294  11.1914026187884 8.26772771549803  8.49904385009694 7.92220442800773  C 6.97916390002921 7.74944278426258  5.76325993997503 7.87901401707145  4.76448168707338 7.79263319519887  C 1.11676980691083 7.49030031864486  0.812793816897292 2.52340306097179  5.15530795994794 2.04830854067263  C 6.76203819287668 1.87554689692748  8.32534328437493 2.60978388284436  8.45561870866644 3.5167825125064  C 8.8030198401105 5.76268388119336  3.20117659557515 5.71949347025707  2.50637433268704 4.46697155310473  C 3.07090117128362 6.19458799055623  5.98038564712756 6.75606333272797  8.36876842580541 6.10820716868366  C 9.84522323444264 5.67630305932078  10.7571512044833 4.72611401872246  10.5400254973307 3.47359210157012  C 9.93207351730365 -0.283973649886901  1.85499721122944 -1.06140104674008  0.378542402592217 3.38721127969754  C -0.489960426017915 6.02182634681108  0.639093251175248 8.61325100298833  3.46172744415817 9.30429757796893  C 4.89475711136489 9.64982086545924  6.3277867785716 9.4338688107778  7.84766672863933 9.64982086545924  C 11.8862048816764 10.1249153857584  15.4904916204085 12.9322920966171  18.1394252476694 15.8260496293484  L 19.7027303391676 15.0918126434315  Z " fill-rule="nonzero" fill="#ffffff" stroke="none" transform="matrix(1 0 0 1 43 163 )" />
  </g>
</svg>