<?xml version="1.0" encoding="utf-8"?>
<svg version="1.1" xmlns:xlink="http://www.w3.org/1999/xlink" width="12px" height="13px" xmlns="http://www.w3.org/2000/svg">
  <g transform="matrix(1 0 0 1 -442 -225 )">
    <path d="M 11.9816091998922 7.67586805114746  C 12.067356330819 4.51975693562825  9.36183908943966 1.88838541666667  5.93839080010776 1.79833333333333  C 5.88114942079741 1.79675346781413  5.82505746228448 1.79991319885254  5.76804597252155 1.80013888448079  L 5.76804597252155 0.478472217814128  C 5.76804597252155 0.116232634480794  5.3551724137931 -0.0984027821858724  5.04988506196121 0.104947916666667  L 0.218160924030173 3.32651041666667  C 0.0921494777061025 3.41053209381094  0.0167052858666976 3.55037293397978  0.0167052858666976 3.699921875  C 0.0167052858666976 3.84947081602022  0.0921494777061025 3.98931165618906  0.218160924030172 4.07333333333333  L 5.05034482758621 7.29467013448079  C 5.3556321794181 7.49824651896159  5.76850575161638 7.28361110229492  5.76850575161638 6.92114583333333  L 5.76850575161638 5.58458333333333  C 8.09655172413793 5.55682291666667  10.0326436826509 7.15225694885254  10.1262068965517 9.21532986551921  C 10.1979310344828 10.7978993143717  9.16413793103448 12.2008159810384  7.63149424838362 12.8487847178141  C 7.60367815193966 12.8605208333333  7.57448275862069 12.8835416666667  7.57701148976293 12.9304861155192  C 7.57908045528017 12.9688541666667  7.61885056573276 12.9801388977051  7.65425286907328 12.9697569488525  C 10.1073563173491 12.2615277821859  11.9133333378233 10.1803993011475  11.9816091998922 7.67586805114746  Z " fill-rule="nonzero" fill="#555555" stroke="none" transform="matrix(1 0 0 1 442 225 )" />
  </g>
</svg>