<?xml version="1.0" encoding="utf-8"?>
<svg version="1.1" xmlns:xlink="http://www.w3.org/1999/xlink" width="20px" height="16px" xmlns="http://www.w3.org/2000/svg">
  <g transform="matrix(1 0 0 1 -43 -382 )">
    <path d="M 17.9543686 9.7548077  C 18.0156181 9.6939103  18.0462428 9.6217949  18.0462428 9.5384615  L 18.0462428 1.53846153  C 18.0462428 1.4551282  18.0156181 1.38301282  17.9543686 1.32211539  C 17.8931192 1.26121796  17.8205869 1.23076923  17.7367719 1.23076923  L 2.2632281 1.23076923  C 2.17941307 1.23076923  2.10688084 1.26121795  2.0456314 1.32211539  C 1.98438196 1.38301283  1.95375723 1.45512821  1.95375723 1.53846153  L 1.95375723 9.5384615  C 1.95375723 9.6217949  1.98438195 9.6939103  2.0456314 9.7548077  C 2.10688085 9.8157051  2.17941308 9.8461538  2.2632281 9.8461538  L 17.7367719 9.8461538  C 17.8205869 9.8461538  17.8931192 9.8157051  17.9543686 9.7548077  Z M 18.8295909 0.45192308  C 19.1326145 0.75320513  19.2841263 1.11538462  19 1.53846153  L 19 12  C 19.2841263 12.4230769  19.1326145 12.7852564  18.8295909 13.0865385  C 18.5265674 13.3878205  18.1622943 13.5384615  17.7367719 13.5384615  L 12.475767 13.5384615  C 12.475767 13.775641  12.5273455 14.0240385  12.6305024 14.2836538  C 12.7336594 14.5432692  12.8368164 14.7708333  12.9399733 14.9663461  C 13.0431303 15.161859  13.0947088 15.301282  13.0947088 15.3846154  C 13.0947088 15.551282  13.0334593 15.6955128  12.9109604 15.8173077  C 12.7884616 15.9391026  12.6433971 16  12.475767 16  L 7.52423299 16  C 7.35660293 16  7.21153846 15.9391026  7.08903958 15.8173077  C 6.9665407 15.6955128  6.90529126 15.551282  6.90529125 15.3846154  C 6.90529125 15.2948718  6.95686973 15.1538461  7.06002668 14.9615385  C 7.16318364 14.7692308  7.2663406 14.5448718  7.36949755 14.2884615  C 7.47265451 14.0320513  7.52423299 13.7820513  7.52423299 13.5384615  L 2.2632281 13.5384615  C 1.83770564 13.5384615  1.47343263 13.3878205  1.17040908 13.0865385  C 0.867385519 12.7852564  0.715873724 12.4230769  1 12  L 1 1.53846153  C 0.715873724 1.11538462  0.867385508 0.75320513  1.17040908 0.45192308  C 1.47343264 0.15064103  1.83770565 0  2.2632281 0  L 17.7367719 0  C 18.1622944 0  18.5265674 0.15064103  18.8295909 0.45192308  Z " fill-rule="nonzero" fill="#ffffff" stroke="none" transform="matrix(1 0 0 1 43 382 )" />
  </g>
</svg>