<?xml version="1.0" encoding="utf-8"?>
<svg version="1.1" xmlns:xlink="http://www.w3.org/1999/xlink" width="16px" height="19px" xmlns="http://www.w3.org/2000/svg">
  <g transform="matrix(1 0 0 1 -44 -331 )">
    <path d="M 3.51413095 16.5412369166667  C 3.74512321 16.2974117111111  3.86061928 16.0031960777778  3.86061928 15.6585900166667  C 3.86061928 15.3139837444444  3.74512317 15.0197681111111  3.51413095 14.7759430111111  C 3.28313873 14.5321179111111  3.0044081 14.4102052555556  2.67793908 14.4102052555556  C 2.35147006 14.4102052555556  2.07273944 14.5321179111111  1.84174723 14.7759430111111  C 1.61075502 15.0197681111111  1.49525888 15.3139837444444  1.49525888 15.6585900166667  C 1.49525888 16.0031961833333  1.61075498 16.2974118166667  1.84174723 16.5412369166667  C 2.07273949 16.7850620166667  2.3514701 16.9069746722222  2.67793908 16.9069746722222  C 3.00440806 16.9069746722222  3.28313868 16.7850621222222  3.51413095 16.5412369166667  Z M 7.06217155 16.5412369166667  C 7.29316374 16.2974117111111  7.4086599 16.0031960777778  7.4086599 15.6585900166667  C 7.4086599 15.3139837444444  7.29316378 15.0197681111111  7.06217155 14.7759430111111  C 6.83117932 14.5321179111111  6.5524487 14.4102052555556  6.2259797 14.4102052555556  C 5.8995107 14.4102052555556  5.62078008 14.5321179111111  5.38978783 14.7759430111111  C 5.15879559 15.0197681111111  5.0432995 15.3139837444444  5.0432995 15.6585900166667  C 5.0432995 16.0031961833333  5.15879563 16.2974118166667  5.38978783 16.5412369166667  C 5.62078003 16.7850620166667  5.89951066 16.9069746722222  6.2259797 16.9069746722222  C 6.55244874 16.9069746722222  6.83117936 16.7850621222222  7.06217155 16.5412369166667  Z M 3.51413095 12.79608295  C 3.74512321 12.55225785  3.86061928 12.2580422166667  3.86061928 11.9134359444444  C 3.86061928 11.5688297777778  3.74512317 11.2746141444444  3.51413095 11.0307890233333  C 3.28313873 10.7869639022222  3.0044081 10.6650513205556  2.67793908 10.6650513205556  C 2.35147006 10.6650513205556  2.07273944 10.7869638811111  1.84174723 11.0307890233333  C 1.61075502 11.2746141444444  1.49525888 11.5688297777778  1.49525888 11.9134359444444  C 1.49525888 12.2580421111111  1.61075498 12.5522577444444  1.84174723 12.79608295  C 2.07273949 13.0399081555556  2.3514701 13.1618206  2.67793908 13.1618206  C 3.00440806 13.1618206  3.28313868 13.03990805  3.51413095 12.79608295  Z M 10.9567005 15.6585900166667  C 10.9567005 15.3139837444444  10.8412044 15.0197681111111  10.6102122 14.7759430111111  C 10.3792199 14.5321179111111  10.1004893 14.4102052555556  9.7740203 14.4102052555556  C 9.44755128 14.4102052555556  9.16882066 14.5321179111111  8.93782843 14.7759430111111  C 8.70683621 15.0197681111111  8.5913401 15.3139837444444  8.5913401 15.6585900166667  C 8.5913401 16.0031961833333  8.70683621 16.2974118166667  8.93782843 16.5412369166667  C 9.16882066 16.7850620166667  9.44755128 16.9069746722222  9.7740203 16.9069746722222  C 10.1004893 16.9069746722222  10.3792199 16.7850621222222  10.6102122 16.5412369166667  C 10.8412044 16.2974117111111  10.9567005 16.0031960777778  10.9567005 15.6585900166667  Z M 7.4086599 11.9134359444444  C 7.4086599 11.5688297777778  7.29316378 11.2746141444444  7.06217155 11.0307890233333  C 6.83117932 10.7869639022222  6.5524487 10.6650513205556  6.2259797 10.6650513205556  C 5.8995107 10.6650513205556  5.62078008 10.7869638811111  5.38978783 11.0307890233333  C 5.15879559 11.2746141444444  5.0432995 11.5688297777778  5.0432995 11.9134359444444  C 5.0432995 12.2580421111111  5.15879563 12.5522577444444  5.38978783 12.79608295  C 5.62078003 13.0399081555556  5.89951066 13.1618206  6.2259797 13.1618206  C 6.55244874 13.1618206  6.83117936 13.03990805  7.06217155 12.79608295  C 7.29316374 12.55225785  7.4086599 12.2580422166667  7.4086599 11.9134359444444  Z M 3.51413095 9.05092898333333  C 3.74512321 8.80710384111111  3.86061928 8.51288818666667  3.86061928 8.16828200944444  C 3.86061928 7.82367583222222  3.74512317 7.52946017777778  3.51413095 7.28563503555556  C 3.28313873 7.04180990388889  3.0044081 6.91989735388889  2.67793908 6.91989735388889  C 2.35147006 6.91989735388889  2.07273944 7.041809925  1.84174723 7.28563503555556  C 1.61075502 7.52946015666667  1.49525888 7.82367581111111  1.49525888 8.16828200944444  C 1.49525888 8.51288820777778  1.61075498 8.80710387277778  1.84174723 9.05092898333333  C 2.07273949 9.29475409388889  2.3514701 9.416666665  2.67793908 9.416666665  C 3.00440806 9.416666665  3.28313868 9.294754115  3.51413095 9.05092898333333  Z M 10.9567005 11.9134359444444  C 10.9567005 11.5688297777778  10.8412044 11.2746141444444  10.6102122 11.0307890233333  C 10.3792199 10.7869639022222  10.1004893 10.6650513205556  9.7740203 10.6650513205556  C 9.44755128 10.6650513205556  9.16882066 10.7869638811111  8.93782843 11.0307890233333  C 8.70683621 11.2746141444444  8.5913401 11.5688297777778  8.5913401 11.9134359444444  C 8.5913401 12.2580421111111  8.70683621 12.5522577444444  8.93782843 12.79608295  C 9.16882066 13.0399081555556  9.44755128 13.1618206  9.7740203 13.1618206  C 10.1004893 13.1618206  10.3792199 13.03990805  10.6102122 12.79608295  C 10.8412044 12.55225785  10.9567005 12.2580422166667  10.9567005 11.9134359444444  Z M 7.06217155 9.05092898333333  C 7.29316374 8.80710384111111  7.4086599 8.51288818666667  7.4086599 8.16828200944444  C 7.4086599 7.82367583222222  7.29316378 7.52946017777778  7.06217155 7.28563503555556  C 6.83117932 7.04180990388889  6.5524487 6.91989735388889  6.2259797 6.91989735388889  C 5.8995107 6.91989735388889  5.62078008 7.041809925  5.38978783 7.28563503555556  C 5.15879559 7.52946015666667  5.0432995 7.82367581111111  5.0432995 8.16828200944444  C 5.0432995 8.51288820777778  5.15879563 8.80710387277778  5.38978783 9.05092898333333  C 5.62078003 9.29475409388889  5.89951066 9.416666665  6.2259797 9.416666665  C 6.55244874 9.416666665  6.83117936 9.294754115  7.06217155 9.05092898333333  Z M 14.1536329 16.5363604611111  C 14.387705 16.28928425  14.5047411 15.9966941722222  14.5047411 15.6585900166667  L 14.5047411 11.9134359444444  C 14.5047411 11.5753317888889  14.3877051 11.2827416055556  14.1536329 11.0356655211111  C 13.9195608 10.788589405  13.6423701 10.6650513205556  13.3220609 10.6650513205556  C 13.0017517 10.6650513205556  12.724561 10.7885893733333  12.4904889 11.0356655211111  C 12.2564168 11.2827417111111  12.1393807 11.5753317888889  12.1393807 11.9134359444444  L 12.1393807 15.6585900166667  C 12.1393807 15.9966941722222  12.2564168 16.28928425  12.4904889 16.5363604611111  C 12.724561 16.7834365666667  13.0017517 16.9069746722222  13.3220609 16.9069746722222  C 13.6423701 16.9069746722222  13.9195608 16.7834365666667  14.1536329 16.5363604611111  Z M 10.6102122 9.05092898333333  C 10.8412044 8.80710384111111  10.9567005 8.51288818666667  10.9567005 8.16828200944444  C 10.9567005 7.82367583222222  10.8412044 7.52946017777778  10.6102122 7.28563503555556  C 10.3792199 7.04180990388889  10.1004893 6.91989735388889  9.7740203 6.91989735388889  C 9.44755128 6.91989735388889  9.16882066 7.041809925  8.93782843 7.28563503555556  C 8.70683621 7.52946015666667  8.5913401 7.82367581111111  8.5913401 8.16828200944444  C 8.5913401 8.51288820777778  8.70683621 8.80710387277778  8.93782843 9.05092898333333  C 9.16882066 9.29475409388889  9.44755128 9.416666665  9.7740203 9.416666665  C 10.1004893 9.416666665  10.3792199 9.294754115  10.6102122 9.05092898333333  Z M 14.329187 5.48620560333333  C 14.4462231 5.36266752944444  14.5047411 5.21637244833333  14.5047411 5.04732036  L 14.5047411 2.55055104888889  C 14.5047411 2.38149896055556  14.4462231 2.23520387944444  14.329187 2.11166581611111  C 14.212151 1.98812774222222  14.0735556 1.92635871055556  13.913401 2  L 2.08659899 2  C 1.92644438 1.92635871055556  1.78784904 1.98812774222222  1.67081298 2.11166581611111  C 1.55377691 2.23520387944444  1.49525888 2.38149896055556  1.49525888 2.55055104888889  L 1.49525888 5.04732036  C 1.49525888 5.21637244833333  1.55377691 5.36266752944444  1.67081298 5.48620560333333  C 1.78784904 5.60974366666667  1.92644438 5.67151269833333  2.08659899 6  L 13.913401 6  C 14.0735556 5.67151269833333  14.212151 5.60974366666667  14.329187 5.48620560333333  Z M 14.1582528 9.05092898333333  C 14.389245 8.80710384111111  14.5047411 8.51288818666667  14.5047411 8.16828200944444  C 14.5047411 7.82367583222222  14.389245 7.52946017777778  14.1582528 7.28563503555556  C 13.9272605 7.04180990388889  13.6485299 6.91989735388889  13.3220609 6.91989735388889  C 12.9955919 6.91989735388889  12.7168613 7.041809925  12.4858691 7.28563503555556  C 12.2548768 7.52946015666667  12.1393807 7.82367581111111  12.1393807 8.16828200944444  C 12.1393807 8.51288820777778  12.2548768 8.80710387277778  12.4858691 9.05092898333333  C 12.7168613 9.29475409388889  12.9955919 9.416666665  13.3220609 9.416666665  C 13.6485299 9.416666665  13.9272606 9.294754115  14.1582528 9.05092898333333  Z M 15.3363131 1.04858825766667  C 15.5703852 1.29566439066667  15.6874213 1.58825454444444  15.6874213 1.92635871055556  L 15.6874213 16.9069746722222  C 15.6874213 17.2450788277778  15.5703853 17.5376689055556  15.3363131 17.7847451166667  C 15.102241 18.0318212222222  14.8250503 18.1553593277778  14.5047411 18  L 1.49525888 18  C 1.17494966 18.1553593277778  0.897758986 18.0318212222222  0.66368687 17.7847451166667  C 0.429614755 17.5376689055556  0.312578681 17.2450788277778  0.312578681 16.9069746722222  L 0.312578681 1.92635871055556  C 0.312578681 1.58825453388889  0.429614744 1.29566438011111  0.66368687 1.04858825766667  C 0.897758997 0.801512135222222  1.17494967 0.677974057111111  1.49525888 1  L 14.5047411 1  C 14.8250503 0.677974057111111  15.102241 0.801512123611111  15.3363131 1.04858825766667  Z " fill-rule="nonzero" fill="#ffffff" stroke="none" transform="matrix(1 0 0 1 44 331 )" />
  </g>
</svg>