<?xml version="1.0" encoding="utf-8"?>
<svg version="1.1" xmlns:xlink="http://www.w3.org/1999/xlink" width="18px" height="18px" xmlns="http://www.w3.org/2000/svg">
  <g transform="matrix(1 0 0 1 -44 -280 )">
    <path d="M 11.0032552 6.99705780000001  C 11.5566406 7.55044321000001  11.8333333 8.21819494000001  11.8333333 9.00031300000001  C 11.8333333 9.78243106000001  11.5566406 10.4501828  11.0032552 11.0035682  C 10.4498698 11.5569536  9.78211805 11.8336463  9 11.8336463  C 8.21788195 11.8336463  7.55013022 11.5569536  6.9967448 11.0035682  C 6.44335938 10.4501828  6.16666667 9.78243104000001  6.16666667 9.00031300000001  C 6.16666667 8.21819496000001  6.44335938 7.55044323000001  6.9967448 6.99705780000001  C 7.55013022 6.44367237000001  8.21788195 6.16697967000001  9 6.16697967000001  C 9.78211805 6.16697967000001  10.4498698 6.44367240000001  11.0032552 6.99705780000001  Z M 12.0048828 12.0051958  C 12.8349609 11.1751177  13.25 10.1734901  13.25 9.00031300000001  C 13.25 7.82713592000001  12.8349609 6.82550831000001  12.0048828 5.99543019000001  C 11.1748047 5.16535207000001  10.1731771 4.75031301000001  9 4.75031301000001  C 7.82682292 4.75031301000001  6.82519531 5.16535207000001  5.99511719 5.99543019000001  C 5.16503907 6.82550831000001  4.75000001 7.82713592000001  4.75000001 9.00031300000001  C 4.75000001 10.1734901  5.16503907 11.1751177  5.99511719 12.0051958  C 6.82519531 12.8352739  7.82682292 13.250313  9 13.250313  C 10.1731771 13.250313  11.1748047 12.8352739  12.0048828 12.0051958  Z M 14.6666667 9.00031300000001  C 14.6666667 10.5645491  14.1132813 11.9000526  13.0065104 13.0068234  C 11.8997396 14.1135943  10.5642361 14.6669797  9 14.6669797  C 7.43576389 14.6669797  6.10026042 14.1135943  4.99348958 13.0068234  C 3.88671875 11.9000526  3.33333333 10.5645491  3.33333333 9.00031300000001  C 3.33333333 7.43607689  3.88671875 6.10057342000001  4.99348958 4.99380258000001  C 6.10026042 3.88703175000001  7.43576389 3.33364633000001  9 3.33364633000001  C 10.5642361 3.33364633000001  11.8997396 3.88703175000001  13.0065104 4.99380258000001  C 14.1132813 6.10057342000001  14.6666667 7.43607689  14.6666667 9.00031300000001  Z M 15.5188802 11.7506385  C 15.8951823 10.8762896  16.0833333 9.95951438000001  16.0833333 9.00031300000001  C 16.0833333 8.04111162000001  15.8951823 7.12433644000001  15.5188802 6.24998748000001  C 15.1425781 5.37563852000001  14.6389974 4.62303435000001  14.008138 3.99217497000001  C 13.3772787 3.36131560000001  12.6246745 2.85773487000001  11.7503255 2.48143279000001  C 10.8759766 2.10513070000001  9.95920138 1.91697966000001  9 1.91697966000001  C 8.04079862 1.91697966000001  7.12402344 2.10513070000001  6.24967448 2.48143279000001  C 5.37532552 2.85773487000001  4.62272135 3.36131560000001  3.99186197 3.99217497000001  C 3.3610026 4.62303435000001  2.85742187 5.37563852000001  2.48111979 6.24998748000001  C 2.1048177 7.12433644000001  1.91666666 8.04111162000001  1.91666666 9.00031300000001  C 1.91666666 9.95951438000001  2.1048177 10.8762896  2.48111979 11.7506385  C 2.85742187 12.6249875  3.3610026 13.3775917  3.99186197 14.008451  C 4.62272135 14.6393104  5.37532552 15.1428911  6.24967448 15.5191932  C 7.12402344 15.8954953  8.04079862 16.0836463  9 16.0836463  C 9.95920138 16.0836463  10.8759766 15.8954953  11.7503255 15.5191932  C 12.6246745 15.1428911  13.3772787 14.6393104  14.008138 14.008451  C 14.6389974 13.3775917  15.1425781 12.6249875  15.5188802 11.7506385  Z M 17.5 9.00031300000001  C 17.5 10.5424137  17.1200087 11.9646142  16.360026 13.2669146  C 15.6000434 14.5692149  14.5689019 15.6003564  13.2666016 16.360339  C 11.9643012 17.1203217  10.5421007 17.500313  9 17.500313  C 7.45789931 17.500313  6.03569879 17.1203217  4.73339844 16.360339  C 3.4310981 15.6003564  2.3999566 14.5692149  1.63997396 13.2669146  C 0.87999132 11.9646142  0.5 10.5424137  0.5 9.00031300000001  C 0.5 7.45821231000001  0.87999132 6.03601179000001  1.63997396 4.73371144000001  C 2.3999566 3.43141110000001  3.4310981 2.40026960000001  4.73339844 1.64028696000001  C 6.03569879 0.880304320000006  7.45789931 0.500313000000006  9 0.500313000000006  C 10.5421007 0.500313000000006  11.9643012 0.880304320000006  13.2666016 1.64028696000001  C 14.5689019 2.40026960000001  15.6000434 3.43141110000001  16.360026 4.73371144000001  C 17.1200087 6.03601179000001  17.5 7.45821231000001  17.5 9.00031300000001  Z " fill-rule="nonzero" fill="#ffffff" stroke="none" transform="matrix(1 0 0 1 44 280 )" />
  </g>
</svg>