<?xml version="1.0" encoding="utf-8"?>
<svg version="1.1" xmlns:xlink="http://www.w3.org/1999/xlink" width="18px" height="18px" xmlns="http://www.w3.org/2000/svg">
  <g transform="matrix(1 0 0 1 -44 -789 )">
    <path d="M 11.1210937 11.1210937  C 11.7070312 10.5351563  12 9.828125  12 9  C 12 8.17187499  11.7070312 7.46484375  11.1210937 6.87890626  C 10.5351562 6.29296877  9.828125 6.00000001  9 6.00000001  C 8.17187501 6.00000001  7.46484376 6.29296874  6.87890626 6.87890626  C 6.29296876 7.46484377  6.00000001 8.17187502  6.00000001 9  C 6.00000001 9.828125  6.29296876 10.5351562  6.87890626 11.1210937  C 7.46484376 11.7070313  8.17187501 12  9 12  C 9.828125 12  10.5351562 11.7070312  11.1210937 11.1210937  Z M 17.90625 7.44726562  C 17.96875 7.52929687  18 7.62109375  18 7.72265626  L 18 10.3242188  C 18 10.4179688  17.96875 10.5078125  17.90625 10.59375  C 17.84375 10.6796875  17.765625 10.7304687  17.671875 10.7460937  L 15.5039062 11.0742187  C 15.3554687 11.4960937  15.203125 11.8515625  15.046875 12.140625  C 15.3203125 12.53125  15.7382812 13.0703125  16.3007812 13.7578125  C 16.3789063 13.8515625  16.4179688 13.9492187  16.4179688 14.0507812  C 16.4179688 14.1523437  16.3828125 14.2421875  16.3125 14.3203125  C 16.1015625 14.609375  15.7148438 15.03125  15.1523437 15.5859375  C 14.5898437 16.140625  14.2226562 16.4179688  14.0507812 16.4179688  C 13.9570312 16.4179688  13.8554687 16.3828125  13.7460937 16.3125  L 12.1289063 15.046875  C 11.7851563 15.2265625  11.4296875 15.375  11.0625 15.4921875  C 10.9375 16.5546875  10.8242188 17.28125  10.7226562 17.671875  C 10.6679687 17.890625  10.5273437 18  10.3007812 18  L 7.69921876 18  C 7.58984376 18  7.49414063 17.9667969  7.41210938 17.9003906  C 7.33007813 17.8339844  7.28515626 17.75  7.27734375 17.6484375  L 6.94921875 15.4921875  C 6.56640625 15.3671875  6.21484375 15.2226563  5.89453126 15.0585937  L 4.2421875 16.3125  C 4.1640625 16.3828125  4.06640625 16.4179688  3.94921876 16.4179688  C 3.83984376 16.4179688  3.7421875 16.375  3.65624999 16.2890625  C 2.67187499 15.3984375  2.02734375 14.7421875  1.72265625 14.3203125  C 1.66796875 14.2421875  1.640625 14.1523437  1.640625 14.0507812  C 1.640625 13.9570312  1.671875 13.8671875  1.73437501 13.78125  C 1.85156251 13.6171875  2.05078126 13.3574219  2.33203126 13.0019531  C 2.61328125 12.6464844  2.82421875 12.3710937  2.96484376 12.1757813  C 2.75390626 11.7851562  2.59375001 11.3984375  2.484375 11.015625  L 0.33984376 10.6992188  C 0.23828126 10.6835938  0.15625001 10.6347656  0.0937500099999999 10.5527344  C 0.03125 10.4707031  0 10.3789063  0 10.2773437  L 0 7.67578124  C 0 7.58203124  0.03125 7.49218749  0.0937500099999999 7.40624999  C 0.15625001 7.3203125  0.23046877 7.26953125  0.31640626 7.25390625  L 2.49609376 6.92578125  C 2.60546876 6.56640626  2.7578125 6.20703125  2.953125 5.84765625  C 2.640625 5.40234374  2.22265625 4.86328124  1.69921875 4.23046874  C 1.62109375 4.13671874  1.58203125 4.04296875  1.58203125 3.94921876  C 1.58203125 3.87109375  1.6171875 3.78125  1.68749999 3.67968751  C 1.890625 3.3984375  2.27539063 2.97851563  2.84179688 2.41992187  C 3.40820314 1.86132812  3.77734377 1.58203125  3.94921876 1.58203125  C 4.05078125 1.58203125  4.15234375 1.62109375  4.25390626 1.69921875  L 5.87109374 2.953125  C 6.21484374 2.7734375  6.57031249 2.625  6.93749999 2.50781249  C 7.06249999 1.44531249  7.17578124 0.71874999  7.27734375 0.328125  C 7.33203125 0.109375  7.47265625 0  7.69921876 0  L 10.3007812 0  C 10.4101562 0  10.5058594 0.03320313  10.5878906 0.09960938  C 10.6699219 0.16601563  10.7148437 0.25  10.7226562 0.3515625  L 11.0507812 2.50781249  C 11.4335937 2.63281249  11.7851562 2.77734375  12.1054687 2.94140626  L 13.7695313 1.68749999  C 13.8398438 1.6171875  13.9335938 1.58203125  14.0507812 1.58203125  C 14.1523437 1.58203125  14.25 1.62109375  14.34375 1.69921875  C 15.3515625 2.62890625  15.9960938 3.29296875  16.2773438 3.69140625  C 16.3320313 3.75390625  16.359375 3.83984376  16.359375 3.94921876  C 16.359375 4.04296876  16.328125 4.13281251  16.265625 4.21875  C 16.1484375 4.3828125  15.9492187 4.64257813  15.6679687 4.99804688  C 15.3867188 5.35351563  15.1757813 5.62890625  15.0351562 5.82421875  C 15.2382812 6.21484375  15.3984375 6.59765625  15.515625 6.97265625  L 17.6601562 7.30078125  C 17.7617187 7.31640625  17.84375 7.36523437  17.90625 7.44726562  Z " fill-rule="nonzero" fill="#ffffff" stroke="none" transform="matrix(1 0 0 1 44 789 )" />
  </g>
</svg>