<?xml version="1.0" encoding="utf-8"?>
<svg version="1.1" xmlns:xlink="http://www.w3.org/1999/xlink" width="10px" height="8px" xmlns="http://www.w3.org/2000/svg">
  <g transform="matrix(1 0 0 1 -538 -4274 )">
    <path d="M 3.70096217427147 7.50658658206778  C 3.67527580665391 7.53511418340434  3.64761775398622 7.56039664330712  3.61755004381997 7.58111335253555  C 3.44927155584098 7.73263198368016  3.1960486614735 7.72725511056855  3.00224332711657 7.58141390869972  C 2.97138134843433 7.5581898417358  2.94202608399719 7.53140387143844  2.91476047790402 7.50112234808697  L 0.78811790406349 5.13924649101111  C 0.589631263838378 4.9188047443507  0.586951095344787 4.6075923272703  0.782026612032602 4.43194554310109  C 0.977102128720418 4.25629875893189  1.28632953772344 4.29149480088928  1.48481617794855 4.51193654754969  L 3.31032583400751 6.53936042481395  L 8.53113863495048 0.74106039050622  C 8.72457925066022 0.526222821822721  9.02984192611545 0.495430062561475  9.22491744280326 0.671076846730678  C 9.41999295949108 0.846723630899881  9.42127752454528 1.15353276528415  9.22783690883554 1.36837033396765  L 3.70096217427147 7.50658658206778  Z " fill-rule="nonzero" fill="#ffffff" stroke="none" transform="matrix(1 0 0 1 538 4274 )" />
  </g>
</svg>