<?xml version="1.0" encoding="utf-8"?>
<svg version="1.1" xmlns:xlink="http://www.w3.org/1999/xlink" width="10px" height="8px" xmlns="http://www.w3.org/2000/svg">
  <g transform="matrix(1 0 0 1 -755 -4274 )">
    <path d="M 3.70096217427144 7.50658658206776  C 3.67527580665387 7.53511418340432  3.6476177539862 7.5603966433071  3.61755004381996 7.58111335253555  C 3.44927155584099 7.73263198368016  3.19604866147353 7.72725511056854  3.00224332711659 7.58141390869971  C 2.97138134843433 7.5581898417358  2.94202608399721 7.53140387143844  2.91476047790403 7.50112234808695  L 0.788117904063512 5.13924649101109  C 0.589631263838385 4.91880474435067  0.586951095344801 4.60759232727027  0.78202661203261 4.43194554310108  C 0.977102128720446 4.25629875893189  1.28632953772345 4.29149480088928  1.48481617794857 4.51193654754969  L 3.31032583400747 6.53936042481392  L 8.53113863495045 0.741060390506199  C 8.72457925066018 0.526222821822699  9.02984192611541 0.495430062561454  9.22491744280325 0.671076846730656  C 9.41999295949105 0.846723630899859  9.42127752454525 1.15353276528413  9.22783690883551 1.36837033396763  L 3.70096217427144 7.50658658206776  Z " fill-rule="nonzero" fill="#cccccc" stroke="none" transform="matrix(1 0 0 1 755 4274 )" />
  </g>
</svg>