<?xml version="1.0" encoding="utf-8"?>
<svg version="1.1" xmlns:xlink="http://www.w3.org/1999/xlink" width="14px" height="14px" xmlns="http://www.w3.org/2000/svg">
  <g transform="matrix(1 0 0 1 -467 -4631 )">
    <path d="M 7 0  C 3.1340067514 0  0 3.13400675139999  0 7  C 0 10.8659932486  3.1340067514 14  7 14  C 10.8659932486 14  14 10.8659932486  14 7  C 14 3.13400675139999  10.8659932486 0  7 0  Z M 7 9  C 5.8954305004 9  5 8.10456949959999  5 7  C 5 5.89543050040001  5.8954305004 5  7 5  C 8.1045694996 5  9 5.89543050040001  9 7  C 9 8.10456949959999  8.1045694996 9  7 9  Z " fill-rule="nonzero" fill="#4184e7" stroke="none" transform="matrix(1 0 0 1 467 4631 )" />
  </g>
</svg>