<?xml version="1.0" encoding="utf-8"?>
<svg version="1.1" xmlns:xlink="http://www.w3.org/1999/xlink" width="224px" height="313px" xmlns="http://www.w3.org/2000/svg">
  <defs>
    <mask fill="white" id="clip199">
      <path d="M 0 285  L 0 4  C 0 1.75999999999999  1.75999999999999 0  4 0  L 196 0  C 198.24 0  200 1.75999999999999  200 4  L 200 285  C 200 287.24  198.24 289  196 289  L 4 289  C 1.75999999999999 289  0 287.24  0 285  Z " fill-rule="evenodd" />
    </mask>
    <filter x="2934px" y="3619px" width="224px" height="313px" filterUnits="userSpaceOnUse" id="filter200">
      <feOffset dx="0" dy="2" in="SourceAlpha" result="shadowOffsetInner" />
      <feGaussianBlur stdDeviation="6" in="shadowOffsetInner" result="shadowGaussian" />
      <feComposite in2="shadowGaussian" operator="atop" in="SourceAlpha" result="shadowComposite" />
      <feColorMatrix type="matrix" values="0 0 0 0 0  0 0 0 0 0  0 0 0 0 0  0 0 0 0.0588235294117647 0  " in="shadowComposite" />
    </filter>
    <g id="widget201">
      <path d="M 0 285  L 0 4  C 0 1.75999999999999  1.75999999999999 0  4 0  L 196 0  C 198.24 0  200 1.75999999999999  200 4  L 200 285  C 200 287.24  198.24 289  196 289  L 4 289  C 1.75999999999999 289  0 287.24  0 285  Z " fill-rule="nonzero" fill="#ffffff" stroke="none" transform="matrix(1 0 0 1 2946 3629 )" />
      <path d="M 0 285  L 0 4  C 0 1.75999999999999  1.75999999999999 0  4 0  L 196 0  C 198.24 0  200 1.75999999999999  200 4  L 200 285  C 200 287.24  198.24 289  196 289  L 4 289  C 1.75999999999999 289  0 287.24  0 285  Z " stroke-width="2" stroke="#e6e9eb" fill="none" transform="matrix(1 0 0 1 2946 3629 )" mask="url(#clip199)" />
    </g>
  </defs>
  <g transform="matrix(1 0 0 1 -2934 -3619 )">
    <use xlink:href="#widget201" filter="url(#filter200)" />
    <use xlink:href="#widget201" />
  </g>
</svg>