<?xml version="1.0" encoding="utf-8"?>
<svg version="1.1" xmlns:xlink="http://www.w3.org/1999/xlink" width="585px" height="406px" xmlns="http://www.w3.org/2000/svg">
  <defs>
    <mask fill="white" id="clip217">
      <path d="M 0 378  L 0 4  C 0 1.75999999999999  1.75999999999999 0  4 0  L 557 0  C 559.24 0  561 1.75999999999999  561 4  L 561 378  C 561 380.24  559.24 382  557 382  L 4 382  C 1.75999999999999 382  0 380.24  0 378  Z " fill-rule="evenodd" />
    </mask>
    <filter x="3408px" y="3534px" width="585px" height="406px" filterUnits="userSpaceOnUse" id="filter218">
      <feOffset dx="0" dy="2" in="SourceAlpha" result="shadowOffsetInner" />
      <feGaussianBlur stdDeviation="6" in="shadowOffsetInner" result="shadowGaussian" />
      <feComposite in2="shadowGaussian" operator="atop" in="SourceAlpha" result="shadowComposite" />
      <feColorMatrix type="matrix" values="0 0 0 0 0  0 0 0 0 0  0 0 0 0 0  0 0 0 0.0588235294117647 0  " in="shadowComposite" />
    </filter>
    <g id="widget219">
      <path d="M 0 378  L 0 4  C 0 1.75999999999999  1.75999999999999 0  4 0  L 557 0  C 559.24 0  561 1.75999999999999  561 4  L 561 378  C 561 380.24  559.24 382  557 382  L 4 382  C 1.75999999999999 382  0 380.24  0 378  Z " fill-rule="nonzero" fill="#ffffff" stroke="none" transform="matrix(1 0 0 1 3420 3544 )" />
      <path d="M 0 378  L 0 4  C 0 1.75999999999999  1.75999999999999 0  4 0  L 557 0  C 559.24 0  561 1.75999999999999  561 4  L 561 378  C 561 380.24  559.24 382  557 382  L 4 382  C 1.75999999999999 382  0 380.24  0 378  Z " stroke-width="2" stroke="#e6e9eb" fill="none" transform="matrix(1 0 0 1 3420 3544 )" mask="url(#clip217)" />
    </g>
  </defs>
  <g transform="matrix(1 0 0 1 -3408 -3534 )">
    <use xlink:href="#widget219" filter="url(#filter218)" />
    <use xlink:href="#widget219" />
  </g>
</svg>