<?xml version="1.0" encoding="utf-8"?>
<svg version="1.1" xmlns:xlink="http://www.w3.org/1999/xlink" width="304px" height="314px" xmlns="http://www.w3.org/2000/svg">
  <defs>
    <mask fill="white" id="clip193">
      <path d="M 0 286  L 0 4  C 0 1.75999999999999  1.76 0  4 0  L 276 0  C 278.24 0  280 1.75999999999999  280 4  L 280 286  C 280 288.24  278.24 290  276 290  L 4 290  C 1.76 290  0 288.24  0 286  Z " fill-rule="evenodd" />
    </mask>
    <filter x="2348px" y="1208px" width="304px" height="314px" filterUnits="userSpaceOnUse" id="filter194">
      <feOffset dx="0" dy="2" in="SourceAlpha" result="shadowOffsetInner" />
      <feGaussianBlur stdDeviation="6" in="shadowOffsetInner" result="shadowGaussian" />
      <feComposite in2="shadowGaussian" operator="atop" in="SourceAlpha" result="shadowComposite" />
      <feColorMatrix type="matrix" values="0 0 0 0 0  0 0 0 0 0  0 0 0 0 0  0 0 0 0.0588235294117647 0  " in="shadowComposite" />
    </filter>
    <g id="widget195">
      <path d="M 0 286  L 0 4  C 0 1.75999999999999  1.76 0  4 0  L 276 0  C 278.24 0  280 1.75999999999999  280 4  L 280 286  C 280 288.24  278.24 290  276 290  L 4 290  C 1.76 290  0 288.24  0 286  Z " fill-rule="nonzero" fill="#ffffff" stroke="none" transform="matrix(1 0 0 1 2360 1218 )" />
      <path d="M 0 286  L 0 4  C 0 1.75999999999999  1.76 0  4 0  L 276 0  C 278.24 0  280 1.75999999999999  280 4  L 280 286  C 280 288.24  278.24 290  276 290  L 4 290  C 1.76 290  0 288.24  0 286  Z " stroke-width="2" stroke="#e6e9eb" fill="none" transform="matrix(1 0 0 1 2360 1218 )" mask="url(#clip193)" />
    </g>
  </defs>
  <g transform="matrix(1 0 0 1 -2348 -1208 )">
    <use xlink:href="#widget195" filter="url(#filter194)" />
    <use xlink:href="#widget195" />
  </g>
</svg>