<?xml version="1.0" encoding="utf-8"?>
<svg version="1.1" xmlns:xlink="http://www.w3.org/1999/xlink" width="585px" height="314px" xmlns="http://www.w3.org/2000/svg">
  <defs>
    <mask fill="white" id="clip202">
      <path d="M 0 286  L 0 4  C 0 1.75999999999999  1.75999999999999 0  4 0  L 557 0  C 559.24 0  561 1.75999999999999  561 4  L 561 286  C 561 288.24  559.24 290  557 290  L 4 290  C 1.75999999999999 290  0 288.24  0 286  Z " fill-rule="evenodd" />
    </mask>
    <filter x="2747px" y="1588px" width="585px" height="314px" filterUnits="userSpaceOnUse" id="filter203">
      <feOffset dx="0" dy="2" in="SourceAlpha" result="shadowOffsetInner" />
      <feGaussianBlur stdDeviation="6" in="shadowOffsetInner" result="shadowGaussian" />
      <feComposite in2="shadowGaussian" operator="atop" in="SourceAlpha" result="shadowComposite" />
      <feColorMatrix type="matrix" values="0 0 0 0 0  0 0 0 0 0  0 0 0 0 0  0 0 0 0.0588235294117647 0  " in="shadowComposite" />
    </filter>
    <g id="widget204">
      <path d="M 0 286  L 0 4  C 0 1.75999999999999  1.75999999999999 0  4 0  L 557 0  C 559.24 0  561 1.75999999999999  561 4  L 561 286  C 561 288.24  559.24 290  557 290  L 4 290  C 1.75999999999999 290  0 288.24  0 286  Z " fill-rule="nonzero" fill="#ffffff" stroke="none" transform="matrix(1 0 0 1 2759 1598 )" />
      <path d="M 0 286  L 0 4  C 0 1.75999999999999  1.75999999999999 0  4 0  L 557 0  C 559.24 0  561 1.75999999999999  561 4  L 561 286  C 561 288.24  559.24 290  557 290  L 4 290  C 1.75999999999999 290  0 288.24  0 286  Z " stroke-width="2" stroke="#e6e9eb" fill="none" transform="matrix(1 0 0 1 2759 1598 )" mask="url(#clip202)" />
    </g>
  </defs>
  <g transform="matrix(1 0 0 1 -2747 -1588 )">
    <use xlink:href="#widget204" filter="url(#filter203)" />
    <use xlink:href="#widget204" />
  </g>
</svg>