<?xml version="1.0" encoding="utf-8"?>
<svg version="1.1" xmlns:xlink="http://www.w3.org/1999/xlink" width="153px" height="314px" xmlns="http://www.w3.org/2000/svg">
  <defs>
    <mask fill="white" id="clip214">
      <path d="M 0 285.5  L 0 4.5  C 0 2.25999999999999  1.75999999999999 0.5  4 0.5  L 125 0.5  C 127.24 0.5  129 2.25999999999999  129 4.5  L 129 285.5  C 129 287.74  127.24 289.5  125 289.5  L 4 289.5  C 1.75999999999999 289.5  0 287.74  0 285.5  Z " fill-rule="evenodd" />
    </mask>
    <filter x="2628px" y="3099px" width="153px" height="314px" filterUnits="userSpaceOnUse" id="filter215">
      <feOffset dx="0" dy="2" in="SourceAlpha" result="shadowOffsetInner" />
      <feGaussianBlur stdDeviation="6" in="shadowOffsetInner" result="shadowGaussian" />
      <feComposite in2="shadowGaussian" operator="atop" in="SourceAlpha" result="shadowComposite" />
      <feColorMatrix type="matrix" values="0 0 0 0 0  0 0 0 0 0  0 0 0 0 0  0 0 0 0.0588235294117647 0  " in="shadowComposite" />
    </filter>
    <g id="widget216">
      <path d="M 0 285.5  L 0 4.5  C 0 2.25999999999999  1.75999999999999 0.5  4 0.5  L 125 0.5  C 127.24 0.5  129 2.25999999999999  129 4.5  L 129 285.5  C 129 287.74  127.24 289.5  125 289.5  L 4 289.5  C 1.75999999999999 289.5  0 287.74  0 285.5  Z " fill-rule="nonzero" fill="#ffffff" stroke="none" transform="matrix(1 0 0 1 2640 3109 )" />
      <path d="M 0 285.5  L 0 4.5  C 0 2.25999999999999  1.75999999999999 0.5  4 0.5  L 125 0.5  C 127.24 0.5  129 2.25999999999999  129 4.5  L 129 285.5  C 129 287.74  127.24 289.5  125 289.5  L 4 289.5  C 1.75999999999999 289.5  0 287.74  0 285.5  Z " stroke-width="2" stroke="#e6e9eb" fill="none" transform="matrix(1 0 0 1 2640 3109 )" mask="url(#clip214)" />
    </g>
  </defs>
  <g transform="matrix(1 0 0 1 -2628 -3099 )">
    <use xlink:href="#widget216" filter="url(#filter215)" />
    <use xlink:href="#widget216" />
  </g>
</svg>