<?xml version="1.0" encoding="utf-8"?>
<svg version="1.1" xmlns:xlink="http://www.w3.org/1999/xlink" width="224px" height="314px" xmlns="http://www.w3.org/2000/svg">
  <defs>
    <mask fill="white" id="clip211">
      <path d="M 0 285.5  L 0 4.5  C 0 2.25999999999999  1.76 0.5  4 0.5  L 196 0.5  C 198.24 0.5  200 2.25999999999999  200 4.5  L 200 285.5  C 200 287.74  198.24 289.5  196 289.5  L 4 289.5  C 1.76 289.5  0 287.74  0 285.5  Z " fill-rule="evenodd" />
    </mask>
    <filter x="2348px" y="3099px" width="224px" height="314px" filterUnits="userSpaceOnUse" id="filter212">
      <feOffset dx="0" dy="2" in="SourceAlpha" result="shadowOffsetInner" />
      <feGaussianBlur stdDeviation="6" in="shadowOffsetInner" result="shadowGaussian" />
      <feComposite in2="shadowGaussian" operator="atop" in="SourceAlpha" result="shadowComposite" />
      <feColorMatrix type="matrix" values="0 0 0 0 0  0 0 0 0 0  0 0 0 0 0  0 0 0 0.0588235294117647 0  " in="shadowComposite" />
    </filter>
    <g id="widget213">
      <path d="M 0 285.5  L 0 4.5  C 0 2.25999999999999  1.76 0.5  4 0.5  L 196 0.5  C 198.24 0.5  200 2.25999999999999  200 4.5  L 200 285.5  C 200 287.74  198.24 289.5  196 289.5  L 4 289.5  C 1.76 289.5  0 287.74  0 285.5  Z " fill-rule="nonzero" fill="#ffffff" stroke="none" transform="matrix(1 0 0 1 2360 3109 )" />
      <path d="M 0 285.5  L 0 4.5  C 0 2.25999999999999  1.76 0.5  4 0.5  L 196 0.5  C 198.24 0.5  200 2.25999999999999  200 4.5  L 200 285.5  C 200 287.74  198.24 289.5  196 289.5  L 4 289.5  C 1.76 289.5  0 287.74  0 285.5  Z " stroke-width="2" stroke="#e6e9eb" fill="none" transform="matrix(1 0 0 1 2360 3109 )" mask="url(#clip211)" />
    </g>
  </defs>
  <g transform="matrix(1 0 0 1 -2348 -3099 )">
    <use xlink:href="#widget213" filter="url(#filter212)" />
    <use xlink:href="#widget213" />
  </g>
</svg>