<?xml version="1.0" encoding="utf-8"?>
<svg version="1.1" xmlns:xlink="http://www.w3.org/1999/xlink" width="8px" height="1px" xmlns="http://www.w3.org/2000/svg">
  <g transform="matrix(1 0 0 1 -874 -4277 )">
    <path d="M 8 0.04  C 8 0.017875  7.857 0  7.68 0  C 7.68 0  0.32 0  0.32 0  C 0.143 0  0 0.017875  0 0.04  C 0 0.04  0 0.96  0 0.96  C 0 0.982125  0.143 1  0.32 1  C 0.32 1  7.68 1  7.68 1  C 7.857 1  8 0.982125  8 0.96  C 8 0.96  8 0.04  8 0.04  Z " fill-rule="nonzero" fill="#ffffff" stroke="none" transform="matrix(1 0 0 1 874 4277 )" />
  </g>
</svg>