<?xml version="1.0" encoding="utf-8"?>
<svg version="1.1" xmlns:xlink="http://www.w3.org/1999/xlink" width="8px" height="9px" xmlns="http://www.w3.org/2000/svg">
  <g transform="matrix(1 0 0 1 -3052 -3654 )">
    <path d="M 1.25664062499993 8.19240451388919  C 1.25664062499993 8.19240451388919  4.24843749999991 4.37092013888912  4.24843749999991 4.37092013888912  C 4.35507812499998 4.2338107638891  4.35507812499998 4.04396701388919  4.24843749999991 3.90802951388912  C 4.24843749999991 3.90802951388912  1.25664062499993 0.0853732638890961  1.25664062499993 0.0853732638890961  C 1.22148437499993 0.0396701388891643  1.16640624999991 0.0138888888891415  1.10898437499998 0.0138888888891415  C 1.10898437499998 0.0138888888891415  0.203125 0.0138888888891415  0.203125 0.0138888888891415  C 0.124609374999977 0.0138888888891415  0.0812499999999545 0.104123263889164  0.129296874999909 0.165060763889187  C 0.129296874999909 0.165060763889187  3.23945312499995 4.13888888888914  3.23945312499995 4.13888888888914  C 3.23945312499995 4.13888888888914  0.129296874999909 8.1127170138891  0.129296874999909 8.1127170138891  C 0.0812499999999545 8.17365451388912  0.124609374999977 8.26388888888914  0.203125 8.26388888888914  C 0.203125 8.26388888888914  1.10898437499998 8.26388888888914  1.10898437499998 8.26388888888914  C 1.16640624999991 8.26388888888914  1.22148437499993 8.23693576388916  1.25664062499993 8.19240451388919  Z M 4.81914062499993 8.19240451388919  C 4.81914062499993 8.19240451388919  7.81093749999991 4.37092013888912  7.81093749999991 4.37092013888912  C 7.91757812499998 4.2338107638891  7.91757812499998 4.04396701388919  7.81093749999991 3.90802951388912  C 7.81093749999991 3.90802951388912  4.81914062499993 0.0853732638890961  4.81914062499993 0.0853732638890961  C 4.78398437499993 0.0396701388891643  4.72890624999991 0.0138888888891415  4.67148437499998 0.0138888888891415  C 4.67148437499998 0.0138888888891415  3.765625 0.0138888888891415  3.765625 0.0138888888891415  C 3.68710937499998 0.0138888888891415  3.64374999999995 0.104123263889164  3.69179687499991 0.165060763889187  C 3.69179687499991 0.165060763889187  6.80195312499995 4.13888888888914  6.80195312499995 4.13888888888914  C 6.80195312499995 4.13888888888914  3.69179687499991 8.1127170138891  3.69179687499991 8.1127170138891  C 3.64374999999995 8.17365451388912  3.68710937499998 8.26388888888914  3.765625 8.26388888888914  C 3.765625 8.26388888888914  4.67148437499998 8.26388888888914  4.67148437499998 8.26388888888914  C 4.72890624999991 8.26388888888914  4.78398437499993 8.23693576388916  4.81914062499993 8.19240451388919  Z " fill-rule="nonzero" fill="#000000" stroke="none" fill-opacity="0.450980392156863" transform="matrix(1 0 0 1 3052 3654 )" />
  </g>
</svg>