<?xml version="1.0" encoding="utf-8"?>
<svg version="1.1" xmlns:xlink="http://www.w3.org/1999/xlink" width="14px" height="14px" xmlns="http://www.w3.org/2000/svg">
  <g transform="matrix(1 0 0 1 -1354 -1324 )">
    <path d="M 12.75 13.25  C 13.0265625000002 13.25  13.25 13.0265625  13.25 12.75  C 13.25 12.75  13.25 2.375  13.25 2.375  C 13.25 2.09843750000005  13.0265625000002 1.875  12.75 1.875  C 12.75 1.875  10.125 1.875  10.125 1.875  C 10.125 1.875  10.125 0.875  10.125 0.875  C 10.125 0.806250000000091  10.0687499999999 0.75  10 0.75  C 10 0.75  9.125 0.75  9.125 0.75  C 9.05625000000009 0.75  9 0.806250000000091  9 0.875  C 9 0.875  9 1.875  9 1.875  L 5 1.875  C 5 1.875  5 0.875  5 0.875  C 5 0.806250000000091  4.94374999999991 0.75  4.875 0.75  C 4.875 0.75  4 0.75  4 0.75  C 3.93125000000009 0.75  3.875 0.806250000000091  3.875 0.875  C 3.875 0.875  3.875 1.875  3.875 1.875  C 3.875 1.875  1.25 1.875  1.25 1.875  C 0.973437499999818 1.875  0.75 2.09843750000005  0.75 2.375  C 0.75 2.375  0.75 12.75  0.75 12.75  C 0.75 13.0265625  0.973437499999818 13.25  1.25 13.25  C 1.25 13.25  12.75 13.25  12.75 13.25  Z M 1.875 12  L 1.875 6.1875  L 12.125 6.1875  L 12.125 12  L 1.875 12  Z M 12.125 3  L 12.125 5.125  L 1.875 5.125  L 1.875 3  L 3.875 3  C 3.875 3  3.875 3.75  3.875 3.75  C 3.875 3.81874999999991  3.93125000000009 3.875  4 3.875  C 4 3.875  4.875 3.875  4.875 3.875  C 4.94374999999991 3.875  5 3.81874999999991  5 3.75  C 5 3.75  5 3  5 3  L 9 3  C 9 3  9 3.75  9 3.75  C 9 3.81874999999991  9.05625000000009 3.875  9.125 3.875  C 9.125 3.875  10 3.875  10 3.875  C 10.0687499999999 3.875  10.125 3.81874999999991  10.125 3.75  C 10.125 3.75  10.125 3  10.125 3  L 12.125 3  Z " fill-rule="nonzero" fill="#ffffff" stroke="none" transform="matrix(1 0 0 1 1354 1324 )" />
  </g>
</svg>