<?xml version="1.0" encoding="utf-8"?>
<svg version="1.1" xmlns:xlink="http://www.w3.org/1999/xlink" width="280px" height="32px" xmlns="http://www.w3.org/2000/svg">
  <g transform="matrix(1 0 0 1 -1341 -2306 )">
    <path d="M 1344 2310  A 1 1 0 0 1 1345 2309 L 1617 2309  A 1 1 0 0 1 1618 2310 L 1618 2334  A 1 1 0 0 1 1617 2335 L 1345 2335  A 1 1 0 0 1 1344 2334 L 1344 2310  Z " fill-rule="nonzero" fill="#ffffff" stroke="none" fill-opacity="0" />
    <path d="M 1342.5 2310  A 2.5 2.5 0 0 1 1345 2307.5 L 1617 2307.5  A 2.5 2.5 0 0 1 1619.5 2310 L 1619.5 2334  A 2.5 2.5 0 0 1 1617 2336.5 L 1345 2336.5  A 2.5 2.5 0 0 1 1342.5 2334 L 1342.5 2310  Z " stroke-width="3" stroke="#4184e7" fill="none" stroke-opacity="0.196078431372549" />
  </g>
</svg>