<?xml version="1.0" encoding="utf-8"?>
<svg version="1.1" xmlns:xlink="http://www.w3.org/1999/xlink" width="360px" height="32px" xmlns="http://www.w3.org/2000/svg">
  <g transform="matrix(1 0 0 1 -1341 -3292 )">
    <path d="M 1344 3296  A 1 1 0 0 1 1345 3295 L 1697 3295  A 1 1 0 0 1 1698 3296 L 1698 3320  A 1 1 0 0 1 1697 3321 L 1345 3321  A 1 1 0 0 1 1344 3320 L 1344 3296  Z " fill-rule="nonzero" fill="#ffffff" stroke="none" fill-opacity="0" />
    <path d="M 1342.5 3296  A 2.5 2.5 0 0 1 1345 3293.5 L 1697 3293.5  A 2.5 2.5 0 0 1 1699.5 3296 L 1699.5 3320  A 2.5 2.5 0 0 1 1697 3322.5 L 1345 3322.5  A 2.5 2.5 0 0 1 1342.5 3320 L 1342.5 3296  Z " stroke-width="3" stroke="#4184e7" fill="none" stroke-opacity="0.196078431372549" />
  </g>
</svg>