<?xml version="1.0" encoding="utf-8"?>
<svg version="1.1" xmlns:xlink="http://www.w3.org/1999/xlink" width="360px" height="28px" xmlns="http://www.w3.org/2000/svg">
  <g transform="matrix(1 0 0 1 -1771 -3294 )">
    <path d="M 1774 3298  A 1 1 0 0 1 1775 3297 L 2127 3297  A 1 1 0 0 1 2128 3298 L 2128 3318  A 1 1 0 0 1 2127 3319 L 1775 3319  A 1 1 0 0 1 1774 3318 L 1774 3298  Z " fill-rule="nonzero" fill="#ffffff" stroke="none" fill-opacity="0" />
    <path d="M 1772.5 3298  A 2.5 2.5 0 0 1 1775 3295.5 L 2127 3295.5  A 2.5 2.5 0 0 1 2129.5 3298 L 2129.5 3318  A 2.5 2.5 0 0 1 2127 3320.5 L 1775 3320.5  A 2.5 2.5 0 0 1 1772.5 3318 L 1772.5 3298  Z " stroke-width="3" stroke="#4184e7" fill="none" stroke-opacity="0.196078431372549" />
  </g>
</svg>