<?xml version="1.0" encoding="utf-8"?>
<svg version="1.1" xmlns:xlink="http://www.w3.org/1999/xlink" width="280px" height="28px" xmlns="http://www.w3.org/2000/svg">
  <g transform="matrix(1 0 0 1 -1691 -2986 )">
    <path d="M 1694 2990  A 1 1 0 0 1 1695 2989 L 1967 2989  A 1 1 0 0 1 1968 2990 L 1968 3010  A 1 1 0 0 1 1967 3011 L 1695 3011  A 1 1 0 0 1 1694 3010 L 1694 2990  Z " fill-rule="nonzero" fill="#ffffff" stroke="none" fill-opacity="0" />
    <path d="M 1692.5 2990  A 2.5 2.5 0 0 1 1695 2987.5 L 1967 2987.5  A 2.5 2.5 0 0 1 1969.5 2990 L 1969.5 3010  A 2.5 2.5 0 0 1 1967 3012.5 L 1695 3012.5  A 2.5 2.5 0 0 1 1692.5 3010 L 1692.5 2990  Z " stroke-width="3" stroke="#4184e7" fill="none" stroke-opacity="0.196078431372549" />
  </g>
</svg>