<?xml version="1.0" encoding="utf-8"?>
<svg version="1.1" xmlns:xlink="http://www.w3.org/1999/xlink" width="6px" height="9px" xmlns="http://www.w3.org/2000/svg">
  <g transform="matrix(1 0 0 1 -3030 -3654 )">
    <path d="M 5.84495798319328 4.79919567376818  C 6.05168067226891 4.64722326804466  6.05168067226891 4.35277673195534  5.84495798319328 4.20080432623182  C 5.84495798319328 4.20080432623182  0.162605042016806 0.0203758844152399  0.162605042016806 0.0203758844152399  C 0.0957983193277307 -0.0283027767930757  0 0.0156267467363798  0 0.0951748028572862  C 0 0.0951748028572862  0 1.01294565929699  0 1.01294565929699  C 0 1.07112259586303  0.0289915966386556 1.12692496358964  0.0768907563025213 1.16254349618109  C 0.0768907563025213 1.16254349618109  4.61470588235294 4.5  4.61470588235294 4.5  C 4.61470588235294 4.5  0.0768907563025213 7.83745650381891  0.0768907563025213 7.83745650381891  C 0.0277310924369754 7.87307503641037  0 7.92887740413697  0 7.98705434070301  C 0 7.98705434070301  0 8.90482519714272  0 8.90482519714272  C 0 8.98437325326362  0.0970588235294116 9.02830277679308  0.162605042016806 8.97962411558476  C 0.162605042016806 8.97962411558476  5.84495798319328 4.79919567376818  5.84495798319328 4.79919567376818  Z " fill-rule="nonzero" fill="#000000" stroke="none" fill-opacity="0.650980392156863" transform="matrix(1 0 0 1 3030 3654 )" />
  </g>
</svg>