<?xml version="1.0" encoding="utf-8"?>
<svg version="1.1" xmlns:xlink="http://www.w3.org/1999/xlink" width="13px" height="14px" xmlns="http://www.w3.org/2000/svg">
  <g transform="matrix(1 0 0 1 -918 -212 )">
    <path d="M 11.625 12.15625  C 11.625 12.9315625  10.9940625 13.5625  10.21875 13.5625  L 1.78125 13.5625  C 1.0059375 13.5625  0.375 12.9315625  0.375 12.15625  L 0.375 2.78125  C 0.375 2.0059375  1.0059375 1.375  1.78125 1.375  L 8.34375 1.375  C 8.60296875 1.375  8.8125 1.585  8.8125 1.84375  C 8.8125 2.1025  8.60296875 2.3125  8.34375 2.3125  L 1.78125 2.3125  C 1.52296875 2.3125  1.3125 2.52296875  1.3125 2.78125  L 1.3125 12.15625  C 1.3125 12.415  1.52296875 12.625  1.78125 12.625  L 10.21875 12.625  C 10.4775 12.625  10.6875 12.415  10.6875 12.15625  L 10.6875 4.65625  C 10.6875 4.3975  10.89703125 4.1875  11.15625 4.1875  C 11.41546875 4.1875  11.625 4.3975  11.625 4.65625  L 11.625 12.15625  Z M 6.32484375 7.31453125  C 6.2334375 7.405  6.114375 7.45  5.9953125 7.45  C 5.874375 7.45  5.7534375 7.40359375  5.66203125 7.31078125  C 5.48015625 7.1265625  5.4815625 6.82984375  5.66578125 6.64796875  L 11.79328125 0.5875  C 11.97796875 0.40515625  12.27421875 0.4075  12.45609375 0.59125  C 12.6384375 0.77546875  12.6365625 1.0721875  12.45234375 1.2540625  L 6.32484375 7.31453125  Z " fill-rule="nonzero" fill="#1b91fe" stroke="none" transform="matrix(1 0 0 1 918 212 )" />
  </g>
</svg>