<?xml version="1.0" encoding="utf-8"?>
<svg version="1.1" xmlns:xlink="http://www.w3.org/1999/xlink" width="14px" height="14px" xmlns="http://www.w3.org/2000/svg">
  <g transform="matrix(1 0 0 1 -949 -212 )">
    <path d="M 8.87342517578125 10.2794389404297  C 8.87342516113281 10.5389719433594  8.6642869140625 10.7506299414063  8.40475391113281 10.7506299414063  C 8.14522090820313 10.7506299414063  7.93608264648437 10.5414916943359  7.93608264648437 10.2819586767578  L 7.93608264648437 5.12405510253906  C 7.93608264648437 4.86452209960937  8.14522089355469 4.65538383789062  8.40475391113281 4.65538383789062  C 8.66428692871094 4.65538383789062  8.87342517578125 4.86452208496094  8.87342517578125 5.12405510253906  L 8.87342517578125 10.2794389404297  Z M 6.06139763183594 10.2794389404297  C 6.0613976171875 10.5389719433594  5.85225937011719 10.7506299414063  5.59272635253906 10.7506299414063  C 5.33319334960937 10.7506299414063  5.12405508789062 10.5414916943359  5.12405508789062 10.2819586767578  L 5.12405510253906 5.12405510253906  C 5.12405510253906 4.86452209960937  5.33319334960937 4.65538383789062  5.5927263671875 4.65538383789062  C 5.85225937011719 4.65538383789062  6.06139763183594 4.86452208496094  6.06139763183594 5.12405510253906  L 6.06139763183594 10.2794389404297  Z M 13.5626574853516 3.24937007324219  C 13.5626574853516 2.98983705566406  13.3535192382812 2.78069880859375  13.0939862207031 2.78069880859375  L 10.7506299267578 2.78069880859375  L 10.7506299414063 1.84335629394531  C 10.7506299414063 1.06727700683594  10.1257349365234 0.437342514648437  9.35469512207031 0.437342514648437  L 4.65538383789062 0.437342514648438  C 3.87930455078125 0.437342514648438  3.24937005859375 1.06727700683594  3.24937005859375 1.84335629394531  L 3.24937005859375 2.78069880859375  L 0.906013764648438 2.78069880859375  C 0.64648076171875 2.78069880859375  0.4373425 2.98983705566406  0.4373425 3.24937007324219  C 0.4373425 3.50890309082031  0.646480747070313 3.71804133789063  0.906013764648438 3.71804133789063  L 13.0939862207031 3.71804133789063  C 13.3535192236328 3.71804133789063  13.5626574853516 3.50890309082031  13.5626574853516 3.24937007324219  Z M 4.18671258789063 1.84335629394531  C 4.18671258789063 1.58634302734375  4.39837057128906 1.37468502929687  4.65538385253906 1.37468502929687  L 9.35469512207031 1.37468502929687  C 9.61170838867187 1.37468502929687  9.81328742675781 1.58130354003906  9.81328742675781 1.84335629394531  L 9.81328742675781 2.78069880859375  L 4.18671258789063 2.78069880859375  L 4.18671258789063 1.84335629394531  Z M 11.6904922070313 12.1566437060547  C 11.6879724560547 12.9302032568359  11.0580379638672 13.5626574853516  10.2819586767578 13.5626574853516  L 3.72056105957031 13.5626574853516  C 2.94448177246094 13.5626574853516  2.31454728027344 12.9327229931641  2.31454728027344 12.1566437060547  L 2.31454728027344 5.11901561523438  C 2.31454728027344 4.85948261230469  2.52368552734375 4.65034435058594  2.78321854492187 4.65034435058594  C 3.0427515625 4.65034435058594  3.25188980957031 4.85948259765625  3.25188980957031 5.11901561523438  L 3.25188980957031 12.1566437060547  C 3.25188980957031 12.4161767089844  3.46354779296875 12.6253149707031  3.72056107421875 12.6253149707031  L 10.2844784277344 12.6253149707031  C 10.5440114306641 12.6253149707031  10.7531496923828 12.4161767236328  10.7531496923828 12.1566437060547  L 10.7531496777344 5.13665378417969  C 10.7531496777344 4.87712078125  10.9622879248047 4.66798251953125  11.2218209423828 4.66798251953125  C 11.4813539599609 4.66798251953125  11.6904922070313 4.87712076660156  11.6904922070313 5.13665378417969  L 11.6904922070313 12.1566437060547  Z " fill-rule="nonzero" fill="#555555" stroke="none" transform="matrix(1 0 0 1 949 212 )" />
  </g>
</svg>