<?xml version="1.0" encoding="utf-8"?>
<svg version="1.1" xmlns:xlink="http://www.w3.org/1999/xlink" width="13px" height="13px" xmlns="http://www.w3.org/2000/svg">
  <g transform="matrix(1 0 0 1 -325 -141 )">
    <path d="M 6.5 9.55165996756417  C 6.13940798863002 9.55165996756417  5.84709236537388 9.84397559082031  5.84709236537388 10.2045676021903  C 5.84709236537388 10.5651596135603  6.13940798863002 10.8574752368164  6.5 10.8574752368164  C 6.86059201136998 10.8574752368164  7.15290763462612 10.5651596135603  7.15290763462612 10.2045676021903  C 7.15290763462612 9.84397559082031  6.86059201136998 9.55165996756417  6.5 9.55165996756417  Z M 12.59375 6.5  C 12.59375 9.86026083844866  9.86026083844866 12.59375  6.5 12.59375  C 3.13973916155134 12.59375  0.40625 9.86026083844866  0.40625 6.5  C 0.40625 3.13973916155134  3.13973916155134 0.40625  6.5 0.40625  C 9.86026083844866 0.40625  12.59375 3.13973916155134  12.59375 6.5  Z M 11.7193067637416 6.5  C 11.7193067637416 3.6220026171875  9.37755282470703 1.28069323625837  6.5 1.28069323625837  C 3.6220026171875 1.28069323625837  1.28069323625837 3.62200260358538  1.28069323625837 6.5  C 1.28069323625837 9.37755282470703  3.62200260358538 11.7193067637416  6.5 11.7193067637416  C 9.37755282470703 11.7193067637416  11.7193067637416 9.37757622035435  11.7193067637416 6.5  Z M 6.93527955496652 8.26369764474051  C 6.93527955496652 8.5039753226144  6.74027767787388 8.69939836216518  6.5 8.69939836216518  C 6.25972232212612 8.69939836216518  6.06472044503348 8.50439648507254  6.06472044503348 8.26414220284598  L 6.06472044503348 7.52810021658761  C 6.06472044503348 6.81599475237165  6.60880234200614 6.27191285539899  7.08933431570871 5.79182545340402  C 7.44145612339565 5.43925907400949  7.80579187360491 5.07536789550781  7.80579187360491 4.78504113351004  C 7.80579187360491 4.05945821219308  7.21992052176339 3.46923476667132  6.5 3.46923476667132  C 5.76788894496373 3.46923476667132  5.19420812639509 4.03421139787946  5.19420812639509 4.75544221191406  C 5.19420812639509 4.99571988978794  4.99920624930246 5.19069837123326  4.75892857142857 5.19069837123326  C 4.51865089355469 5.19069837123326  4.32364901646205 4.99569649414062  4.32364901646205 4.75544221191406  C 4.32364901646205 3.56629113351004  5.29994528494699 2.5986990523856  6.5 2.5986990523856  C 7.70005471505301 2.5986990523856  8.67635098353795 3.57934741455078  8.67635098353795 4.78504113351004  C 8.67635098353795 5.43663846226283  8.18231815708705 5.93022671700614  7.70482798479353 6.40771690290179  C 7.32614904331752 6.78553011021205  6.93527955496652 7.17639958496094  6.93527955496652 7.52765565848214  L 6.93527955496652 8.26369764474051  Z " fill-rule="nonzero" fill="#aaaaaa" stroke="none" transform="matrix(1 0 0 1 325 141 )" />
  </g>
</svg>