<?xml version="1.0" encoding="utf-8"?>
<svg version="1.1" xmlns:xlink="http://www.w3.org/1999/xlink" width="66px" height="32px" xmlns="http://www.w3.org/2000/svg">
  <defs>
    <mask fill="white" id="clip238">
      <path d="M 66 27.4285714285714  L 66 4.57142857142857  C 66 2.01142857142857  64.185 0  61.875 0  L 0 0  L 0 32  L 61.875 32  C 64.185 32  66 29.9885714285714  66 27.4285714285714  Z " fill-rule="evenodd" />
    </mask>
  </defs>
  <g transform="matrix(1 0 0 1 -1309 -149 )">
    <path d="M 66 27.4285714285714  L 66 4.57142857142857  C 66 2.01142857142857  64.185 0  61.875 0  L 0 0  L 0 32  L 61.875 32  C 64.185 32  66 29.9885714285714  66 27.4285714285714  Z " fill-rule="nonzero" fill="#ffffff" stroke="none" transform="matrix(1 0 0 1 1309 149 )" />
    <path d="M 66 27.4285714285714  L 66 4.57142857142857  C 66 2.01142857142857  64.185 0  61.875 0  L 0 0  L 0 32  L 61.875 32  C 64.185 32  66 29.9885714285714  66 27.4285714285714  Z " stroke-width="2" stroke="#d9d9d9" fill="none" transform="matrix(1 0 0 1 1309 149 )" mask="url(#clip238)" />
  </g>
</svg>