<?xml version="1.0" encoding="utf-8"?>
<svg version="1.1" xmlns:xlink="http://www.w3.org/1999/xlink" width="13px" height="11px" xmlns="http://www.w3.org/2000/svg">
  <g transform="matrix(1 0 0 1 -258 -83 )">
    <path d="M 12.6954484622082 10.8018018066406  C 14.4705488587161 2.67567567567568  5.94310575465926 2.27927928895693  5.94310575465926 2.27927927444046  L 5.94310575465926 0.462462465688345  C 5.76907630012237 -0.297297297297297  5.10776439429593 0.165165168391048  5.10776439429593 0.165165168391048  L 0.513386874058735 3.89789790434966  C -0.495983940841491 4.55855856339738  0.443775095303087 5.05405405405405  0.443775095303087 5.05405405405405  L 4.96854083678464 8.75375375052787  C 5.87349397590361 9.38138138460726  5.94310576995482 8.42342341374578  5.94310575465926 8.42342342826225  L 5.94310575465926 6.73873873389992  C 10.5374832596009 5.38438439083615  12.4170013318901 10.8018018066406  12.4170013318901 10.8018018066406  C 12.591030786427 11.0990991039379  12.6954484469126 10.8018018066406  12.6954484622082 10.8018018066406  Z " fill-rule="nonzero" fill="#000000" stroke="none" transform="matrix(1 0 0 1 258 83 )" />
  </g>
</svg>