<?xml version="1.0" encoding="utf-8"?>
<svg version="1.1" xmlns:xlink="http://www.w3.org/1999/xlink" width="13px" height="13px" xmlns="http://www.w3.org/2000/svg">
  <g transform="matrix(1 0 0 1 -905 -212 )">
    <path d="M 12.9522058823529 4.85970588235294  C 12.9521517436565 4.60621084005702  12.8514074906281 4.36311805203287  12.6721323529412 4.18389705882353  L 8.81610294117647 0.327867647058824  C 8.63688194796714 0.148592509371885  8.39378915994299 0.0478482563434878  8.14029411764706 0.0477941176470591  L 1.00367647058824 0.0477941176470591  C 0.475757224426448 0.0477941176470591  0.0477941176470588 0.475757224426448  0 1.00367647058824  L 0 11.9963235294118  C 0.0477941176470588 12.5242427755736  0.475757224426448 12.9522058823529  1.00367647058824 13  L 11.9963235294118 13  C 12.5242427755736 12.9522058823529  12.9522058823529 12.5242427755736  12.9522058823529 11.9963235294118  L 12.9522058823529 4.85970588235294  Z M 3.15441176470588 2.67647058823529  L 3.15441176470588 1.00367647058824  L 6.02205882352941 1.00367647058824  L 6.02205882352941 2.67647058823529  L 3.15441176470588 2.67647058823529  Z M 9.84558823529412 9.84558823529412  L 9.84558823529412 11.9963235294118  L 3.15441176470588 11.9963235294118  L 3.15441176470588 9.84558823529412  L 9.84558823529412 9.84558823529412  Z M 11.9963235294118 4.85970588235294  L 11.9963235294118 11.9963235294118  L 10.8014705882353 11.9963235294118  L 10.8014705882353 9.36764705882353  C 10.8014705882353 9.10368743574264  10.5874890348456 8.88970588235294  10.3235294117647 8.88970588235294  L 2.67647058823529 8.88970588235294  C 2.4125109651544 8.88970588235294  2.19852941176471 9.10368743574264  2.19852941176471 9.36764705882353  L 2.19852941176471 11.9963235294118  L 1 11.9963235294118  L 1 1.00367647058824  L 2.19852941176471 1.00367647058824  L 2.19852941176471 3.15441176470588  C 2.19852941176471 3.41837138778678  2.4125109651544 3.63235294117647  2.67647058823529 3.63235294117647  L 6.5 3.63235294117647  C 6.76395962308089 3.63235294117647  6.97794117647059 3.41837138778678  6.97794117647059 3.15441176470588  L 6.97794117647059 1.00367647058824  L 8.14029411764706 1.00367647058824  L 11.9963235294118 4.85970588235294  Z " fill-rule="nonzero" fill="#1b91fe" stroke="none" transform="matrix(1 0 0 1 905 212 )" />
  </g>
</svg>