<?xml version="1.0" encoding="utf-8"?>
<svg version="1.1" xmlns:xlink="http://www.w3.org/1999/xlink" width="1px" height="1px" xmlns="http://www.w3.org/2000/svg">
  <g transform="matrix(1 0 0 1 -532 -378 )">
    <path d="M 0.43184005849658 0.995502249023438  C 0.427364684390547 0.9990005  0.423386573966107 0.9990005  0.41493308846393 0.9990005  C 0.406479603933458 0.9990005  0.398523383084577 0.995002499023437  0.394048008978545 0.995002499023437  C 0.381616414023632 0.986506747070312  0.373162929493159 0.970014993164062  0.373162928521455 0.957521239257812  L 0.373162928521455 0.5957021484375  L 0.00866855954601992 0.0669665166015625  C 0.000215075015547286 0.054472763671875  -0.00376303540889301 0.037981009765625  0.00469044912157962 0.0209895048828125  C 0.0131439336520523 0.008495751953125  0.0255755286069652 0  0.0419852339863184 0  L 0.953469790694963 0  C 0.969879496074316 0  0.982311091029229 0.008495751953125  0.990764575559701 0.0209895048828125  C 0.999218060090174 0.0334832578125  0.994742685984142 0.04997501171875  0.986786465135261 0.062468765625  L 0.622292096159826 0.5957021484375  L 0.622292096159826 0.87456271875  C 0.622292096159826 0.89105447265625  0.613838611629353 0.903548225585938  0.597428905278296 0.912043977539063  L 0.43184005849658 0.995502249023438  Z " fill-rule="nonzero" fill="#000000" stroke="none" transform="matrix(1 0 0 1 532 378 )" />
  </g>
</svg>