<?xml version="1.0" encoding="utf-8"?>
<svg version="1.1" xmlns:xlink="http://www.w3.org/1999/xlink" width="14px" height="14px" xmlns="http://www.w3.org/2000/svg">
  <g transform="matrix(1 0 0 1 -361 -204 )">
    <path d="M 11.638766640625 11.6204727197266  C 10.40032421875 12.8537495019531  8.75266260742187 13.5334464501953  7 13.5334464501953  C 5.24733739257812 13.5334464501953  3.59967578125 12.8542282714844  2.36030103027344 11.6209514892578  C 1.12044750976563 10.3867423779297  0.4375 8.74611107910156  0.4375 7.0000251953125  C 0.4375 5.25439288574219  1.12047271972656 3.61330802734375  2.35984747070313 2.37955247558594  C 3.59922222167969 1.14627569335938  5.24688381835938 0.467057514648438  6.99954644042969 0.467057514648438  C 8.7522090625 0.467057514648438  10.3998706591797 1.14627569335938  11.638766640625 2.37955247558594  C 12.8790737207031 3.61330801269531  13.5615676708984 5.25439288574219  13.5615676708984 6.99954642578125  C 13.5620464404297 8.74563229492188  12.8790737207031 10.3867423632813  11.638766640625 11.6204727197266  Z M 10.9777919628906 3.04420607910156  C 9.91608991210937 1.98671212890625  8.50282219726563 1.40405354980469  7 1.40405354980469  C 5.49672422851562 1.40405354980469  4.08391008789062 1.986233359375  3.02172926757813 3.04375251953125  C 1.96000200683594 4.100314140625  1.375 5.50561919921875  1.375 7  C 1.375 8.49438080078125  1.95952325195312 9.899685859375  3.02125049804687 10.9557687109375  C 4.08343131835938 12.0132626611328  5.49624545898437 12.5954676806641  6.99952123046875 12.5954676806641  C 8.50234342773438 12.5954676806641  9.91561114257812 12.0132878710938  10.9777919628906 10.9557687109375  C 12.0395192236328 9.8987283203125  12.6245212304687 8.49390203125  12.6240424609375 6.99952123046875  C 12.6240424609375 5.5051404296875  12.0395192089844 4.100314140625  10.9777919628906 3.04420607910156  Z M 10.750050390625 7  C 10.750050390625 6.74123942382812  10.5404767480469 6.53126259765625  10.2812625976562 6.53126259765625  L 7.46876259765625 6.53126259765625  L 7.46876259765625 3.71876259765625  C 7.46876259765625 3.46000202148437  7.25876057617188 3.25  7 3.25  C 6.74123942382812 3.25  6.53123740234375 3.46000202148437  6.53123740234375 3.71876259765625  L 6.53123740234375 6.53126259765625  L 3.71876259765625 6.53126259765625  C 3.46000202148437 6.53126259765625  3.25 6.74126461914063  3.25 7.0000251953125  C 3.25 7.25878577148437  3.46000202148437 7.46878779296875  3.71876259765625 7.46878779296875  L 6.53126259765625 7.46878779296875  L 6.53126259765625 10.2812877929687  C 6.53126259765625 10.5405019433594  6.74126461914063 10.750050390625  7.0000251953125 10.750050390625  C 7.25878577148437 10.750050390625  7.46878779296875 10.5405271386719  7.46878779296875 10.2812877929687  L 7.46878779296875 7.46876259765625  L 10.2812877929687 7.46876259765625  C 10.5405019433594 7.46876259765625  10.750050390625 7.25876057617188  10.750050390625 7  Z " fill-rule="nonzero" fill="#1890ff" stroke="none" transform="matrix(1 0 0 1 361 204 )" />
  </g>
</svg>