<?xml version="1.0" encoding="utf-8"?>
<svg version="1.1" xmlns:xlink="http://www.w3.org/1999/xlink" width="12px" height="12px" xmlns="http://www.w3.org/2000/svg">
  <g transform="matrix(1 0 0 1 -334 -75 )">
    <path d="M 11.4613526660156 10.7008399570313  L 6.79649576367188 6.0219526875  L 11.459629078125 1.38300966796875  C 11.6801236289062 1.16363391210938  11.6812424414062 0.808127267578126  11.4618666855469 0.587632699218751  C 11.24191640625 0.366563625000001  10.8869842851562 0.3660193359375  10.6664897167969 0.585395091796875  L 6.00223760742188 5.22488240039062  L 1.37850423632813 0.587058193359375  C 1.15970300390625 0.3676824375  0.8036218359375 0.366563642578125  0.583127267578125 0.585939398437499  C 0.36317698828125 0.805315154296875  0.362632716796875 1.16136608789062  0.58200847265625 1.381890890625  L 5.20462304882813 6.01856606835937  L 0.543757576171875 10.6546969570312  C 0.323263025390625 10.8740727128906  0.322144212890625 11.2295793574219  0.54151996875 11.4500739257812  C 0.651192720703125 11.5603212011719  0.795759984375 11.6160193710937  0.940327248046875 11.6160193710937  C 1.08377571679688 11.6160193710937  1.22719393359375 11.5614702480469  1.3368969375 11.4523417675781  L 5.99891145703125 6.81509206640625  L 10.6648569023438 11.4950981132813  C 10.7745296542969 11.6053453886719  10.9185526464844 11.6604690351563  11.0631199101562 11.6604690351563  C 11.2071126503906 11.6604690351563  11.3505611191406 11.6053453886719  11.4602338710937 11.4962169257813  C 11.6801841503906 11.2768411699219  11.680728421875 10.9213345253906  11.4613526660156 10.7008399570313  Z " fill-rule="nonzero" fill="#ffffff" stroke="none" transform="matrix(1 0 0 1 334 75 )" />
  </g>
</svg>