<?xml version="1.0" encoding="utf-8"?>
<svg version="1.1" xmlns:xlink="http://www.w3.org/1999/xlink" width="104px" height="104px" xmlns="http://www.w3.org/2000/svg">
  <g transform="matrix(1 0 0 1 -151 -183 )">
    <path d="M 152 187  A 3 3 0 0 1 155 184 L 251 184  A 3 3 0 0 1 254 187 L 254 283  A 3 3 0 0 1 251 286 L 155 286  A 3 3 0 0 1 152 283 L 152 187  Z " fill-rule="nonzero" fill="#000000" stroke="none" fill-opacity="0.0196078431372549" />
    <path d="M 151.5 187  A 3.5 3.5 0 0 1 155 183.5 L 251 183.5  A 3.5 3.5 0 0 1 254.5 187 L 254.5 283  A 3.5 3.5 0 0 1 251 286.5 L 155 286.5  A 3.5 3.5 0 0 1 151.5 283 L 151.5 187  Z " stroke-width="1" stroke-dasharray="9,4" stroke="#d9d9d9" fill="none" stroke-dashoffset="0.5" />
  </g>
</svg>