<?xml version="1.0" encoding="utf-8"?>
<svg version="1.1" xmlns:xlink="http://www.w3.org/1999/xlink" width="13px" height="14px" xmlns="http://www.w3.org/2000/svg">
  <g transform="matrix(1 0 0 1 -510 -82 )">
    <path d="M 12.9800766332166 8.26631943969727  C 13.0729693583872 4.8674305460612  10.141992346893 2.03364583333333  6.43325670011674 1.93666666666667  C 6.37124520586386 1.9349652730306  6.31047891747486 1.93836806030273  6.24871647023168 1.93861110636393  L 6.24871647023168 0.515277773030599  C 6.24871647023168 0.125173606363932  5.80143678160919 -0.105972226969401  5.47070881712464 0.113020833333333  L 0.236341001032687 3.58239583333333  C 0.0998286008482777 3.67288071641178  0.0180973930222557 3.82347854428592  0.0180973930222557 3.98453125  C 0.0180973930222557 4.14558395571408  0.0998286008482777 4.29618178358822  0.236341001032687 4.38666666666667  L 5.47120689655172 7.85579860636393  C 5.80193486103628 8.07503471272786  6.24921456425108 7.84388887939453  6.24921456425108 7.45354166666667  L 6.24921456425108 6.01416666666667  C 8.77126436781609 5.98427083333333  10.8686973228718 7.70243056030273  10.9700574712644 9.92420139363607  C 11.0477586206897 11.6285069539388  9.92781609195402 13.1393402872721  8.26745210241559 13.8371527730306  C 8.23731799793463 13.8497916666667  8.20568965517242 13.8745833333333  8.20842911390984 13.9251388936361  C 8.21067049322019 13.9664583333333  8.25375477954382 13.9786111206055  8.29210727482938 13.9674305603027  C 10.9496360104616 13.2047222269694  12.9061111159752 10.9635069396973  12.9800766332166 8.26631943969727  Z " fill-rule="nonzero" fill="#555555" stroke="none" transform="matrix(1 0 0 1 510 82 )" />
  </g>
</svg>