<?xml version="1.0" encoding="utf-8"?>
<svg version="1.1" xmlns:xlink="http://www.w3.org/1999/xlink" width="14px" height="14px" xmlns="http://www.w3.org/2000/svg">
  <g transform="matrix(1 0 0 1 -677 -214 )">
    <path d="M 13.5625 7  C 13.5625 3.38125755859375  10.6187424414062 0.4375  7 0.4375  C 3.3817111328125 0.4375  0.4375 3.38125755859375  0.4375 7  C 0.4375 10.6187424414062  3.38125755859375 13.5625  7 13.5625  C 10.6182888671875 13.5625  13.5625 10.6187424414062  13.5625 7  Z M 7.66422523925781 7.00186467285156  L 9.67703434082031 9.02125049804688  C 9.85984747070312 9.20499595703125  9.85936870117187 9.50125150878906  9.67610201171875 9.68406463867187  C 9.58470805175781 9.7750050390625  9.46516766113281 9.82094139648437  9.3451737109375 9.82094139648437  C 9.22470099121094 9.82094139648437  9.10470704101563 9.77500502441406  9.01328787109375 9.68313229492187  L 6.99765657226563 7.66140302734375  L 4.97547373046875 9.66204138671875  C 4.88407977050781 9.75204944335937  4.76499295410156 9.79750704589844  4.64593133300781 9.79750704589844  C 4.5250050390625 9.79750704589844  4.40453233398438 9.75109191894531  4.31265958984375 9.65828684570312  C 4.1307787890625 9.4740626171875  4.13218988769531 9.17780706542969  4.31641413085938 8.99547270507812  L 6.33625353027344 6.99765655761719  L 4.32389800292969 4.97874948730469  C 4.14108487304688 4.79545758789062  4.14156364257813 4.4987484765625  4.32483033203125 4.31593534667969  C 4.50812223144531 4.13264344726562  4.80435257324219 4.13360098632812  4.98764447265625 4.31686767578125  L 7.00279700195312 6.33811817382812  L 9.02497984375 4.33750500976562  C 9.20872530273438 4.15517064941406  9.50591318359375 4.15703530761719  9.687793984375 4.34125955078125  C 9.87012834472656 4.52548377929687  9.86826368652344 4.822192890625  9.68403944335938 5.00407369140625  L 7.66422523925781 7.00186467285156  Z " fill-rule="nonzero" fill="#555555" stroke="none" transform="matrix(1 0 0 1 677 214 )" />
  </g>
</svg>