<?xml version="1.0" encoding="utf-8"?>
<svg version="1.1" xmlns:xlink="http://www.w3.org/1999/xlink" width="12px" height="12px" xmlns="http://www.w3.org/2000/svg">
  <g transform="matrix(1 0 0 1 -81 -596 )">
    <path d="M 11.9558823529412 4.48588235294118  C 11.9558323787599 4.2518869292834  11.8628376836567 4.02749358649188  11.6973529411765 3.86205882352941  L 8.13794117647059 0.302647058823529  C 7.97250641350813 0.137162316343278  7.7481130707166 0.0441676212401426  7.51411764705882 0.0441176470588238  L 0.926470588235294 0.0441176470588238  C 0.439160514855183 0.0441176470588238  0.0441176470588235 0.439160514855183  0 0.926470588235294  L 0 11.0735294117647  C 0.0441176470588235 11.5608394851448  0.439160514855182 11.9558823529412  0.926470588235294 12  L 11.0735294117647 12  C 11.5608394851448 11.9558823529412  11.9558823529412 11.5608394851448  11.9558823529412 11.0735294117647  L 11.9558823529412 4.48588235294118  Z M 2.91176470588235 2.47058823529412  L 2.91176470588235 0.926470588235294  L 5.55882352941176 0.926470588235294  L 5.55882352941176 2.47058823529412  L 2.91176470588235 2.47058823529412  Z M 9.08823529411765 9.08823529411765  L 9.08823529411765 11.0735294117647  L 2.91176470588235 11.0735294117647  L 2.91176470588235 9.08823529411765  L 9.08823529411765 9.08823529411765  Z M 11.0735294117647 4.48588235294118  L 11.0735294117647 11.0735294117647  L 9.97058823529412 11.0735294117647  L 9.97058823529412 8.64705882352941  C 9.97058823529412 8.40340378683936  9.77306680139594 8.20588235294118  9.52941176470588 8.20588235294118  L 2.47058823529412 8.20588235294118  C 2.22693319860406 8.20588235294118  2.02941176470588 8.40340378683936  2.02941176470588 8.64705882352941  L 2.02941176470588 11.0735294117647  L 1 11.0735294117647  L 1 0.926470588235294  L 2.02941176470588 0.926470588235294  L 2.02941176470588 2.91176470588235  C 2.02941176470588 3.15541974257241  2.22693319860406 3.35294117647059  2.47058823529412 3.35294117647059  L 6 3.35294117647059  C 6.24365503669006 3.35294117647059  6.44117647058824 3.15541974257241  6.44117647058824 2.91176470588235  L 6.44117647058824 0.926470588235294  L 7.51411764705882 0.926470588235294  L 11.0735294117647 4.48588235294118  Z " fill-rule="nonzero" fill="#000000" stroke="none" transform="matrix(1 0 0 1 81 596 )" />
  </g>
</svg>