<?xml version="1.0" encoding="utf-8"?>
<svg version="1.1" xmlns:xlink="http://www.w3.org/1999/xlink" width="15px" height="16px" xmlns="http://www.w3.org/2000/svg">
  <g transform="matrix(1 0 0 1 -626 -172 )">
    <path d="M 14.9838709740423 12.3650793712798  C 14.9838709740423 11.9267581378309  14.6228102856012 11.5714285714286  14.1774193548387 11.5714285714286  C 13.7320284240762 11.5714285714286  13.3709677356351 11.9267581378309  13.3709677356351 12.3650793712798  L 13.3709677356351 14.349206343006  L 1.67741936113911 14.349206343006  L 1.67741936113911 1.65079365699405  L 13.3709677356351 1.65079365699405  L 13.3709677356351 5.85714285714286  C 13.3709677356351 6.29546409059168  13.7320284240762 6.65079365699405  14.1774193548387 6.65079365699405  C 14.6228102856012 6.65079365699405  14.9838709740423 6.29546409059168  14.9838709740423 5.85714285714286  L 14.9838709740423 1.57142857142857  C 14.9622864046551 0.732226113712348  14.2648049767423 0.0629704329979663  13.411793864116 0.0629704329979663  C 13.3981834343273 0.0629704329979663  13.3845735780347 0.0631443224148701  13.3709677356351 0  L 1.67741936113911 0  C 1.66381351873954 0.0631443224148701  1.65020366244694 0.0629704329979663  1.63659323265822 0.0629704329979663  C 0.78358212003186 0.0629704329979663  0.08610069211906 0.732226113712346  0 1.57142857142857  L 0 14.4285714285714  C 0.0886976981339781 15.2824600279948  0.809659258002906 15.9565018648065  1.67741936113911 16  L 13.3709677356351 16  C 14.2387278387713 15.9565018648065  14.9596893986402 15.2824600279948  14.9838709740423 14.4285714285714  L 14.9838709740423 12.3650793712798  Z " fill-rule="nonzero" fill="#676a6c" stroke="none" transform="matrix(1 0 0 1 626 172 )" />
  </g>
</svg>