<?xml version="1.0" encoding="utf-8"?>
<svg version="1.1" xmlns:xlink="http://www.w3.org/1999/xlink" width="13px" height="12px" xmlns="http://www.w3.org/2000/svg">
  <g transform="matrix(1 0 0 1 -79 -386 )">
    <path d="M 9.56391134312221 9.49019167100695  C 9.56391135672433 8.39718535590278  7.67572773053851 7.82380499131945  6.59476013846261 7.62446572048611  L 6.59476013846261 7.53711480902778  C 7.81611312186105 6.70168169704861  7.81143359793527 5.25479216579861  7.80909384277344 4.07891445746528  L 7.80909384277344 3.90197285590278  C 7.80909384277344 2.19974988715278  6.73748528494699 1.18513540798611  4.94289193324498 1.18513540798611  L 4.85164142752511 1.18513540798611  C 3.1295805266462 1.18513540798611  2.18197907400949 2.15047501736111  2.18197907400949 3.90197285590278  C 2.18197907400949 4.78668085069445  2.18197907400949 6.58073426215278  3.59051259277344 7.53711479600694  L 3.59051259277344 7.60654756944445  C 1.95736244245257 7.82828450954861  0.424821818498884 8.46885789496528  0.424821818498884 9.49019167100695  C 0.424821818498884 10.9102039887153  1.889509488351 11.6000522439236  4.90077631312779 11.6000522439236  C 8.75435554024833 11.6000522439236  9.56391134312221 10.4532915017361  9.56391134312221 9.49019167100695  Z M 12.1844388110352 9.10943128038195  C 12.1820990558733 9.10719151475694  12.1820990558733 9.10719151475694  12.1797593007115 9.10719151475694  C 11.9411041245815 9.10719151475694  11.7469043237305 8.92129085069445  11.7445645549665 8.69283461371528  C 11.7398850446429 8.38822629340278  10.3617683701869 7.54159434027778  9.06086365687779 7.39376971788194  C 8.84092653564453 7.36913228298611  8.67714356549944 7.18995091579861  8.67714356549944 6.97941281684028  L 8.67714356549944 6.11710249131944  C 8.67714356549944 5.98943577256944  8.73797724051339 5.87072811631944  8.84092653564453 5.79233626736111  C 9.57561013253348 5.23015473090278  10.1324722147042 4.00500215277778  10.1324722147042 2.94335255642361  C 10.1324722147042 1.51214139756944  9.12169733189174 1.21201262152778  8.27470541922433 1.21201262152778  C 8.03371048793248 1.21201262152778  7.83951067347935 1.02611195746528  7.83951067347935 0.795415941840277  C 7.83951067347935 0.564719926215277  8.03371047433035 0.378819262152777  8.27470541922433 0.378819262152777  C 9.95699045514788 0.378819262152777  11.0028616925921 1.36207700954861  11.0028616925921 2.94559232204861  C 11.0028616925921 4.17970397569444  10.4015442351423 5.55492095486111  9.54753304338727 6.30972245225694  L 9.54753304338727 6.63000914496528  C 10.7969631023298 6.88534259548611  12.6172937880162 7.72301547309028  12.6172937880162 8.69507437934028  C 12.6172937880162 8.92353061631945  12.4230939871652 9.10719151475694  12.1844388110352 9.10943128038195  Z " fill-rule="nonzero" fill="#7f7f7f" stroke="none" transform="matrix(1 0 0 1 79 386 )" />
  </g>
</svg>