<?xml version="1.0" encoding="utf-8"?>
<svg version="1.1" xmlns:xlink="http://www.w3.org/1999/xlink" width="12px" height="12px" xmlns="http://www.w3.org/2000/svg">
  <g transform="matrix(1 0 0 1 -153 -386 )">
    <path d="M 6 0.0625000048828127  C 2.72080930057637 0.0625000048828127  0.0625000048828141 2.72080930057637  0.0625000048828141 6  C 0.0625000048828141 9.27919069942363  2.72080930057637 11.9374999951172  6 11.9374999951172  C 9.27919069942363 11.9374999951172  11.9374999951172 9.27919069942363  11.9374999951172 6  C 11.9374999951172 2.72080930057637  9.27919069942363 0.0625000048828127  6 0.0625000048828127  Z M 6.59374999511719 7.18750000488281  L 7.978125 7.18750000488281  C 8.30604406751533 7.18750000488281  8.57187499511719 7.45333093248467  8.57187499511719 7.78125  C 8.57187499511719 8.10916906751533  8.30604406751533 8.37499999511719  7.978125 8.37499999511719  L 6.59374999511719 8.37499999511719  L 6.59374999511719 9.16562500488281  C 6.59374999511719 9.49354407239814  6.32791906751533 9.759375  6 9.759375  C 5.67208093248467 9.759375  5.40625000488281 9.49354407239814  5.40625000488281 9.16562500488281  L 5.40625000488281 8.37499999511719  L 4.021875 8.37499999511719  C 3.69395596787493 8.37499999511719  3.42812504027307 8.10916906751533  3.42812504027307 7.78125  C 3.42812504027307 7.45333093248467  3.69395596787493 7.18750000488281  4.02187503539026 7.18750000488281  L 5.40625000488281 7.18750000488281  L 5.40625000488281 6.196875  L 4.021875 6.196875  C 3.69395592843961 6.196875  3.42812499755859 5.93104406911898  3.42812499755859 5.60312499755859  C 3.42812499755859 5.27520592599821  3.69395592843961 5.00937499511719  4.021875 5.00937499511719  L 5.14999999511719 5.00937499511719  L 3.609375 3.46875  C 3.52784571963401 3.36436609837041  3.48355936347419 3.23571889566128  3.48355936347419 3.10326882025016  C 3.48355936347419 2.77534975273482  3.74939029107604 2.50951882513297  4.07730935859137 2.50951882513297  C 4.20747021215179 2.50951882513297  4.33402484158449 2.55228963253718  4.43749999511719 2.63125000488281  L 6 4.19374999511719  L 7.52500000488281 2.66875000488281  C 7.6331586046455 2.56059140512012  7.77985314621113 2.49982853647753  7.93281250488281 2.49982853647753  C 8.25133388034244 2.49982853647753  8.50954647328809 2.75804112942318  8.50954647328809 3.07656250488281  C 8.50954647328809 3.22952186355449  8.4487836046455 3.37621640512012  8.34062500488281 3.48437500488281  L 6.80625 5.01874999511719  L 7.97187499511719 5.01874999511719  C 8.29979406667757 5.01874999511719  8.56562499755859 5.28458092599821  8.56562499755859 5.61249999755859  C 8.56562499755859 5.94041906911898  8.29979406667757 6.20625  7.97187499511719 6.20625  L 6.59374999511719 6.20625  L 6.59374999511719 7.18750000488281  Z " fill-rule="nonzero" fill="#7f7f7f" stroke="none" transform="matrix(1 0 0 1 153 386 )" />
  </g>
</svg>