<?xml version="1.0" encoding="utf-8"?>
<svg version="1.1" xmlns:xlink="http://www.w3.org/1999/xlink" width="12px" height="12px" xmlns="http://www.w3.org/2000/svg">
  <g transform="matrix(1 0 0 1 -221 -386 )">
    <path d="M 6 8.81691689313616  C 5.66714583565848 8.81691689313616  5.39731602957589 9.08674669921875  5.39731602957589 9.41960086356027  C 5.39731602957589 9.75245502790179  5.66714583565848 10.0222848339844  6 10.0222848339844  C 6.33285416434152 10.0222848339844  6.60268397042411 9.75245502790179  6.60268397042411 9.41960086356027  C 6.60268397042411 9.08674669921875  6.33285416434152 8.81691689313616  6 8.81691689313616  Z M 11.625 6  C 11.625 9.10177923549107  9.10177923549107 11.625  6 11.625  C 2.89822076450893 11.625  0.375 9.10177923549107  0.375 6  C 0.375 2.89822076450893  2.89822076450893 0.375  6 0.375  C 9.10177923549107 0.375  11.625 2.89822076450893  11.625 6  Z M 10.8178216280692 6  C 10.8178216280692 3.34338703125  8.65620260742187 1.1821783719308  6 1.1821783719308  C 3.34338703125 1.1821783719308  1.1821783719308 3.3433870186942  1.1821783719308 6  C 1.1821783719308 8.65620260742187  3.3433870186942 10.8178216280692  6 10.8178216280692  C 8.65620260742187 10.8178216280692  10.8178216280692 8.65622420340402  10.8178216280692 6  Z M 6.40179651227679 7.62802859514509  C 6.40179651227679 7.84982337472098  6.22179477957589 8.03021387276786  6 8.03021387276786  C 5.77820522042411 8.03021387276786  5.59820348772321 7.85021214006696  5.59820348772321 7.62843895647321  L 5.59820348772321 6.94901558454241  C 5.59820348772321 6.29168746372768  6.10043293108259 5.7894580203683  6.54400090680804 5.34630041852679  C 6.86903642159598 5.02085452985491  7.20534634486607 4.68495498046875  7.20534634486607 4.41696104631696  C 7.20534634486607 3.74719219587053  6.66454202008929 3.20237055385044  6 3.20237055385044  C 5.32420517996652 3.20237055385044  4.79465365513393 3.72388744419643  4.79465365513393 4.38963896484375  C 4.79465365513393 4.61143374441964  4.61465192243304 4.79141388113839  4.39285714285714 4.79141388113839  C 4.17106236328125 4.79141388113839  3.99106063058036 4.6114121484375  3.99106063058036 4.38963896484375  C 3.99106063058036 3.29196104631696  4.89225718610491 2.39879912527902  6 2.39879912527902  C 7.10774281389509 2.39879912527902  8.00893936941964 3.30401299804687  8.00893936941964 4.41696104631696  C 8.00893936941964 5.01843550362723  7.55290906808036 5.47405543108259  7.11214890904018 5.91481560267857  C 6.76259911690848 6.26356625558036  6.40179651227679 6.62436884765625  6.40179651227679 6.94860522321428  L 6.40179651227679 7.62802859514509  Z " fill-rule="nonzero" fill="#aaaaaa" stroke="none" transform="matrix(1 0 0 1 221 386 )" />
  </g>
</svg>