<?xml version="1.0" encoding="utf-8"?>
<svg version="1.1" xmlns:xlink="http://www.w3.org/1999/xlink" width="12px" height="12px" xmlns="http://www.w3.org/2000/svg">
  <g transform="matrix(1 0 0 1 -303 -385 )">
    <path d="M 11.9360995738636 1.53445909090909  C 11.9360995205966 0.714763849431818  11.2691867897727 0.0481906960227273  10.4498317649148 0.0481906960227273  L 1.53226363636364 0.0481906960227273  C 0.712567702414773 0.0481906960227273  0.0459958806818181 0.714763849431818  0.0459958806818181 1.53445845170455  L 0.0459958806818181 10.4520266335227  C 0.0459958806818181 11.2717225674716  0.712569034090909 11.9382943892045  1.53226363636364 11.9382943892045  L 10.4498318181818 11.9382943892045  C 11.2691868430398 11.9382943892045  11.9360995738636 11.2717212357955  11.9360995738636 10.4520266335227  L 11.9360995738636 1.53445909090909  Z M 11.1929723011364 10.4520276988636  C 11.1929723011364 10.8616912286932  10.8595086115057 11.1951682350852  10.4498317649148 11.1951682350852  L 1.53226363636364 11.1951682350852  C 1.12223123224432 11.1951682350852  0.789123100142045 10.8616912286932  0.789123100142045 10.4520276988636  L 0.789123100142045 1.53445909090909  C 0.789123100142045 1.12479556107955  1.12223256392045 0.7913185546875  1.53226363636364 0.7913185546875  L 10.4498318181818 0.7913185546875  C 10.8595086647727 0.7913185546875  11.1929723544034 1.12479556107955  11.1929723544034 1.53445909090909  L 11.1929723544034 10.4520272727273  Z M 9.70673384232955 2.64915  C 9.70671786221591 2.44377219460227  9.54016379616477 2.27760031960227  9.33515491832386 2.27760031960227  L 7.47729545454545 2.27760031960227  C 7.27193235085227 2.27760031960227  7.10574582741477 2.44378684303977  7.10574582741477 2.64916459517045  C 7.10574582741477 2.85454234730114  7.27194566761364 3.0207421875  7.47729545454545 3.0207421875  L 8.43815454545455 3.0207421875  L 6.84305486505682 4.61584117542614  C 6.6978955078125 4.76098721590909  6.6978955078125 4.99611860795455  6.84305486505682 5.14126331676136  C 6.91561390269886 5.21382235440341  7.01068625710227 5.25010919744318  7.10575994318182 5.25010919744318  C 7.20083362926136 5.25010919744318  7.29587801846591 5.21382235440341  7.36847833806818 5.14126331676136  L 8.96359197443182 3.54613636363636  L 8.96359197443182 4.50698181818182  C 8.96359197443182 4.7123595703125  9.12979181463068 4.87854609375  9.33516956676137 4.87854609375  C 9.54017844460227 4.87854609375  9.70673384232955 4.7123595703125  9.70673384232955 4.50698181818182  L 9.70673384232955 2.64915  Z M 5.13908256392045 4.61584112215909  L 3.5439404296875 3.0207275390625  L 4.50478588423296 3.0207275390625  C 4.70979476207386 3.0207275390625  4.87635015980114 2.85452769886364  4.87635015980114 2.64914994673295  C 4.87635015980114 2.44377219460227  4.70979609375 2.27758567116477  4.50478588423296 2.27758567116477  L 2.64695454545455 2.27758567116477  C 2.44157679332386 2.27758567116477  2.27539026988636 2.44377219460227  2.27539026988636 2.64914994673295  L 2.27539026988636 4.50698176491477  C 2.27539026988636 4.71235951704545  2.44157679332386 4.87854604048295  2.64695454545455 4.87854604048295  C 2.85197674005682 4.87854604048295  3.01853213778409 4.71235951704545  3.01853213778409 4.50698176491477  L 3.01853213778409 3.54613631036932  L 4.61364577414773 5.14126326349432  C 4.68621812855114 5.21382230113636  4.78127716619318 5.25010914417614  4.87636416903409 5.25010914417614  C 4.971451171875 5.25010914417614  5.06649556107955 5.21382230113636  5.13908256392045 5.14126326349432  C 5.28421395596591 4.99611722301136  5.28421395596591 4.76098583096591  5.13908256392045 4.61584112215909  Z M 5.13906732954545 6.84523609730114  C 4.99392267400568 6.70009144176136  4.75879128196023 6.70009144176136  4.61364524147727 6.84524946732955  L 3.01853160511364 8.44034978693182  L 3.01853160511364 7.47951796875  C 3.01853160511364 7.27412689985795  2.8519775390625 7.10794037642045  2.64695401278409 7.10794037642045  C 2.44157626065341 7.10794037642045  2.27538973721591 7.27414021661932  2.27538973721591 7.47951796875  L 2.27538973721591 9.33733615056818  C 2.27538973721591 9.54271390269886  2.44157626065341 9.70890042613637  2.64695401278409 9.70890042613637  L 4.50478583096591 9.70890042613637  C 4.70979470880682 9.70890042613637  4.87635010653409 9.5427005859375  4.87635010653409 9.33733615056818  C 4.87635010653409 9.13194508167614  4.70979604048295 8.96575855823864  4.50478583096591 8.96575855823864  L 3.54394037642045 8.96575855823864  L 5.13906732954545 7.370644921875  C 5.28419872159091 7.22548556463068  5.28419872159091 6.99036748934659  5.13906732954545 6.84523609730114  Z M 9.706719140625 7.47953133877841  C 9.70671786221591 7.27414106889204  9.54016379616477 7.10794122869318  9.33515491832386 7.10794122869318  C 9.12976384943182 7.10794122869318  8.96357732599432 7.27414106889204  8.96357732599432 7.47951882102273  L 8.96357732599432 8.44035063920454  L 7.36846368963068 6.84524946732955  C 7.22330433238636 6.70009011008523  6.98817294034091 6.70009011008523  6.84305486505682 6.84524946732955  C 6.6978955078125 6.9903955078125  6.6978955078125 7.22551358309659  6.84305486505682 7.37065829190341  L 8.43816850142045 8.96577192826705  L 7.47730941051137 8.96577192826705  C 7.27194630681818 8.96577192826705  7.10575978338068 9.13197176846591  7.10575978338068 9.33734952059659  C 7.10575978338068 9.54272727272727  7.27195962357955 9.70891379616477  7.47730941051137 9.70891379616477  L 9.33515486505682 9.70891379616477  C 9.54016374289773 9.70891379616477  9.706719140625 9.54271395596591  9.706719140625 9.33734952059659  L 9.706719140625 7.47953133877841  Z " fill-rule="nonzero" fill="#7f7f7f" stroke="none" transform="matrix(1 0 0 1 303 385 )" />
  </g>
</svg>