<?xml version="1.0" encoding="utf-8"?>
<svg version="1.1" xmlns:xlink="http://www.w3.org/1999/xlink" width="12px" height="12px" xmlns="http://www.w3.org/2000/svg">
  <g transform="matrix(1 0 0 1 -82 -734 )">
    <path d="M 10.2677777777778 11.6830555555556  L 1.56527777777778 11.6830555555556  C 0.798055551215278 11.6830555555556  0.176666671006944 11.0616666623264  0.176666671006944 10.2944444487847  L 0.176666671006944 2.55111111545139  C 0.176666671006944 1.78388888888889  0.798055564236111 1.16194444878472  1.56527777777778 1.16194444878472  L 10.2675000043403 1.16194444878472  C 11.0347222309028 1.16194444878472  11.6566666710069 1.78388888888889  11.6566666710069 2.55111111545139  L 11.6566666710069 10.2944444487847  C 11.6566666710069 11.0616666623264  11.0347222178819 11.6830555555556  10.2677777777778 11.6830555555556  Z M 11.1855555512153 2.97166666232639  C 11.1855555512153 2.20499999565972  10.5641666579861 1.58305555555556  9.79694444444444 1.58305555555556  L 2.03638888454861 1.58305555555556  C 1.26916665798611 1.58305555555556  0.647222217881945 2.20499999565972  0.647222217881945 2.97166666232639  L 0.647222217881945 9.87333332899305  C 0.647222217881945 10.6405555555556  1.26916665798611 11.2624999956597  2.03638888454861 11.2624999956597  L 9.79694444444444 11.2624999956597  C 10.5641666710069 11.2624999956597  11.1855555512153 10.6405555555556  11.1855555512153 9.87333332899305  L 11.1855555512153 2.97166666232639  Z M 3.12972221788194 3.31416666232639  L 2.57416665798611 3.31416666232639  C 2.43194443142361 3.31416666232639  2.31694443142361 3.19861110243056  2.31694443142361 3.05694443576389  L 2.31694444444444 0.463055555555556  C 2.31694444444444 0.320833328993055  2.43194444444444 0.205833328993056  2.57416667100695 0.205833328993056  L 3.12972223090278 0.205833328993056  C 3.27194445746528 0.205833328993056  3.38694445746528 0.320833328993056  3.38694445746528 0.463055555555556  L 3.38694445746528 3.05722222222222  C 3.38722221788194 3.19888888888889  3.27194444444444 3.31416666232639  3.12972221788194 3.31416666232639  Z M 6.34027777777778 3.31416666232639  L 5.78472221788195 3.31416666232639  C 5.64249999131945 3.31416666232639  5.52749999131945 3.19861110243056  5.52749999131945 3.05694443576389  L 5.52750000434028 0.463055555555556  C 5.52750000434028 0.320833328993055  5.64250000434028 0.205833328993056  5.78472223090278 0.205833328993056  L 6.34027779079861 0.205833328993056  C 6.48250001736111 0.205833328993056  6.59750001736111 0.320833328993056  6.59750001736111 0.463055555555556  L 6.59750001736111 3.05722222222222  C 6.59750000434028 3.19888888888889  6.48250000434028 3.31416666232639  6.34027777777778 3.31416666232639  Z M 9.32138888454861 3.31416666232639  L 8.76583332465278 3.31416666232639  C 8.64527776475694 3.31416666232639  8.54694443142361 3.21583332899305  8.54694443142361 3.09472222222222  L 8.54694444444445 0.424722222222222  C 8.54694444444445 0.304166662326389  8.64527777777778 0.205833328993056  8.76583333767361 0.205833328993056  L 9.32138889756945 0.205833328993056  C 9.44250000434028 0.205833328993056  9.54083333767361 0.304166662326389  9.54083333767361 0.424722222222222  L 9.54083333767361 3.09499999565972  C 9.54055555121528 3.21611111545139  9.44250000434028 3.31416666232639  9.32138888454861 3.31416666232639  Z M 2.31694444444444 5.46611111545139  L 2.31694444444444 4.27055555555556  L 3.92194444444444 4.27055555555556  L 3.92194444444444 5.46611111545139  L 2.31694444444444 5.46611111545139  Z M 4.99250000434028 5.46611111545139  L 4.99250000434028 4.27055555555556  L 6.59750000434028 4.27055555555556  L 6.59750000434028 5.46611111545139  L 4.99250000434028 5.46611111545139  Z M 7.93527777777778 5.46611111545139  L 7.93527777777778 4.27055555555556  L 9.54055555121528 4.27055555555556  L 9.54055555121528 5.46611111545139  L 7.93527777777778 5.46611111545139  Z M 2.31694444444444 7.37916666232639  L 2.31694444444444 6.18333332899306  L 3.92194444444444 6.18333332899306  L 3.92194444444444 7.37916666232639  L 2.31694444444444 7.37916666232639  Z M 4.99250000434028 7.37916666232639  L 4.99250000434028 6.18333332899306  L 6.59750000434028 6.18333332899306  L 6.59750000434028 7.37916666232639  L 4.99250000434028 7.37916666232639  Z M 7.93527777777778 7.37916666232639  L 7.93527777777778 6.18333332899306  L 9.54055555121528 6.18333332899306  L 9.54055555121528 7.37916666232639  L 7.93527777777778 7.37916666232639  Z M 2.31694444444444 9.29194444878472  L 2.31694444444444 8.09638888888889  L 3.92194444444444 8.09638888888889  L 3.92194444444444 9.29194444878472  L 2.31694444444444 9.29194444878472  Z M 4.99250000434028 9.29194444878472  L 4.99250000434028 8.09638888888889  L 6.59750000434028 8.09638888888889  L 6.59750000434028 9.29194444878472  L 4.99250000434028 9.29194444878472  Z M 7.93527777777778 9.29194444878472  L 7.93527777777778 8.09638888888889  L 9.54055555121528 8.09638888888889  L 9.54055555121528 9.29194444878472  L 7.93527777777778 9.29194444878472  Z " fill-rule="nonzero" fill="#333333" stroke="none" transform="matrix(1 0 0 1 82 734 )" />
  </g>
</svg>