<?xml version="1.0" encoding="utf-8"?>
<svg version="1.1" xmlns:xlink="http://www.w3.org/1999/xlink" width="9px" height="11px" xmlns="http://www.w3.org/2000/svg">
  <g transform="matrix(1 0 0 1 -247 -735 )">
    <path d="M 8.9609765625 0.716022359913794  C 8.95921875 1.08273841594828  8.674453125 1.38277882543104  8.32640625 1.38277882543104  L 0.708046875 1.38277882543104  C 0.36 1.38277882543104  0.075234375 1.08273841594828  0.075234375 0.716022359913794  C 0.075234375 0.34930630387931  0.36 0.0492658943965524  0.708046875 0.0492658943965524  L 8.3281640625 0.0492658943965524  C 8.6762109375 0.0492658943965524  8.9609765625 0.34930630387931  8.9609765625 0.716022359913794  Z M 8.9609765625 5.49444369612069  C 8.95921875 5.86115975215517  8.674453125 6.16120016163793  8.32640625 6.16120016163793  L 0.708046875 6.16120016163793  C 0.36 6.16120016163793  0.075234375 5.86115975215517  0.075234375 5.49444369612069  C 0.075234375 5.12772764008621  0.36 4.82768723060345  0.708046875 4.82768723060345  L 8.3281640625 4.82768723060345  C 8.6762109375 4.82768723060345  8.9609765625 5.12772764008621  8.9609765625 5.49444369612069  Z M 8.9609765625 10.2728650323276  C 8.95921875 10.6395810883621  8.674453125 10.9396214978448  8.32640625 10.9396214978448  L 0.708046875 10.9396214978448  C 0.36 10.9396214978448  0.075234375 10.6395810883621  0.075234375 10.2728650323276  C 0.075234375 9.9061489762931  0.36 9.60610856681035  0.708046875 9.60610856681035  L 8.3281640625 9.60610856681035  C 8.6762109375 9.60610856681035  8.9609765625 9.9061489762931  8.9609765625 10.2728650323276  Z " fill-rule="nonzero" fill="#333333" stroke="none" transform="matrix(1 0 0 1 247 735 )" />
  </g>
</svg>