<?xml version="1.0" encoding="utf-8"?>
<svg version="1.1" xmlns:xlink="http://www.w3.org/1999/xlink" width="16px" height="16px" xmlns="http://www.w3.org/2000/svg">
  <g transform="matrix(1 0 0 1 -537 -171 )">
    <path d="M 12.3234931773879 13.8516959064327  L 7.22410916179337 8.86674463937622  L 7.22410916179337 1.60006237816764  L 7.21347368421053 1.60006237816764  C 3.23281091617934 1.60006237816764  0.00709551656920078 4.82042884990253  0.00709551656920078 8.79223391812866  C 0.00709551656920078 12.7640233918129  3.23279532163743 15.9844054580897  7.20814035087719 15.9844054580897  C 9.20957504873294 15.9844054580897  11.0184795321637 15.1682183235867  12.3234931773879 13.8516959064327  Z M 13.46261208577 13.385918128655  L 8.04116959064327 7.92991812865497  L 13.5122807017544 2.50495126705653  L 13.8236725146199 2.81013645224172  C 15.2120545808967 4.17191423001949  15.9767953216374 5.98881871345029  15.9767953216374 7.92547368421053  C 15.9767953216374 9.88787524366472  15.1961013645224 11.7207329434698  13.7775282651072 13.0843040935672  L 13.4625964912281 13.385918128655  Z M 13.5051851851852 3.76028070175439  L 9.29473684210526 7.9343469785575  L 13.4661364522417 12.1323664717349  C 14.5174269005848 10.9764054580897  15.0905263157895 9.49929044834308  15.0905263157895 7.92547368421053  C 15.0905263157895 6.37473684210526  14.5307290448343 4.91181286549708  13.5051851851852 3.76028070175439  Z M 13.1627290448343 1.96734502923977  C 11.954432748538 0.760795321637427  10.2856920077973 0.0155945419103318  8.44307212475633 0.0155945419103318  L 8.44307212475633 6.6825730994152  L 13.1627290448343 1.96734502923977  Z " fill-rule="nonzero" fill="#676a6c" stroke="none" transform="matrix(1 0 0 1 537 171 )" />
  </g>
</svg>