<?xml version="1.0" encoding="utf-8"?>
<svg version="1.1" xmlns:xlink="http://www.w3.org/1999/xlink" width="12px" height="12px" xmlns="http://www.w3.org/2000/svg">
  <g transform="matrix(1 0 0 1 -336 -734 )">
    <path d="M 7.20407478097098 5.99892011300223  C 7.20407478097098 6.66413093052455  6.66413093052455 7.20407478097098  5.99892011300223 7.20407478097098  C 5.33370929547991 7.20407478097098  4.79376544503348 6.66413093052455  4.79376544503348 5.99892011300223  C 4.79376544503348 5.33370929547991  5.33370929547991 4.79376544503348  5.99892011300223 4.79376544503348  C 6.66413093052455 4.79376544503348  7.20407478097098 5.33370929547991  7.20407478097098 5.99892011300223  Z M 6.40063833984375 5.99892011300223  C 6.40063833984375 5.77862301478795  6.22137697265625 5.59720188616071  5.99892011300223 5.59720188616071  C 5.77862302734375 5.59720188616071  5.59720188616071 5.77862301478795  5.59720188616071 5.99892011300223  C 5.59720188616071 6.21921721121652  5.77862301478795 6.40063833984375  5.99892011300223 6.40063833984375  C 6.21921721121652 6.40063833984375  6.40063833984375 6.21921721121652  6.40063833984375 5.99892011300223  Z M 7.6057929952567 11.6078567829241  C 7.56907681222098 11.6186556654576  7.53236062918527 11.6251349874442  7.49348467215402 11.6251349874442  C 7.36821770507813 11.6251349874442  7.24511049944197 11.5646612779018  7.169518359375 11.4609920633371  L 6.24729428571428 10.1975234598214  C 6.07667202706473 10.2083223423549  5.92116819893973 10.2083223423549  5.75054595284598 10.1975234598214  L 4.82832186662946 11.4588322893415  C 4.7289722000558 11.5948981389509  4.55619016741071 11.6553718484933  4.39420701729911 11.6078567954799  C 3.96009216796875 11.4847496023996  3.54757507114955 11.31412734375  3.1674545968192 11.1024693540737  C 3.02058986467634 11.0203978920201  2.9406781766183 10.8562549553571  2.96659548967634 10.6899522572545  L 3.20849032784598 9.14139331054687  C 3.08538313476562 9.03124476143973  2.96875526367188 8.91461689034598  2.85860671456473 8.79150969726562  L 1.31004776785714 9.03340453543527  C 1.14590484375 9.0593218359375  0.979602133091518 8.97941014787947  0.897530671037947 8.83254542829241  C 0.685872681361607 8.45026517996652  0.515250422712054 8.03774808314732  0.392143229631696 7.60363323381697  C 0.346787950613839 7.44165008370536  0.405101886160714 7.26886805106027  0.541167735770089 7.16951838448661  L 1.80247656529018 6.24729429827009  C 1.79599724330357 6.16090328822545  1.79383746930804 6.07883181361607  1.79383746930804 5.99892012555804  C 1.79383746930804 5.9190084375  1.79599724330357 5.83693697544643  1.80247656529018 5.75054595284598  L 0.541167735770089 4.82832186662947  C 0.405101886160714 4.7289722000558  0.344628176618304 4.55619016741072  0.392143229631697 4.39420701729911  C 0.515250422712054 3.96009216796875  0.685872681361607 3.54757507114955  0.897530671037947 3.1674545968192  C 0.979602133091518 3.02058986467634  1.14590484375 2.9406781766183  1.31004776785714 2.96659548967634  L 2.85860671456473 3.20849032784598  C 2.96875526367188 3.08538313476562  3.08538313476562 2.96875526367188  3.20849032784598 2.85860671456473  L 2.96659548967634 1.31004776785714  C 2.94067818917411 1.14374505719866  3.02058987723214 0.979602133091518  3.16961437081473 0.897530671037947  C 3.55189461914063 0.685872681361607  3.96441171595982 0.515250422712054  4.39636679129464 0.392143229631696  C 4.55834994140625 0.346787950613839  4.73113197405134 0.405101886160714  4.830481640625 0.541167735770089  L 5.75270572684152 1.80247656529018  C 5.92332798549107 1.7916776827567  6.07667203962053 1.7916776827567  6.24945405970982 1.80247656529018  L 7.17167814592634 0.541167735770089  C 7.2710278125 0.405101886160714  7.44380984514509 0.346787950613839  7.6057929952567 0.392143229631697  C 8.03774807059152 0.515250422712054  8.45026516741071 0.685872681361607  8.83254541573661 0.897530671037947  C 8.97941014787947 0.979602133091518  9.0593218359375 1.14374506975446  9.03340452287947 1.31004776785714  L 8.79150968470982 2.85860671456473  C 8.91461687779018 2.96875526367188  9.03124474888393 3.08538313476562  9.14139329799107 3.20633055385045  L 10.6899522446987 2.9644357156808  C 10.8540951688058 2.93851841517857  11.0203978794643 3.01843010323661  11.1024693415179 3.16529482282366  C 11.3141273311942 3.54757507114955  11.4847495898437 3.96009216796875  11.6100165569196 4.39420701729911  C 11.6553718359375 4.55619016741071  11.5970579003906 4.7289722000558  11.4609920507813 4.82832186662947  L 10.1975234598214 5.75054594029018  C 10.204002781808 5.83693695033482  10.2061625558036 5.9190084249442  10.2061625558036 5.99892011300223  C 10.2061625558036 6.07883180106027  10.204002781808 6.16090326311384  10.1975234598214 6.24729428571428  L 11.4588322893415 7.1695183719308  C 11.5948981389509 7.26886803850446  11.6532120744978 7.44165007114955  11.6078567954799 7.60363322126116  C 11.4847496023996 8.03774807059152  11.31412734375 8.45026516741071  11.1003095800781 8.83254541573661  C 11.0182381180246 8.97941014787946  10.8562549679129 9.0593218359375  10.6877924832589 9.03340452287947  L 9.14139329799107 8.79366945870536  C 9.03340452287947 8.91677665178572  8.91461687779018 9.03340452287947  8.79150968470982 9.14139329799107  L 9.03340452287947 10.6899522446987  C 9.0593218233817 10.8562549553571  8.97941013532366 11.0203978794643  8.83254541573661 11.1024693415179  C 8.45242495396205 11.3141273311942  8.03990784458705 11.4847495898437  7.6057929952567 11.6078567829241  Z M 4.03568428292411 9.04204361886161  L 3.80458832728795 10.5279690945871  C 3.97953013392857 10.6122003306362  4.16311103655134 10.6877924707031  4.35101149972098 10.7525857282366  L 5.23651940290179 9.54095173828125  C 5.32075063895089 9.4243238671875  5.46329582310268 9.36169038364955  5.60584099469866 9.37896858816964  C 5.86501403738839 9.40920544921875  6.13498596261161 9.40920544921875  6.3919992313058 9.37896858816964  C 6.5410237374442 9.36169038364955  6.67708958705357 9.4243238671875  6.76132082310268 9.54095173828125  L 7.64682872628348 10.7525857282366  C 7.83472918945312 10.6877924707031  8.01831009207589 10.6122003306362  8.19325189871652 10.5279690945871  L 7.96215593052455 9.04204363141741  C 7.94055817801339 8.89949845982143  7.99671233956473 8.75479350167411  8.10902066266741 8.66624271763393  C 8.31419933035714 8.50209979352678  8.50209978097098 8.31635910435268  8.66408293108259 8.11118044921875  C 8.75479350167411 7.99887212611607  8.89517889927455 7.94055819056919  9.03988384486607 7.96431571707589  L 10.5258093080357 8.19541168526786  C 10.6100405440848 8.02046987862723  10.6856326841518 7.83688897600446  10.7504259416853 7.64898851283482  L 9.53879195172991 6.76348060965401  C 9.42216408063616 6.67924937360491  9.35953059709822 6.53670418945312  9.3768088016183 6.39415901785714  C 9.39192723214286 6.26457249023437  9.400566328125 6.13498597516741  9.400566328125 6.00107989955357  C 9.400566328125 5.86717382393973  9.39192723214286 5.73758730887277  9.3768088016183 5.60800078125  C 9.35953059709821 5.46545560965402  9.42216408063616 5.32291042550223  9.53879195172991 5.23867918945312  L 10.7504259416853 4.35317128627232  C 10.6856326841518 4.16527082310268  10.6100405440848 3.98168992047991  10.5258093080357 3.80674811383929  L 9.03988384486607 4.03784408203125  C 8.89733867327009 4.05944183454241  8.75263371512277 4.00328767299107  8.66408293108259 3.89097934988839  C 8.50209978097098 3.68796046875  8.31635909179688 3.50006000558036  8.10902066266741 3.33591708147321  C 7.99671233956473 3.2452065108817  7.94055817801339 3.10266133928571  7.96215593052455 2.96011616768973  L 8.19541167271205 1.47203090541295  C 8.02046986607143 1.38779966936384  7.83688896344866 1.31220752929688  7.64898850027902 1.24741427176339  L 6.76348059709821 2.45904826171875  C 6.67924936104911 2.5756761328125  6.5410237374442 2.64046939034598  6.39415900530134 2.62103141183036  C 6.13714573660714 2.59079455078125  5.86717381138393 2.59079455078125  5.6080007686942 2.62103141183036  C 5.46329582310268 2.63830961635045  5.32291041294643 2.5756761328125  5.23651940290179 2.45904826171875  L 4.35101149972098 1.24741427176339  C 4.16311103655134 1.31220752929688  3.97953013392857 1.38779966936384  3.80458832728795 1.47203090541295  L 4.03568429547991 2.95795636858259  C 4.05728204799107 3.10050154017857  4.00112788643973 3.24520649832589  3.88881956333705 3.33375728236607  C 3.68364089564732 3.49574043247768  3.49790021902902 3.68364089564732  3.33375729492187 3.88881955078125  C 3.24304672433036 4.00112787388393  3.10050155273437 4.05728203543527  2.95795638113839 4.03568428292411  L 1.47203090541295 3.80458832728795  C 1.38779966936384 3.97953013392857  1.31220752929688 4.16311103655134  1.24741427176339 4.35101149972098  L 2.45904826171875 5.23651940290179  C 2.5756761328125 5.32075063895089  2.63830961635045 5.46329582310268  2.62103141183036 5.6080007686942  C 2.6059129813058 5.73542752232143  2.59727388532366 5.86717381138393  2.59727388532366 5.99892011300223  C 2.59727388532366 6.13282618861607  2.6059129813058 6.26241270368303  2.62103141183036 6.3919992313058  C 2.63830961635045 6.53670417689732  2.5756761328125 6.67708958705357  2.45904826171875 6.76348059709821  L 1.24741427176339 7.64898850027902  C 1.31220752929688 7.83688896344866  1.38779966936384 8.02046986607143  1.47203090541295 8.19541167271205  L 2.95795636858259 7.96431570452009  C 3.10050154017857 7.94271795200893  3.24520649832589 7.99887211356027  3.33375728236607 8.11118043666295  C 3.49574043247768 8.31635910435268  3.68148112165179 8.50209978097098  3.88881955078125 8.66624270507812  C 4.00112787388393 8.75695327566964  4.0594418094308 8.89949844726562  4.03568428292411 9.04204361886161  Z " fill-rule="nonzero" fill="#333333" stroke="none" transform="matrix(1 0 0 1 336 734 )" />
  </g>
</svg>