<?xml version="1.0" encoding="utf-8"?>
<svg version="1.1" xmlns:xlink="http://www.w3.org/1999/xlink" width="11px" height="12px" xmlns="http://www.w3.org/2000/svg">
  <g transform="matrix(1 0 0 1 -159 -734 )">
    <path d="M 9.00066093640274 12  L 2.00006609243329 12  C 1.06001322090063 12  0.272637141195576 11.2904411743164  0.0879709236745084 10.3507352905273  C 0.085205346306168 10.3327329705811  0.0838163825017187 10.3145417812218  0.0838163825017187 10.2963234729312  C 0.0838163825017187 10.1006692697466  0.240582532019406 9.94202770745426  0.434038339404845 9.94191176757812  C 0.467481834840239 9.92867647705078  0.501652347041784 9.92867647705078  0.534368801571278 9.92867646484375  C 0.709439218054799 9.92890640730813  0.859479019537326 10.055308899014  0.891341710191362 10.2294117675781  C 1.00039656666959 10.7845588256836  1.45842696629213 11.1948529418945  2.00152016217521 11.1948529418945  L 9.00138796523876 11.1948529418945  C 9.63899536846032 11.1948529418945  10.1588235208919 10.6272058837891  10.1588235329617 9.92867646484375  L 10.1588235329617 6.03161765136719  C 10.1588235329617 5.33308824462891  9.6389953805302 4.76544118652344  9.00138796523876 4.76544117431641  L 8.21473892643961 4.76544117431641  L 8.21473892643961 3.44191176757812  C 8.21473892643961 1.81544117431641  7.16926635467872 0.804411767578125  5.48618637969628 0.804411767578125  C 3.82128221010358 0.804411767578125  2.78744216006847 1.81544117431641  2.78744217213834 3.44264705810547  L 2.78744217213834 4.76470588378906  L 2.00006609243329 4.76470588378906  C 1.3617316603757 4.76470588378906  0.841903495874298 5.33235294189453  0.841903507944171 6.03088234863281  L 0.841903507944172 8.38455882568359  C 0.841903507944172 8.5876046891954  0.679151764975157 8.75220588378907  0.478387315660113 8.75220588378907  L 0.410773295953301 8.75220588378907  C 0.210008846638256 8.75220588378907  0.0472571036692416 8.5876046891954  0.0472571036692415 8.38455882568359  L 0.0472571036692415 6.03161765136719  C 0.0472571036692415 4.89338236083984  0.918241897823034 3.96617647705078  1.99206873902739 3.96102940673828  L 1.99206873902739 3.44264705810547  C 1.99206873902739 1.38382353515625  3.39596827708041 0  5.48545935086025 0  C 7.59239920119382 0  9.00865828980864 1.38382353515625  9.00865828980864 3.44264705810547  L 9.00865828980864 3.96102940673828  C 10.0817580901071 3.96544117431641  10.9527428842609 4.89264705810547  10.9527428963308 6.03161765136719  L 10.9527428963308 9.92867646484375  C 10.9534699251668 11.0705882324219  10.0773959050211 11.9992646972656  9.00066093640274 11.9992647094727  Z " fill-rule="nonzero" fill="#555555" stroke="none" transform="matrix(1 0 0 1 159 734 )" />
  </g>
</svg>