<?xml version="1.0" encoding="utf-8"?>
<svg version="1.1" xmlns:xlink="http://www.w3.org/1999/xlink" width="7px" height="6px" xmlns="http://www.w3.org/2000/svg">
  <g transform="matrix(1 0 0 1 -161 -738 )">
    <path d="M 3.89156492482311 2.60656347039474  L 2.8271920050855 2.60656347039474  C 2.61265297948812 2.60656347039474  2.43873473614387 2.77289730914202  2.43873473614387 2.97808049753289  L 2.43873473614387 4.06068111019737  C 2.43873473614387 4.19591331414474  2.55371809404481 4.30588234786184  2.69511653338738 4.30588234786184  C 2.83748921378305 4.30588234786184  2.95227525427476 4.41566268132459  2.95227525427476 4.55108358552632  L 2.95227525427476 5.58241486430921  C 2.95227525427476 5.78759805270009  3.12619349761901 5.95393189144737  3.34073252321639 5.95393189144737  L 3.37647058520047 5.95393189144737  C 3.59100961079785 5.95393189144737  3.7649278541421 5.78759805270009  3.7649278541421 5.58241486430921  L 3.7649278541421 4.55182662828947  C 3.7649278541421 4.41585139391448  3.87991121204304 4.30588236019737  4.02208657502948 4.30588234786185  C 4.16488831848676 4.30588347026141  4.28002219376742 4.19577047074487  4.28002219376742 4.05993920216931  L 4.28002219376474 2.97808049753289  C 4.28002219376474 2.77289730914202  4.10610395042049 2.60656347039474  3.89156492482311 2.60656347039474  Z M 0.0442841317806602 0.0260061883223682  L 6.96970033903302 0.0260061883223682  L 6.96970033903302 0.831455106907894  L 0.0442841317806602 0.831455106907894  L 0.0442841317806602 0.0252631578947368  Z " fill-rule="nonzero" fill="#555555" stroke="none" transform="matrix(1 0 0 1 161 738 )" />
  </g>
</svg>