<?xml version="1.0" encoding="utf-8"?>
<svg version="1.1" xmlns:xlink="http://www.w3.org/1999/xlink" width="10px" height="10px" xmlns="http://www.w3.org/2000/svg">
  <g transform="matrix(1 0 0 1 -514 -738 )">
    <path d="M 8.20911949685535 9.10480182926829  C 8.12496421727274 9.59485870622947  7.68773953502785 9.9541215200547  7.17531446540881 9.95426829268293  L 1.09512578616352 9.95426829268293  C 0.516292103634155 9.95405787410265  0.0471697706316802 9.4990674511691  0.0471698113207547 8.93788109756098  L 0.0471698113207547 1.91120426829268  C 0.0471698113207547 1.40282012195122  0.432389937106918 0.981326219512195  0.935534591194969 0.906631097560975  C 0.927672955974843 0.957317073170731  0.923349056603773 1.00952743902439  0.923349056603773 1.06211890243902  L 0.923349056603773 8.08879573170732  C 0.923565993916685 8.64983326323917  1.39262481024387 9.10459150589785  1.97130503144654 9.10480182926829  L 8.20951257861635 9.10480182926829  Z M 1.79913522012579 1.06173780487805  C 1.79935225564255 0.50055149071848  2.26865055351112 0.0457316678685191  2.84748427672956 0.0457317073170732  L 8.92688679245283 0.0457317073170732  C 9.50587398891459 0.0457317073170732  9.9752358490566 0.500783754649876  9.9752358490566 1.06211890243902  L 9.9752358490566 7.23971036585366  C 9.97501881353984 7.80089668001323  9.50572051567127 8.25571650286319  8.92688679245283 8.25571646341464  L 2.84748427672956 8.25571646341464  C 2.2684970802678 8.25571646341464  1.79913522012579 7.80066441608183  1.79913522012579 7.23932926829268  L 1.79913522012579 1.06173780487805  Z " fill-rule="nonzero" fill="#7f7f7f" stroke="none" transform="matrix(1 0 0 1 514 738 )" />
  </g>
</svg>