<?xml version="1.0" encoding="utf-8"?>
<svg version="1.1" xmlns:xlink="http://www.w3.org/1999/xlink" width="13px" height="14px" xmlns="http://www.w3.org/2000/svg">
  <g transform="matrix(1 0 0 1 -224 -173 )">
    <path d="M 0 1.44444444986979  L 3.61111110546875 1.44444444986979  L 4.33333333333333 0.0555555501302084  L 8.66666666666667 0.0555555501302084  L 9.38888889453125 1.44444444986979  L 13 1.44444444986979  L 13 3  L 0 3  L 0 1.44444444986979  Z M 1.44444443880208 12.5555555501302  L 1.44444443880208 3.52777778320313  L 11.5555555611979 3.52777778320313  L 11.5555555611979 12.5555555501302  C 11.5555555611979 13.3226177159527  10.9088557579241 13.9444444498698  10.1111111223958 13.9444444498698  L 2.88888889453125 13.9444444498698  C 2.09114424207588 13.9444444498698  1.44444443880208 13.3226177159527  1.44444443880208 12.5555555664062  Z M 10.1111111054687 4.91666666666667  L 2.88888889453125 4.91666666666667  L 2.88888889453125 12.5555555501302  L 10.1111111054687 12.5555555501302  L 10.1111111054687 4.91666666666667  Z M 4.33333333333333 11.1666666666667  L 4.33333333333333 6.30555555013021  L 5.77777777213542 6.30555555013021  L 5.77777777213542 11.1666666666667  L 4.33333333333333 11.1666666666667  Z M 7.22222222786458 11.1666666666667  L 7.22222222786458 6.30555555013021  L 8.66666666666667 6.30555555013021  L 8.66666666666667 11.1666666666667  L 7.22222222786458 11.1666666666667  Z " fill-rule="nonzero" fill="#676a6c" stroke="none" transform="matrix(1 0 0 1 224 173 )" />
  </g>
</svg>