<?xml version="1.0" encoding="utf-8"?>
<svg version="1.1" xmlns:xlink="http://www.w3.org/1999/xlink" width="14px" height="12px" xmlns="http://www.w3.org/2000/svg">
  <g transform="matrix(1 0 0 1 -382 -517 )">
    <path d="M 13.9875 6  C 13.9875 6.28738911290323  13.74696875 6.52016129032258  13.45 6.52016129032258  L 0.55 6.52016129032258  C 0.25303125 6.52016129032258  0.0125 6.28738911290323  0.0125 6  C 0.0125 5.71261088709677  0.25303125 5.47983870967742  0.55 5.47983870967742  L 13.45 5.47983870967742  C 13.74696875 5.47983870967742  13.9875 5.71261088709677  13.9875 6  Z M 13.9875 0.798387096774194  C 13.9875 1.08577620967742  13.74696875 1.31854838709677  13.45 1.31854838709677  L 0.55 1.31854838709677  C 0.25303125 1.31854838709677  0.0125 1.08577620967742  0.0125 0.798387096774194  C 0.0125 0.510997983870968  0.25303125 0.278225806451613  0.55 0.278225806451613  L 13.45 0.278225806451613  C 13.74696875 0.278225806451613  13.9875 0.510997983870968  13.9875 0.798387096774194  Z M 0.0125 11.2016129032258  C 0.0125 10.9142237903226  0.25303125 10.6814516129032  0.55 10.6814516129032  L 13.45 10.6814516129032  C 13.74696875 10.6814516129032  13.9875 10.9142237903226  13.9875 11.2016129032258  C 13.9875 11.489002016129  13.74696875 11.7217741935484  13.45 11.7217741935484  L 0.55 11.7217741935484  C 0.25303125 11.7217741935484  0.0125 11.489002016129  0.0125 11.2016129032258  Z " fill-rule="nonzero" fill="#000000" stroke="none" transform="matrix(1 0 0 1 382 517 )" />
  </g>
</svg>