<?xml version="1.0" encoding="utf-8"?>
<svg version="1.1" xmlns:xlink="http://www.w3.org/1999/xlink" width="60px" height="20px" xmlns="http://www.w3.org/2000/svg">
  <g transform="matrix(1 0 0 1 -895 -262 )">
    <path d="M 896 266  A 3 3 0 0 1 899 263 L 951 263  A 3 3 0 0 1 954 266 L 954 278  A 3 3 0 0 1 951 281 L 899 281  A 3 3 0 0 1 896 278 L 896 266  Z " fill-rule="nonzero" fill="#f5f5f5" stroke="none" fill-opacity="0" />
    <path d="M 895.5 266  A 3.5 3.5 0 0 1 899 262.5 L 951 262.5  A 3.5 3.5 0 0 1 954.5 266 L 954.5 278  A 3.5 3.5 0 0 1 951 281.5 L 899 281.5  A 3.5 3.5 0 0 1 895.5 278 L 895.5 266  Z " stroke-width="1" stroke-dasharray="3,1" stroke="#d9d9d9" fill="none" stroke-dashoffset="0.5" />
  </g>
</svg>