<?xml version="1.0" encoding="utf-8"?>
<svg version="1.1" xmlns:xlink="http://www.w3.org/1999/xlink" width="6px" height="6px" xmlns="http://www.w3.org/2000/svg">
  <g transform="matrix(1 0 0 1 -450 -172 )">
    <path d="M 5.97222019708807 0.907630770596591  C 5.97222019708807 0.414340309836648  5.57231838600852 0.0144519087357955  5.07902792524858 0.0144519087357955  L 0.910824156605114 0.0144519087357955  C 0.41753369584517 0.0144519087357955  0.0176318847656251 0.414353719815341  0.0176318847656251 0.907644180575284  L 0.017631884765625 5.07584794921875  C 0.017631884765625 5.56913840997869  0.41753369584517 5.96902681107955  0.910824156605114 5.96902681107955  L 5.07902793856534 5.96902681107955  C 5.57231839932528 5.96902681107955  5.97222021040483 5.56913840997869  5.97222021040483 5.07584794921875  L 5.97222019708807 0.907630770596591  Z M 4.85573991477273 2.61957256747159  L 4.85573991477273 3.36387934570313  L 3.36707273171165 3.36387934570313  L 3.36707273171165 4.85254654208097  L 2.62276595348011 4.85254654208097  L 2.62276594016335 3.36387934570313  L 1.13412557705966 3.36387934570313  L 1.13412557705966 2.61957256747159  L 2.62276595348011 2.61957256747159  L 2.62276594016335 1.13093219105114  L 3.36707271839489 1.13093219105114  L 3.36707271839489 2.61957256747159  L 4.85573991477273 2.61957256747159  Z " fill-rule="nonzero" fill="#676a6c" stroke="none" transform="matrix(1 0 0 1 450 172 )" />
  </g>
</svg>