<?xml version="1.0" encoding="utf-8"?>
<svg version="1.1" xmlns:xlink="http://www.w3.org/1999/xlink" width="6px" height="6px" xmlns="http://www.w3.org/2000/svg">
  <g transform="matrix(1 0 0 1 -450 -180 )">
    <path d="M 5.97222019708807 0.919068097478692  C 5.97222019708807 0.42577763671875  5.57231838600852 0.0258758256392045  5.07902792524858 0.0258758256392045  L 0.910824156605114 0.0258758256392045  C 0.41753369584517 0.0258758256392045  0.0176318847656251 0.425764226740057  0.0176318847656251 0.9190546875  L 0.0176318847656251 5.08724505948153  C 0.0176318847656251 5.5805623268821  0.417533695845171 5.98042392134233  0.910824156605114 5.98042392134233  L 5.07902793856534 5.98042392134233  C 5.57231839932528 5.98042392134233  5.97222021040483 5.5805623268821  5.97222021040483 5.08724505948153  L 5.97222019708807 0.919068097478692  Z M 3.52122766779119 3.00315657848012  L 4.57387115145597 4.05580006214489  L 4.04755610795455 4.58214191228693  L 2.99492603426847 3.52949842862216  L 1.94228256392045 4.58214191228693  L 1.4159675337358 4.05580006214489  L 2.46859760742187 3.00315657848011  L 1.4159675337358 1.95051309481534  L 1.94228256392045 1.42422487127131  L 2.99491263760653 2.47685494495739  L 4.04754271129261 1.42422487127131  L 4.57385774147727 1.95051309481534  L 3.52122766779119 3.00315657848012  Z " fill-rule="nonzero" fill="#676a6c" stroke="none" transform="matrix(1 0 0 1 450 180 )" />
  </g>
</svg>