<?xml version="1.0" encoding="utf-8"?>
<svg version="1.1" xmlns:xlink="http://www.w3.org/1999/xlink" width="6px" height="6px" xmlns="http://www.w3.org/2000/svg">
  <g transform="matrix(1 0 0 1 -458 -180 )">
    <path d="M 5.98361729403409 0.919068097478692  C 5.98361729403409 0.42577763671875  5.58371548295455 0.0258758256392045  5.0904384321733 0.0258758256392045  L 0.92223466352983 0.0258758256392045  C 0.428944202769886 0.0258758256392045  0.0290423916903409 0.425764226740057  0.0290423916903409 0.9190546875  L 0.0290423916903409 5.08724505948153  C 0.0290423916903409 5.5805623268821  0.428944202769886 5.98042392134233  0.92223466352983 5.98042392134233  L 5.09043844549006 5.98042392134233  C 5.58371549627131 5.98042392134233  5.98361730735085 5.5805623268821  5.98361730735085 5.08724505948153  L 5.98361729403409 0.919068097478692  Z M 4.49500375088778 3.37533008256392  L 4.49500373757102 4.11965027077415  L 1.51770958806818 4.11965027077415  L 1.51770958806818 3.37533008256392  L 4.49500375088778 3.37533008256392  Z M 4.49500375088778 1.88668970614347  L 4.49500373757102 2.630996484375  L 1.51770958806818 2.630996484375  L 1.51770958806818 1.88668970614347  L 4.49500375088778 1.88668970614347  Z " fill-rule="nonzero" fill="#676a6c" stroke="none" transform="matrix(1 0 0 1 458 180 )" />
  </g>
</svg>