<?xml version="1.0" encoding="utf-8"?>
<svg version="1.1" xmlns:xlink="http://www.w3.org/1999/xlink" width="13px" height="15px" xmlns="http://www.w3.org/2000/svg">
  <g transform="matrix(1 0 0 1 -81 -1430 )">
    <path d="M 12.1354518457265 0.0734239026436141  C 12.1347456741144 0.0734239026436141  12.1340395027737 0.0734247929052851  12.1333333333333 0  L 0.907936507936508 0  C 0.443650793650794 0.0734265734265734  0.0619047619047621 0.461538461538461  0 0.933566433566433  L 0 14.1398601398601  C 0.0619047619047621 14.6118881118881  0.443650793650793 15  0.907936507936508 15  L 12.1436507936508 15  C 12.6079365079365 15  12.9896825396825 14.6118881118881  13 14.1398601398601  L 13 0.944055944055943  C 12.9896842909995 0.943337998793401  12.989685166659 0.942620051600036  12.989685166659 0.941902104129628  C 12.989685166659 0.462254837888428  12.6072318816748 0.0734239026436141  12.1354518457265 0.0734239026436141  Z M 5.92222222222222 12.1153846153846  C 5.92222222222222 12.4090909090909  5.6952380952381 12.6503496503496  5.40634920634921 12.6503496503496  L 2.44523809523809 12.6503496503496  C 2.15634920634921 12.6503496503496  1.91904761904762 12.4090909090909  1.91904761904762 12.1153846153846  C 1.91904761904762 11.8216783216783  2.15634920634921 11.5804195804196  2.44523809523809 11.5804195804196  L 5.39603174603175 11.5804195804196  C 5.68492063492064 11.5804195804196  5.92222222222222 11.8216783216783  5.92222222222222 12.1153846153846  Z M 8.45 9.51398601398602  C 8.45 9.80769230769231  8.22301587301587 10.048951048951  7.93412698412699 10.048951048951  L 2.44523809523809 10.048951048951  C 2.15634920634921 10.048951048951  1.91904761904762 9.80769230769231  1.91904761904762 9.51398601398602  C 1.91904761904762 9.22027972027972  2.15634920634921 8.97902097902098  2.44523809523809 8.97902097902098  L 7.92380952380952 8.97902097902098  C 8.21269841269841 8.97902097902098  8.45 9.22027972027972  8.45 9.51398601398602  Z M 10.5238095238095 6.44055944055944  C 10.5238095238095 6.44055944055944  10.534126984127 6.55594405594405  10.4619047619048 6.60839160839161  C 10.3793650793651 6.66083916083916  10.265873015873 6.61888111888112  10.265873015873 6.61888111888112  L 8.59444444444444 5.89510489510489  C 8.5015873015873 5.85314685314685  8.40873015873016 5.85314685314685  8.31587301587302 5.89510489510489  L 6.67539682539683 6.62937062937063  C 6.67539682539683 6.62937062937063  6.57222222222222 6.65034965034965  6.52063492063492 6.60839160839161  C 6.46904761904762 6.56643356643357  6.45873015873016 6.47202797202797  6.45873015873016 6.47202797202797  L 6.45873015873016 0.965034965034964  L 10.5238095238095 0.965034965034964  L 10.5238095238095 6.44055944055944  Z " fill-rule="nonzero" fill="#aab4c5" stroke="none" transform="matrix(1 0 0 1 81 1430 )" />
  </g>
</svg>