<?xml version="1.0" encoding="utf-8"?>
<svg version="1.1" xmlns:xlink="http://www.w3.org/1999/xlink" width="15px" height="15px" xmlns="http://www.w3.org/2000/svg">
  <g transform="matrix(1 0 0 1 -1448 -1433 )">
    <path d="M 14.53125 7.5  C 14.53125 3.62277595563616  11.3772240443638 0.46875  7.5 0.46875  C 3.62326192801339 0.46875  0.46875 3.62277595563616  0.46875 7.5  C 0.46875 11.3772240443638  3.62277595563616 14.53125  7.5 14.53125  C 11.3767380719866 14.53125  14.53125 11.3772240443638  14.53125 7.5  Z M 8.2116698992048 7.50199786376953  L 10.3682510794503 9.66562553362165  C 10.5641222900391 9.86249566824777  10.5636093226842 10.1799123308454  10.3672521554129 10.3757835414341  C 10.2693300554548 10.4732196847098  10.1412510654994 10.522437210519  10.0126861188616 10.522437210519  C 9.88360820486886 10.522437210519  9.75504325823103 10.4732196690151  9.65709414760045 10.374784601702  L 7.49748918457031 8.20864610072544  L 5.33086471121652 10.3521872000558  C 5.23294261125837 10.4486244035993  5.10534959368025 10.4973289777483  4.9777835710798 10.4973289777483  C 4.84821968470982 10.4973289777483  4.71914178641183 10.4475984845843  4.62070670340402 10.3481644775391  C 4.42583441685268 10.150781375558  4.42734630824498 9.83336471296038  4.62472942592076 9.63800646972656  L 6.78884306815011 7.49748916887556  L 4.63274786028181 5.33437445068359  C 4.43687664969308 5.13799027273995  4.43738961704799 4.82008765345982  4.6337467843192 4.62421644287109  C 4.83013096226284 4.42783226492745  5.14752061418806 4.42885819963728  5.3439047921317 4.62521536690848  L 7.50299678780692 6.79084090053013  L 9.66962126116072 4.64732679617745  C 9.86649139578683 4.45196855294364  10.1849069824219 4.45396640101841  10.3797792689732 4.65134951869419  C 10.575137512207 4.84873262067522  10.5731396641323 5.16663523995536  10.3757565464565 5.3615075265067  L 8.2116698992048 7.50199786376953  Z " fill-rule="nonzero" fill="#aab4c5" stroke="none" transform="matrix(1 0 0 1 1448 1433 )" />
  </g>
</svg>