<?xml version="1.0" encoding="utf-8"?>
<svg version="1.1" xmlns:xlink="http://www.w3.org/1999/xlink" width="10px" height="11px" xmlns="http://www.w3.org/2000/svg">
  <g transform="matrix(1 0 0 1 -524 89 )">
    <path d="M 0.449360351562501 4.6998291015625  C 0.266547851562501 4.883125  0.266547851562501 5.179375  0.449814453125 5.3626416015625  C 0.6331103515625 5.5459375  0.9293310546875 5.5459375  1.112626953125 5.3626416015625  L 4.531220703125 1.9440478515625  L 4.531220703125 10.1874853515625  C 4.531220703125 10.44625  4.741220703125 10.65625  4.9999853515625 10.65625  C 5.25875 10.65625  5.46875 10.44625  5.46875 10.1874853515625  L 5.46875 1.9440478515625  L 8.88734375 5.3626416015625  C 9.0706396484375 5.5459375  9.3668603515625 5.5459375  9.55015625 5.3626416015625  C 9.7334521484375 5.179345703125  9.7334521484375 4.883125  9.55015625 4.6998291015625  L 5.3313916015625 0.481533203124999  C 5.28828125 0.437939453124999  5.23625 0.403720703124999  5.17859375 0.379814453124999  C 5.121875 0.355908203124999  5.0609375 0.3437353515625  4.9999853515625 0.3437353515625  C 4.9390625 0.3437353515625  4.878095703125 0.3559375  4.8209228515625 0.379814453124999  C 4.7632666015625 0.403720703124999  4.71171875 0.437939453124999  4.668125 0.481533203124999  L 0.449360351562501 4.6998291015625  Z " fill-rule="nonzero" fill="#272636" stroke="none" transform="matrix(1 0 0 1 524 -89 )" />
  </g>
</svg>