<?xml version="1.0" encoding="utf-8"?>
<svg version="1.1" xmlns:xlink="http://www.w3.org/1999/xlink" width="12px" height="12px" xmlns="http://www.w3.org/2000/svg">
  <g transform="matrix(1 0 0 1 -80 -515 )">
    <path d="M 5.33978365384615 0.850135216346154  C 5.33979867788462 0.412575120192308  4.98508112980769 0.057872596153846  4.54753605769231 0.0578725961538463  L 0.850300480769231 0.0578725961538463  C 0.412740384615385 0.0578725961538463  0.0580528846153848 0.412590144230769  0.0580528846153848 0.850135216346154  L 0.0580528846153848 4.54737079326923  C 0.0580528846153848 4.98490084134615  0.412755408653847 5.33963341346154  0.850300480769231 5.33963341346154  L 4.54753605769231 5.33963341346154  C 4.98508112980769 5.33963341346154  5.33978365384615 4.98488581730769  5.33978365384615 4.54737079326923  L 5.33978365384615 0.850135216346154  Z M 4.34945913461538 3.02883112980769  L 3.02902644230769 3.02883112980769  L 3.02902644230769 4.34929387019231  L 2.36881009615384 4.34929387019231  L 2.36881009615384 3.02883112980769  L 1.04839242788461 3.02883112980769  L 1.04839242788461 2.36861478365385  L 2.36882512019231 2.36861478365385  L 2.36882512019231 1.04819711538461  L 3.02905649038461 1.04819711538461  L 3.02905649038461 2.36862980769231  L 4.34950420673077 2.36862980769231  L 4.34950420673077 3.02883112980769  Z M 11.1497295673077 0.0578725961538463  L 7.45249399038462 0.0578725961538463  C 7.01494891826923 0.0578725961538463  6.66024639423077 0.412590144230769  6.66024639423077 0.850135216346154  L 6.66024639423077 4.54737079326923  C 6.66024639423077 4.98490084134615  7.01494891826923 5.33963341346154  7.45249399038462 5.33963341346154  L 11.1497145432692 5.33963341346154  C 11.5872746394231 5.33963341346154  11.9419771634615 4.98488581730769  11.9419771634615 4.54737079326923  L 11.9419771634615 0.850135216346154  C 11.9419921875 0.412575120192308  11.5872896634615 0.057872596153846  11.1497145432692 0.057872596153846  Z M 10.9516676682692 2.36861478365385  L 10.9516676682692 3.02883112980769  L 7.65054086538461 3.02883112980769  L 7.65054086538461 2.36861478365385  L 10.9516676682692 2.36861478365385  Z M 5.33978365384615 7.45234375  C 5.33979867788462 7.01475360576923  4.98508112980769 6.66009615384615  4.54753605769231 6.66009615384615  L 0.850300480769231 6.66009615384615  C 0.412740384615385 6.66009615384615  0.0580528846153848 7.01476862980769  0.0580528846153848 7.45234375  L 0.0580528846153848 11.1495492788462  C 0.0580528846153848 11.5871243990385  0.412755408653847 11.941796875  0.850300480769231 11.941796875  L 4.54753605769231 11.941796875  C 4.98508112980769 11.941796875  5.33978365384615 11.587109375  5.33978365384615 11.1495492788462  L 5.33978365384615 7.45234375  Z M 3.16573016826923 9.30094651442307  L 4.09942908653846 10.2346454326923  L 3.63260216346154 10.7015024038462  L 2.69890324519231 9.76780348557692  L 1.76520432692308 10.7015024038462  L 1.29837740384615 10.2346454326923  L 2.23207632211538 9.30094651442307  L 1.29837740384615 8.36724759615384  L 1.76520432692308 7.90040564903846  L 2.69890324519231 8.83410456730769  L 3.63260216346154 7.90040564903846  L 4.09942908653846 8.36724759615384  L 3.16573016826923 9.30094651442307  Z M 11.1497295673077 6.66009615384615  L 7.45249399038462 6.66009615384615  C 7.01494891826923 6.66009615384615  6.66024639423077 7.01476862980769  6.66024639423077 7.45234375  L 6.66024639423077 11.1495492788462  C 6.66024639423077 11.5871243990385  7.01494891826923 11.941796875  7.45249399038462 11.941796875  L 11.1497145432692 11.941796875  C 11.5872746394231 11.941796875  11.9419771634615 11.587109375  11.9419771634615 11.1495492788462  L 11.9419771634615 7.45234375  C 11.9419921875 7.01475360576923  11.5872896634615 6.66009615384615  11.1497145432692 6.66009615384615  Z M 10.6215895432692 9.63106971153846  L 10.6215895432692 10.2912860576923  L 7.98067908653846 10.2912860576923  L 7.98067908653846 9.63106971153846  L 10.6215895432692 9.63106971153846  Z M 10.6215895432692 8.31062199519231  L 10.6215895432692 8.97082331730769  L 7.98067908653846 8.97082331730769  L 7.98067908653846 8.31062199519231  L 10.6215895432692 8.31062199519231  Z " fill-rule="nonzero" fill="#555555" stroke="none" transform="matrix(1 0 0 1 80 515 )" />
  </g>
</svg>