<?xml version="1.0" encoding="utf-8"?>
<svg version="1.1" xmlns:xlink="http://www.w3.org/1999/xlink" width="15px" height="14px" xmlns="http://www.w3.org/2000/svg">
  <g transform="matrix(1 0 0 1 -190 -1488 )">
    <path d="M 0.1240234375 13.272072078125  C 0.1240234375 12.8700901054687  0.5941135234375 12.54414415625  1.17393335351563 12.5441441425781  L 13.8344738925781 12.5441441425781  C 14.4142937089844 12.5441441425781  14.8843838085937 12.8700900917969  14.8843837949219 13.272072078125  C 14.88438378125 13.6740540644531  14.4142937089844 14  13.8344738925781 14  L 1.17393335351563 14  C 0.5941135234375 14  0.1240234375 13.6740540507813  0.1240234375 13.272072078125  Z M 6.81231172851562 1.11261260742187  C 6.81231172851562 0.498198203125  7.13825767773437 0  7.54023965039063 0  C 7.94222163671875 0  8.2681675859375 0.498198203125  8.2681675859375 1.11261260742187  L 8.2681675859375 9.75585585351563  C 8.2681675859375 10.3702702714844  7.94222163671875 10.8684684609375  7.54023965039062 10.8684684746094  C 7.1382576640625 10.8684684882813  6.81231172851562 10.3702702714844  6.81231172851562 9.75585585351563  L 6.81231172851562 1.11261260742187  Z " fill-rule="nonzero" fill="#000000" stroke="none" transform="matrix(1 0 0 1 190 1488 )" />
  </g>
</svg>