<?xml version="1.0" encoding="utf-8"?>
<svg version="1.1" xmlns:xlink="http://www.w3.org/1999/xlink" width="12px" height="7px" xmlns="http://www.w3.org/2000/svg">
  <g transform="matrix(1 0 0 1 -192 -1494 )">
    <path d="M 5.54023965722656 4.4296065622243  C 5.73544584327272 4.4296065622243  5.92176154667308 4.34799111015137  6.05411353320313 4.20450450195312  L 9.80510452148438 0.333153148437501  C 9.9376096287704 0.189732352789067  10.1239967141341 0.108175025450092  10.3192584054135 0.108175025450092  C 10.5457723690439 0.108175025450092  10.758285067348 0.217781795619139  10.8896090253906 0.402342337890625  C 11.0983622807951 0.692254696657161  11.0693654448083 1.09008826456786  10.8207801992187 1.34666666015625  L 6.04204145898438 6.2320720703125  C 5.91042678718714 6.36789857114341  5.72937257387584 6.44456932765283  5.54023965722656 6.44456932765283  C 5.35110674057728 6.44456932765283  5.17005252726599 6.36789857114341  5.03843785546875 6.2320720703125  L 0.259879296875 1.34666666015625  C 0.0112940512854283 1.09008826456786  -0.01770278470135 0.692254696657161  0.191050470703125 0.402342337890625  C 0.322374428745772 0.217781795619139  0.534887127049872 0.108175025450094  0.761401090680223 0.108175025450094  C 0.956662781959669 0.108175025450094  1.14304986732335 0.189732352789067  1.27555497460938 0.333153148437499  L 5.02636578125 4.20450450195312  C 5.15871776778004 4.34799111015137  5.34503347118041 4.4296065622243  5.54023965722656 4.4296065622243  Z " fill-rule="nonzero" fill="#000000" stroke="none" transform="matrix(1 0 0 1 192 1494 )" />
  </g>
</svg>