<?xml version="1.0" encoding="utf-8"?>
<svg version="1.1" xmlns:xlink="http://www.w3.org/1999/xlink" width="15px" height="12px" xmlns="http://www.w3.org/2000/svg">
  <g transform="matrix(1 0 0 1 -231 -515 )">
    <path d="M 8.05900621118012 8.50746268656716  C 7.36024844720497 8.50746268656716  7.01086956521739 8.17164179104477  7.01086956521739 7.83582089552239  C 7.01086956521739 7.5  7.36024844720497 7.16417910447761  7.70962732919254 7.16417910447761  L 8.75776397515528 7.16417910447761  L 8.75776397515528 1.67910447761194  L 1.42080745341615 1.67910447761194  L 1.42080745341615 7.16417910447761  L 3.63354037267081 7.16417910447761  C 3.98291925465838 7.16417910447761  4.33229813664596 7.5  4.33229813664596 7.83582089552239  C 4.33229813664596 8.17164179104477  3.98291925465838 8.50746268656716  3.63354037267081 8.50746268656716  C 3.40062111801242 8.50746268656716  1.07142857142857 8.50746268656716  0.954968944099378 8.3955223880597  C 0.838509316770186 8.28358208955224  0.605590062111801 8.28358208955224  0.489130434782608 8.05970149253731  C 0.372670807453416 7.94776119402985  0.256211180124223 7.83582089552239  0.139751552795031 7.61194029850746  C 0.0232919254658382 7.5  0.0232919254658382 7.27611940298507  0.0232919254658382 7.05223880597015  L 0.0232919254658382 1.45522388059701  C 0.0232919254658382 1.23134328358209  0.0232919254658382 1.11940298507463  0.139751552795031 0.895522388059701  C 0.256211180124223 0.783582089552238  0.256211180124223 0.559701492537313  0.489130434782608 0.44776119402985  C 0.605590062111801 0.335820895522387  0.722049689440994 0.223880597014925  0.954968944099378 0.111940298507463  C 1.07142857142857 0  1.30434782608696 0  1.53726708074534 0  L 8.99068322981367 0  C 9.22360248447205 0  9.34006211180124 0  9.57298136645963 0.111940298507463  C 9.68944099378882 0.223880597014925  9.92236024844721 0.223880597014925  10.0388198757764 0.44776119402985  C 10.1552795031056 0.559701492537313  10.2717391304348 0.671641791044776  10.388198757764 0.895522388059701  C 10.5046583850932 1.00746268656716  10.5046583850932 1.23134328358209  10.5046583850932 1.45522388059701  L 10.5046583850932 7.05223880597015  C 10.5046583850932 7.27611940298507  10.5046583850932 7.38805970149254  10.388198757764 7.61194029850746  C 10.2717391304348 7.72388059701492  10.2717391304348 7.94776119402985  10.0388198757764 8.05970149253731  C 9.92236024844721 8.17164179104477  9.80590062111802 8.28358208955224  9.57298136645963 8.3955223880597  C 9.45652173913044 8.50746268656716  8.17546583850932 8.50746268656716  8.05900621118012 8.50746268656716  Z M 13.416149068323 11.9776119402985  L 6.19565217391304 11.9776119402985  C 5.96273291925466 11.9776119402985  5.84627329192547 11.9776119402985  5.61335403726708 11.865671641791  C 5.49689440993789 11.7537313432836  5.2639751552795 11.7537313432836  5.14751552795031 11.5298507462687  C 5.03105590062112 11.4179104477612  4.91459627329192 11.3059701492537  4.79813664596273 11.0820895522388  C 4.68167701863354 10.9701492537313  4.68167701863354 10.7462686567164  4.68167701863354 10.5223880597015  L 4.68167701863354 4.92537313432836  C 4.68167701863354 4.70149253731343  4.68167701863354 4.58955223880597  4.79813664596273 4.36567164179104  C 4.91459627329192 4.25373134328358  4.91459627329192 4.02985074626866  5.14751552795031 3.91791044776119  C 5.2639751552795 3.80597014925373  5.38043478260869 3.69402985074627  5.61335403726708 3.58208955223881  C 5.72981366459627 3.47014925373134  7.01086956521739 3.47014925373134  7.12732919254658 3.47014925373134  C 7.47670807453416 3.47014925373134  7.82608695652174 3.80597014925373  7.82608695652174 4.14179104477612  C 7.82608695652174 4.47761194029851  7.47670807453416 4.81343283582089  7.12732919254658 4.81343283582089  L 6.19565217391304 4.81343283582089  L 6.19565217391304 10.2985074626866  L 13.5326086956522 10.2985074626866  L 13.5326086956522 4.8134328358209  L 11.3198757763975 4.8134328358209  C 10.9704968944099 4.8134328358209  10.6211180124224 4.47761194029851  10.6211180124224 4.14179104477612  C 10.6211180124224 3.80597014925373  10.9704968944099 3.47014925373134  11.3198757763975 3.47014925373134  C 11.5527950310559 3.47014925373134  13.8819875776398 3.47014925373134  13.9984472049689 3.58208955223881  C 14.1149068322981 3.69402985074627  14.3478260869565 3.69402985074627  14.4642857142857 3.9179104477612  C 14.5807453416149 4.02985074626866  14.6972049689441 4.14179104477612  14.8136645962733 4.36567164179105  C 14.9301242236025 4.47761194029851  14.9301242236025 4.70149253731343  14.9301242236025 4.92537313432836  L 14.9301242236025 10.5223880597015  C 14.9301242236025 10.7462686567164  14.9301242236025 10.8582089552239  14.8136645962733 11.0820895522388  C 14.6972049689441 11.1940298507463  14.6972049689441 11.4179104477612  14.4642857142857 11.5298507462687  C 14.3478260869565 11.6417910447761  14.2313664596273 11.7537313432836  13.9984472049689 11.865671641791  C 13.8819875776397 11.9776119402985  13.6490683229814 11.9776119402985  13.416149068323 11.9776119402985  Z " fill-rule="nonzero" fill="#555555" stroke="none" transform="matrix(1 0 0 1 231 515 )" />
  </g>
</svg>