<?xml version="1.0" encoding="utf-8"?>
<svg version="1.1" xmlns:xlink="http://www.w3.org/1999/xlink" width="14px" height="14px" xmlns="http://www.w3.org/2000/svg">
  <g transform="matrix(1 0 0 1 -152 -304 )">
    <path d="M 13.5334464501953 7  C 13.5334464501953 3.39766161132813  10.6028171582031 0.466553549804688  7 0.466553549804688  C 3.39766161132813 0.466553549804688  0.466553549804687 3.39763640136719  0.466553549804687 7  C 0.466553549804687 10.6028171582031  3.39718282714844 13.5334464501953  7 13.5334464501953  C 10.6028171728516 13.5334464501953  13.5334464501953 10.6028171582031  13.5334464501953 7  Z M 10.1494758642578 5.25907975585938  C 10.3328181689453 5.44141413085937  10.3346828417969 5.7381232421875  10.1528020410156 5.92234747070312  L 6.39952626953125 9.71639395996094  C 6.39859394042969 9.7173262890625  6.39670407226563 9.71780505859375  6.39577172851562 9.71921615722656  C 6.39436062988281 9.72014848632812  6.39436062988281 9.72203835449219  6.39294953125 9.72297069824219  C 6.36293844238281 9.75202424804688  6.32592225097656 9.76983939941406  6.29122429199219 9.78954440429688  C 6.27388791015625 9.7993969140625  6.25982729980469 9.81438985351562  6.24153339355469 9.82142016601563  C 6.18529095214844 9.8439221875  6.12574754394531 9.85563935546875  6.06622933105469 9.85563935546875  C 6.00623234863281 9.85563935546875  5.94575661132813 9.8439221875  5.88903540039063 9.82048783691406  C 5.87028791992188 9.8125251953125  5.85529498046875 9.79657471679688  5.83747982910156 9.78674741699219  C 5.80278187011719 9.76706760742188  5.7666980078125 9.74970603027344  5.73668691894531 9.7201737109375  C 5.73575458984375 9.71924138183594  5.7352758203125 9.71735151367188  5.73434349121094 9.71641916992188  C 5.73341116210938 9.71500807128906  5.73152129394531 9.71500807128906  5.73058895019531 9.71359697265625  L 3.8846425 7.81657372070313  C 3.70417279785156 7.63093839355469  3.70838091308594 7.33422928222656  3.89401624023438 7.15375958007812  C 4.07965156738281 6.97376864746094  4.37588192382813 6.97704441894531  4.55683038085938 7.1631333203125  L 6.06947989257813 8.71751108886719  L 9.48666172363281 5.262834296875  C 9.66854252441406 5.07861006835938  9.965730390625 5.07674539550781  10.1494758642578 5.25907975585938  Z " fill-rule="nonzero" fill="#7f7f7f" stroke="none" transform="matrix(1 0 0 1 152 304 )" />
  </g>
</svg>