<?xml version="1.0" encoding="utf-8"?>
<svg version="1.1" xmlns:xlink="http://www.w3.org/1999/xlink" width="14px" height="14px" xmlns="http://www.w3.org/2000/svg">
  <g transform="matrix(1 0 0 1 -79 -304 )">
    <path d="M 14 7  C 14 3.13403125  10.86596875 0  7 0  C 3.13403125 0  0 3.13403125  0 7  C 0 10.86596875  3.13403125 14  7 14  C 10.86596875 14  14 10.86596875  14 7  Z M 11.02171875 11.02171875  C 9.9925 12.0509375  8.570625 12.6875  7 12.6875  C 3.85896875 12.6875  1.3125 10.14103125  1.3125 7  C 1.3125 3.85896875  3.85896875 1.3125  7 1.3125  L 7 7  L 11.02171875 11.02171875  Z " fill-rule="nonzero" fill="#7f7f7f" stroke="none" transform="matrix(1 0 0 1 79 304 )" />
  </g>
</svg>