<?xml version="1.0" encoding="utf-8"?>
<svg version="1.1" xmlns:xlink="http://www.w3.org/1999/xlink" width="14px" height="12px" xmlns="http://www.w3.org/2000/svg">
  <g transform="matrix(1 0 0 1 -380 -305 )">
    <path d="M 3.15368421052632 5.01264705882353  L 2.32934210526316 4.80088235294118  C 2.21962011121487 5.19250356471005  2.16404671537121 5.59623058296725  2.16404671537121 6.00171260417283  C 2.16404671537121 8.56009048941842  4.32898558954468 10.6340655453493  6.99957303116069 10.6340655453493  C 7.21070034693076 10.6340655453493  7.42160102494462 10.620819270808  7.63092105263158 10.5944117647059  C 7.65779184940695 10.5913738380112  7.68482575270292 10.5898509387766  7.71188302589818 10.5898509387766  C 8.09339551755761 10.5898509387766  8.4026724995824 10.8861330896238  8.4026724995824 11.2516156446589  C 8.4026724995824 11.5802551845239  8.15091895742623 11.8591033642688  7.81144736842105 11.9064705882353  C 7.54235540350076 11.9404144505635  7.27123195120835 11.9574410243167  6.9998172192441 11.9574410243167  C 3.56620479430923 11.9574410243167  0.782711956086206 9.29090166669124  0.782711956086206 6.00155867137549  C 0.782711956086206 5.48084080004282  0.853994676326572 4.96237134779279  0.994736842105264 4.45941176470588  L 0.170394736842106 4.24764705882353  C 0.089449225757439 4.22725901592299  0.0330250433022108 4.15715676481137  0.0330250433022108 4.07697688988841  C 0.0330250433022108 4.03347090508241  0.0498008793818114 3.99149822950574  0.0801315789473688 3.95911764705883  L 2.37078947368421 1.485  C 2.40576043473506 1.44696589317202  2.45611404211814 1.42517275636491  2.50902187058404 1.42517275636491  C 2.59648808472558 1.42517275636491  2.67189481609271 1.48409501924787  2.68947368421053 1.56617647058824  L 3.38118421052632 4.80705882352941  C 3.38360964293701 4.81856109840694  3.38483143060265 4.83026645044465  3.38483143060265 4.84200106116455  C 3.38483143060265 4.93946307584057  3.30235756872937 5.01847164939984  3.20062090428686 5.01847164939984  C 3.18477898836065 5.01847164939984  3.16900324796531 5.01651396509191  3.15368421052632 5.01264705882353  Z M 10.8453947368421 6.98823529411765  L 11.6697368421053 7.2  C 11.7794588361536 6.80837878823113  11.8350322319972 6.40465176997393  11.8350322319972 5.99916974876835  C 11.8350322319972 3.44079186352276  9.67009335782375 1.36681680759188  6.99950591620774 1.36681680759188  C 6.78837860043767 1.36681680759188  6.57747792242379 1.38006308213318  6.36815789473684 1.40647058823529  C 6.33518715726595 1.41107106838357  6.30191218346074 1.41338035054128  6.26859355221397 1.41338035054128  C 5.88708106055454 1.41338035054128  5.57780407852976 1.11709819969401  5.57780407852976 0.751615644658926  C 5.57780407852976 0.416135667075958  5.83985107453006 0.133730720786223  6.18763157894737 0.094411764705882  C 6.45672354386766 0.0604679023776495  6.72784699616007 0.0434413286245133  6.99926172812432 0.0434413286245133  C 10.4328741530592 0.0434413286245133  13.2163669912822 2.70998068624993  13.2163669912822 5.99932368156569  C 13.2163669912822 6.52004155289836  13.1450842710418 7.03851100514839  13.0043421052632 7.5414705882353  L 13.8286842105263 7.75323529411765  C 13.909629721611 7.77362333701819  13.9660539040662 7.84372558812981  13.9660539040662 7.92390546305277  C 13.9660539040662 7.96741144785877  13.9492780679866 8.00938412343544  13.9189473684211 8.04176470588235  L 11.6282894736842 10.5158823529412  C 11.5933185126334 10.5539164597692  11.5429649052503 10.5757095965763  11.4900570767844 10.5757095965763  C 11.4025908626428 10.5757095965763  11.3271841312757 10.5167873336933  11.3096052631579 10.4347058823529  L 10.6178947368421 7.19382352941176  C 10.6154693044314 7.18232125453424  10.6142475167658 7.17061590249653  10.6142475167658 7.15888129177663  C 10.6142475167658 7.06141927710061  10.696721378639 6.98241070354134  10.7984580430816 6.98241070354134  C 10.8142999590078 6.98241070354134  10.8300756994031 6.98436838784927  10.8453947368421 6.98823529411765  Z " fill-rule="nonzero" fill="#7f7f7f" stroke="none" transform="matrix(1 0 0 1 380 305 )" />
  </g>
</svg>