<?xml version="1.0" encoding="utf-8"?>
<svg version="1.1" xmlns:xlink="http://www.w3.org/1999/xlink" width="13px" height="12px" xmlns="http://www.w3.org/2000/svg">
  <g transform="matrix(1 0 0 1 -301 -305 )">
    <path d="M 10.8411475409835 5.10035087719302  L 11.3540437158472 5.60701754385968  C 11.1633903442425 2.84567571008097  8.8403112497972 0.702002078648775  6.03852426452659 0.702002078648775  C 3.09602354821482 0.702002078648775  0.710655412067808 3.05839813217085  0.710655412067808 5.96515997338565  C 0.710655412067808 8.87192181460023  3.09602354821482 11.2283178681223  6.03852426452659 11.2283178681223  C 7.20797144942753 11.2283178681223  8.34493398193763 10.8482253025227  9.2740437158468 10.1466666666668  C 9.33603003565941 10.0997775768492  9.41192768381461 10.0743684214913  9.48999999999978 10.0743684214913  C 9.68617652251123 10.0743684214913  9.84520901594942 10.2314693461831  9.84520901594942 10.4252631578947  C 9.84520901594942 10.5344757743173  9.79373287866065 10.6374616981525  9.70595628415322 10.7038596491227  C 8.6529374060342 11.4990352586726  7.36431694719386 11.9298514545055  6.03887473506666 11.9298514545055  C 2.70404058991335 11.9298514545055  0.000623368946435221 9.25926926051375  0.000623368946435221 5.96493917380371  C 0.000623368946435221 2.67060908709368  2.70404058991335 2.68931019036245E-05  6.03887473506666 2.68931019036245E-05  C 9.15025911362955 2.68931019036245E-05  11.7522654494328 2.33555151648238  12.0495081967215 5.39508771929832  L 12.3478688524592 5.10035087719302  C 12.4140903902048 5.03716880472189  12.5025590337023 5.00185551078152  12.5946244078018 5.00185551078152  C 12.7907911222223 5.00185551078152  12.9498156646323 5.15894858101638  12.9498156646323 5.3527327037641  C 12.9498156646323 5.44367987493911  12.9140681908484 5.53107400049953  12.8501092896176 5.59649122807014  L 11.8456284153003 6.58877192982459  C 11.7792065616009 6.6548971350976  11.6888087161155 6.69208907032043  11.5945081967211 6.69208907032043  C 11.5002076773271 6.69208907032043  11.4098098318418 6.6548971350976  11.3433879781419 6.58877192982459  L 10.338907103825 5.59649122807014  C 10.2749482025943 5.53107400049953  10.2392007288104 5.44367987493911  10.2392007288104 5.3527327037641  C 10.2392007288104 5.15894858101638  10.3982252712203 5.00185551078152  10.5943919856409 5.00185551078152  C 10.6864573597404 5.00185551078152  10.7749260032379 5.03716880472189  10.8411475409835 5.10035087719302  Z M 5.76830601092888 3.74736842105267  L 8.23120218579243 5.57192982456149  C 8.35641711302014 5.66470039817546  8.43010928961758 5.8102946580118  8.43010928961758 5.96491228070181  C 8.43010928961758 6.11952990339159  8.35641711302014 6.26512416322817  8.23120218579243 6.35789473684213  L 5.76830601092888 8.18245614035095  C 5.6822308658634 8.24622841382052  5.57753928652346 8.28070175438597  5.46994535519116 8.28070175438597  C 5.19531195500213 8.28070175438597  4.97267759562828 8.06077145605718  4.97267759562828 7.78947368421063  L 4.97267759562828 4.14035087719299  C 4.97267759562828 3.86905310534621  5.19531195500213 3.64912280701765  5.46994535519116 3.64912280701765  C 5.57753928652346 3.64912280701765  5.6822308658634 3.68359614758288  5.76830601092888 3.74736842105267  Z M 5.68306010928973 7.36842105263167  L 5.68306010928973 4.56140350877195  L 5.68306010928973 7.36842105263167  Z " fill-rule="nonzero" fill="#7f7f7f" stroke="none" transform="matrix(1 0 0 1 301 305 )" />
  </g>
</svg>