<?xml version="1.0" encoding="utf-8"?>
<svg version="1.1" xmlns:xlink="http://www.w3.org/1999/xlink" width="14px" height="4px" xmlns="http://www.w3.org/2000/svg">
  <g transform="matrix(1 0 0 1 -890 -598 )">
    <path d="M 3.71783135253906 1.99832017578125  C 3.71783135253906 3.03309255859375  2.98290777832031 3.87300521484375  2.07748194335937 3.87300521484375  C 1.17205610839844 3.87300521484375  0.437132534179687 3.03309255859375  0.437132534179687 1.99832017578125  C 0.437132534179687 0.963547792968749  1.17205610839844 0.12363513671875  2.07748194335937 0.12363513671875  C 2.98290777832031 0.12363513671875  3.71783135253906 0.96354779296875  3.71783135253906 1.99832017578125  Z M 8.63887956298828 1.99832017578125  C 8.63887956298828 3.03309255859375  7.90395598876953 3.87300521484375  6.99853015380859 3.87300521484375  C 6.09310431884766 3.87300521484375  5.35818074462891 3.03309255859375  5.35818074462891 1.99832017578125  C 5.35818074462891 0.963547792968749  6.09310431884766 0.12363513671875  6.99853015380859 0.12363513671875  C 7.90395598876953 0.12363513671875  8.63887956298828 0.96354779296875  8.63887956298828 1.99832017578125  Z M 13.5628674658203 1.99832017578125  C 13.5628674658203 3.03309255859375  12.8250041992187 3.87300521484375  11.9225180566406 3.87300521484375  C 11.0170922216797 3.87300521484375  10.2821686474609 3.03309255859375  10.2821686474609 1.99832017578125  C 10.2821686474609 0.963547792968749  11.0170922216797 0.12363513671875  11.9225180566406 0.12363513671875  C 12.8279438916016 0.12363513671875  13.5628674658203 0.96354779296875  13.5628674658203 1.99832017578125  Z " fill-rule="nonzero" fill="#555555" stroke="none" transform="matrix(1 0 0 1 890 598 )" />
  </g>
</svg>