<?xml version="1.0" encoding="utf-8"?>
<svg version="1.1" xmlns:xlink="http://www.w3.org/1999/xlink" width="15px" height="12px" xmlns="http://www.w3.org/2000/svg">
  <g transform="matrix(1 0 0 1 -345 -596 )">
    <path d="M 7.48122522949219 11.6111606396484  C 3.34945656738281 11.6111606396484  0.000742001953124294 7.40586682617188  0.000742001953124294 6  C 0.000742001953124294 4.14343375488281  3.34945656738281 0.389049228515625  7.48122522949219 0.389049228515625  C 11.6134735693359 0.389049228515625  14.9621731494141 4.58361032226563  14.9621731494141 6  C 14.9621731494141 7.47940696289063  11.6134735693359 11.6111606396484  7.48122522949219 11.6111606396484  Z M 7.48122522949219 1.32417521484375  C 3.86587144042969 1.32417521484375  0.934953603515625 4.45327368164063  0.934953603515625 6.000015  C 0.934953603515625 7.17166561523438  3.86588642578125 10.6760646386719  7.48122522949219 10.6760646386719  C 11.0966090039063 10.6760646386719  14.0270771484375 7.11229088378906  14.0270771484375 6.000015  C 14.0270621484375 4.8580292578125  11.0966090039063 1.32417521484375  7.48122522949219 1.32417521484375  Z M 7.48122522949219 8.80581266601563  C 5.93154591796875 8.80581266601563  4.67542756347656 7.54973928222656  4.67542756347656 6.000015  C 4.67542756347656 4.45120508789063  5.93154591796875 3.19463704101563  7.48122522949219 3.19463704101563  C 9.03002014160156 3.19463704101563  10.286573203125 4.45120508789063  10.286573203125 6.000015  C 10.286573203125 7.54973928222656  9.03002014160156 8.80581266601563  7.48122522949219 8.80581266601563  Z M 7.48122522949219 4.12976302734375  C 6.44794579101562 4.12976302734375  5.61101822753906 4.96694541503906  5.61101822753906 6.000015  C 5.61101822753906 7.03329443847656  6.44794579101562 7.87023698730469  7.48122522949219 7.87023698730469  C 8.51405497558594 7.87023698730469  9.35147720214844 7.03329443847656  9.35147720214844 6.000015  C 9.35146220214844 4.96693041503906  8.51405497558594 4.12976302734375  7.48122522949219 4.12976302734375  Z " fill-rule="nonzero" fill="#333333" stroke="none" transform="matrix(1 0 0 1 345 596 )" />
  </g>
</svg>