<?xml version="1.0" encoding="utf-8"?>
<svg version="1.1" xmlns:xlink="http://www.w3.org/1999/xlink" width="15px" height="10px" xmlns="http://www.w3.org/2000/svg">
  <g transform="matrix(1 0 0 1 -739 -596 )">
    <path d="M 11.3597074468085 2.99603174603175  L 11.4893617021277 2.99603174603175  C 13.4172173260509 2.99603174603174  14.980053139474 4.55059858689705  14.980053139474 6.46825396825397  C 14.980053139474 8.38590934961089  13.4172173260509 9.94047619047619  11.4893616501123 9.94047619047619  L 10.9906914893617 9.94047619047619  C 10.7152835356562 9.94047619047619  10.4920212765957 9.71839521320972  10.4920212765957 9.44444444444444  C 10.4920212765957 9.17049367567917  10.7152835356562 8.9484126984127  10.9906914893617 8.9484126984127  L 11.4893617021277 8.9484126984127  C 12.8664014706552 8.9484126984127  13.9827127659574 7.83800781208034  13.9827127659574 6.46825396825397  C 13.9827127659574 5.0985001244276  12.8664014706552 3.98809523809524  11.4893617021277 3.98809523809524  C 11.3438091775376 3.98760133470953  11.1985397786286 4.00088876254867  11.0555186170213 4.02777777777778  C 11.0231335007294 4.03425991363543  10.9901809885741 4.03752504222038  10.9571467331374 4.03752504222038  C 10.7049499976206 4.03752504222038  10.4924528186045 3.85022946498957  10.4621010638298 3.60119047619048  C 10.2519971946204 2.13449905488123  8.9893868398208 1.04484333272815  7.5 1.04484333272815  C 6.0106131601792 1.04484333272815  4.74800280537962 2.13449905488123  4.53789893617021 3.60119047619048  C 4.50754718139551 3.85022946498957  4.29505000237938 4.03752504222038  4.0428532668626 4.03752504222038  C 4.00981901142589 4.03752504222038  3.97686649927064 4.03425991363543  3.94448138297872 4.02777777777778  C 3.80146022137137 4.00088876254867  3.65619082246243 3.98760133470953  3.51063829787234 3.98809523809524  C 2.13359852934476 3.98809523809524  1.01728723404255 5.0985001244276  1.01728723404255 6.46825396825397  C 1.01728723404255 7.83800781208034  2.13359852934476 8.9484126984127  3.51063829787234 8.9484126984127  L 4.0093085106383 8.9484126984127  C 4.28471646434381 8.9484126984127  4.50797872340426 9.17049367567917  4.50797872340426 9.44444444444444  C 4.50797872340426 9.71839521320972  4.28471646434381 9.94047619047619  4.0093085106383 9.94047619047619  L 3.51063829787234 9.94047619047619  C 1.58278267394909 9.94047619047619  0.0199468605259946 8.38590934961089  0.0199468605259946 6.46825396825397  C 0.0199468605259946 4.55059858689705  1.58278267394909 2.99603174603174  3.5106383498877 2.99603174603174  L 3.64029255319149 2.99603174603175  C 4.09918700931863 1.24956315802722  5.68526272399331 0.0312341847257799  7.5 0.0312341847257799  C 9.31473727600669 0.0312341847257799  10.9008129906814 1.24956315802722  11.3597074468085 2.99603174603175  Z " fill-rule="nonzero" fill="#000000" stroke="none" transform="matrix(1 0 0 1 739 596 )" />
  </g>
</svg>