<?xml version="1.0" encoding="utf-8"?>
<svg version="1.1" xmlns:xlink="http://www.w3.org/1999/xlink" width="5px" height="5px" xmlns="http://www.w3.org/2000/svg">
  <defs>
    <mask fill="white" id="clip184">
      <path d="M 0.224680175781251 2.13628595525568  C 0.133273925781251 2.21960227272727  0.133273925781251 2.35426136363636  0.2249072265625 2.43756436434659  C 0.31655517578125 2.52088068181818  0.46466552734375 2.52088068181818  0.5563134765625 2.43756436434659  L 2.2656103515625 0.883658114346591  L 2.2656103515625 4.63067515980114  C 2.2656103515625 4.74829545454545  2.3706103515625 4.84375  2.49999267578125 4.84375  C 2.629375 4.84375  2.734375 4.74829545454545  2.734375 4.63067515980114  L 2.734375 0.883658114346591  L 4.443671875 2.43756436434659  C 4.53531982421875 2.52088068181818  4.68343017578125 2.52088068181818  4.775078125 2.43756436434659  C 4.86672607421875 2.354248046875  4.86672607421875 2.21960227272727  4.775078125 2.13628595525568  L 2.66569580078125 0.218878728693181  C 2.644140625 0.199063387784091  2.618125 0.183509410511363  2.589296875 0.172642933238636  C 2.5609375 0.161776455965909  2.53046875 0.156243341619318  2.49999267578125 0.156243341619318  C 2.46953125 0.156243341619318  2.4390478515625 0.161789772727273  2.41046142578125 0.172642933238636  C 2.38163330078125 0.183509410511363  2.355859375 0.199063387784091  2.3340625 0.218878728693181  L 0.224680175781251 2.13628595525568  Z " fill-rule="evenodd" />
    </mask>
  </defs>
  <g transform="matrix(1 0 0 1 -744 -603 )">
    <path d="M 0.224680175781251 2.13628595525568  C 0.133273925781251 2.21960227272727  0.133273925781251 2.35426136363636  0.2249072265625 2.43756436434659  C 0.31655517578125 2.52088068181818  0.46466552734375 2.52088068181818  0.5563134765625 2.43756436434659  L 2.2656103515625 0.883658114346591  L 2.2656103515625 4.63067515980114  C 2.2656103515625 4.74829545454545  2.3706103515625 4.84375  2.49999267578125 4.84375  C 2.629375 4.84375  2.734375 4.74829545454545  2.734375 4.63067515980114  L 2.734375 0.883658114346591  L 4.443671875 2.43756436434659  C 4.53531982421875 2.52088068181818  4.68343017578125 2.52088068181818  4.775078125 2.43756436434659  C 4.86672607421875 2.354248046875  4.86672607421875 2.21960227272727  4.775078125 2.13628595525568  L 2.66569580078125 0.218878728693181  C 2.644140625 0.199063387784091  2.618125 0.183509410511363  2.589296875 0.172642933238636  C 2.5609375 0.161776455965909  2.53046875 0.156243341619318  2.49999267578125 0.156243341619318  C 2.46953125 0.156243341619318  2.4390478515625 0.161789772727273  2.41046142578125 0.172642933238636  C 2.38163330078125 0.183509410511363  2.355859375 0.199063387784091  2.3340625 0.218878728693181  L 0.224680175781251 2.13628595525568  Z " fill-rule="nonzero" fill="#272636" stroke="none" transform="matrix(1 0 0 1 744 603 )" />
    <path d="M 0.224680175781251 2.13628595525568  C 0.133273925781251 2.21960227272727  0.133273925781251 2.35426136363636  0.2249072265625 2.43756436434659  C 0.31655517578125 2.52088068181818  0.46466552734375 2.52088068181818  0.5563134765625 2.43756436434659  L 2.2656103515625 0.883658114346591  L 2.2656103515625 4.63067515980114  C 2.2656103515625 4.74829545454545  2.3706103515625 4.84375  2.49999267578125 4.84375  C 2.629375 4.84375  2.734375 4.74829545454545  2.734375 4.63067515980114  L 2.734375 0.883658114346591  L 4.443671875 2.43756436434659  C 4.53531982421875 2.52088068181818  4.68343017578125 2.52088068181818  4.775078125 2.43756436434659  C 4.86672607421875 2.354248046875  4.86672607421875 2.21960227272727  4.775078125 2.13628595525568  L 2.66569580078125 0.218878728693181  C 2.644140625 0.199063387784091  2.618125 0.183509410511363  2.589296875 0.172642933238636  C 2.5609375 0.161776455965909  2.53046875 0.156243341619318  2.49999267578125 0.156243341619318  C 2.46953125 0.156243341619318  2.4390478515625 0.161789772727273  2.41046142578125 0.172642933238636  C 2.38163330078125 0.183509410511363  2.355859375 0.199063387784091  2.3340625 0.218878728693181  L 0.224680175781251 2.13628595525568  Z " stroke-width="2" stroke="#333333" fill="none" transform="matrix(1 0 0 1 744 603 )" mask="url(#clip184)" />
  </g>
</svg>