<?xml version="1.0" encoding="utf-8"?>
<svg version="1.1" xmlns:xlink="http://www.w3.org/1999/xlink" width="15px" height="12px" xmlns="http://www.w3.org/2000/svg">
  <g transform="matrix(1 0 0 1 -548 -596 )">
    <path d="M 5 0.928571428571429  C 4.79568761268029 0.712154659598214  4.66368767465445 0.516616434151786  4.46196618276743 0.433563074776786  C 4.25913983811598 0.349991361607143  4.02712232947716 0.396068113839286  3.87241491887019 0.549820491071429  L 0.627222611177885 3.76410620535714  C 0.415731958007813 3.97358266183036  0.415731958007813 4.31213162388393  0.627222611177885 4.52160808035714  C 0.838713264347957 4.73108453683036  1.18051750488281 4.73108453683036  1.39200815805288 4.52160808035714  L 3.71395684344952 2.22177319196429  L 3.71395684344952 11.1071284598214  C 3.71395684344952 11.403373203125  3.95626686823918 11.6428571428571  4.25480769230769 11.6428571428571  C 4.5533485163762 11.6428571428571  4.79565854116587 11.4034019977679  5 11.1071284598214  L 5 0.928571428571429  Z M 14.3727773888221 8.80732236607143  C 14.5842680419922 8.59784590959821  14.5842680419922 8.25929694754464  14.3727773888221 8.04982049107143  C 14.161286735652 7.84034403459821  13.8194824951172 7.84034403459821  13.6079918419471 8.04982049107143  L 11.8269230769231 9.81392669642857  L 11.8269230769231 0.928571428571429  C 11.8269230769231 0.632845055803571  11.5851654785156 0.392842745535715  11.2860431565505 0.392842745535715  C 10.9869208345853 0.392842745535715  10.7451632361779 0.632845055803572  10.7451632361779 0.928571428571429  L 10.7451632361779 11.1071572544643  C 10.7451632361779 11.3235740234375  10.8765816763071 11.5196594140625  11.0788846660907 11.6021656082589  C 11.1459604079026 11.6300132421875  11.2162634596605 11.6428859375  11.2860431565505 11.6428859375  C 11.4266783315805 11.6428859375  11.5651328894982 11.5882561886161  11.668435929988 11.4859081919643  L 14.3727773888221 8.80732236607143  Z " fill-rule="nonzero" fill="#333333" stroke="none" transform="matrix(1 0 0 1 548 596 )" />
  </g>
</svg>