<?xml version="1.0" encoding="utf-8"?>
<svg version="1.1" xmlns:xlink="http://www.w3.org/1999/xlink" width="16px" height="14px" xmlns="http://www.w3.org/2000/svg">
  <g transform="matrix(1 0 0 1 -814 -596 )">
    <path d="M 6.61111111111111 11.8295454545455  L 7.5 12.5113636363636  L 7.5 7.96590909090909  C 7.5 7.73863636363636  7.72222222222222 7.51136363636363  7.94444444444444 7.51136363636363  C 8.16666666666667 7.51136363636363  8.38888888888889 7.73863636363636  8.38888888888889 7.96590909090909  L 8.38888888888889 12.5113636363636  L 9.27777777777778 11.8295454545455  C 9.5 11.7159090909091  9.72222222222222 11.7159090909091  9.94444444444444 11.9431818181818  C 10.1666666666667 12.2840909090909  10.0555555555556 12.5113636363636  9.83333333333333 12.625  L 8.16666666666667 13.875  C 8.16666666666667 13.9886363636364  8.05555555555556 13.9886363636364  7.94444444444444 13.9886363636364  C 7.83333333333333 13.9886363636364  7.72222222222222 13.9886363636364  7.72222222222222 13.875  L 6.05555555555556 12.625  C 5.83333333333333 12.5113636363636  5.83333333333333 12.1704545454545  5.94444444444444 11.9431818181818  C 6.05555555555556 11.7159090909091  6.38888888888889 11.7159090909091  6.61111111111111 11.8295454545455  Z M 6.16666666666667 10.8068181818182  C 5.27777777777778 11.7159090909091  4.5 11.8295454545455  3.94444444444444 11.8295454545455  L 3.61111111111111 11.8295454545455  C 1.61111111111111 11.8295454545455  0.0555555555555552 10.0113636363636  0.0555555555555552 7.85227272727273  C 0.0555555555555552 5.57954545454545  1.72222222222222 3.76136363636364  3.72222222222222 3.875  C 4.38888888888889 1.60227272727273  6.27777777777778 0.0113636363636364  8.38888888888889 0.0113636363636364  C 10.7222222222222 0.0113636363636364  12.7222222222222 1.82954545454545  13.2777777777778 4.44318181818182  C 14.8333333333333 4.78409090909091  15.9444444444444 6.26136363636364  15.9444444444444 8.07954545454545  C 15.9444444444444 10.125  14.5 11.8295454545455  12.7222222222222 11.8295454545455  C 12.1666666666667 11.8295454545455  11.0555555555556 11.8295454545455  9.83333333333333 10.8068181818182  C 9.61111111111111 10.5795454545455  9.61111111111111 10.2386363636364  9.83333333333333 10.125  C 10.0555555555556 9.89772727272727  10.2777777777778 9.89772727272727  10.5 10.125  C 11.3888888888889 11.0340909090909  12.1666666666667 10.9204545454545  12.6111111111111 10.9204545454545  L 12.7222222222222 10.9204545454545  C 14.0555555555556 10.9204545454545  15.0555555555556 9.67045454545455  15.0555555555556 8.07954545454545  C 15.0555555555556 6.60227272727273  14.0555555555556 5.35227272727273  12.8333333333333 5.23863636363636  C 12.6111111111111 5.23863636363636  12.5 5.01136363636363  12.3888888888889 4.89772727272727  C 12.0555555555556 2.625  10.3888888888889 0.920454545454545  8.38888888888889 0.920454545454545  C 6.61111111111111 0.920454545454545  4.94444444444444 2.39772727272727  4.5 4.44318181818182  C 4.5 4.67045454545455  4.27777777777778 4.78409090909091  3.94444444444444 4.78409090909091  L 3.5 4.78409090909091  C 2.05555555555555 4.78409090909091  0.944444444444444 6.14772727272727  0.944444444444444 7.85227272727273  C 0.944444444444444 9.55681818181818  2.05555555555556 10.9204545454545  3.5 10.9204545454545  L 3.72222222222222 10.9204545454545  C 4.16666666666667 10.9204545454545  4.72222222222222 10.9204545454545  5.5 10.125  C 5.72222222222222 9.89772727272727  5.94444444444444 9.89772727272727  6.16666666666667 10.125  C 6.38888888888889 10.3522727272727  6.38888888888889 10.5795454545455  6.16666666666667 10.8068181818182  Z " fill-rule="nonzero" fill="#333333" stroke="none" transform="matrix(1 0 0 1 814 596 )" />
  </g>
</svg>