<?xml version="1.0" encoding="utf-8"?>
<svg version="1.1" xmlns:xlink="http://www.w3.org/1999/xlink" width="14px" height="14px" xmlns="http://www.w3.org/2000/svg">
  <g transform="matrix(1 0 0 1 -299 -172 )">
    <path d="M 12.3661702455857 13.889456808462  C 12.3081105246023 13.9033911379948  12.2500508036189 13.9173254675277  12.1943134854875 14  L 1.82252530326573 14  C 1.79930142071099 13.9196478703797  1.77607752355968 13.9103583173578  1.75053125274947 13.9057135262503  C 1.14903256321259 13.7988836373053  0.345486051659772 13.1044894029529  0.141115841388356 12.5285369988229  C 0.106280002959674 12.4309966774964  0.0877008969158847 12.3241667885514  0 12.221981690714  L 0 1.81071289355262  C 0.0714441791275687 1.78748901099788  0.0830561204049373 1.76426511384657  0.0877008969158847 1.73871884303636  C 0.210787503649144 1.07683805885716  1.00968923869102 0.259357217771499  1.65299091682642 0.0851780548212419  C 1.70872824955437 0.0712437252883996  1.76678797053779 0.0573093957555573  1.82484769152121 0.0433750516261388  L 11.0563429921636 0.0433750516261388  C 10.3712383108331 -0.107580214172805  13.3903436851983 0.289548265092658  13.9825528217133 2.95100577513201  L 13.9825528217133 12.221981690714  C 13.9732632686914 12.2452055732688  13.9639737156695 12.2684294704201  13.9593289391585 12.2939757412303  C 13.8362423324253 12.9558565400061  13.0094719383177 13.7152776601083  12.3661702455857 13.889456808462  Z M 2.46582698140114 12.1476652519423  C 3.95215578602899 12.1499876401978  5.52441297070595 12.1476652519423  7.00841938707833 12.1476652519423  L 11.5510117927555 12.1476652519423  C 11.9295611659772 12.1476652519423  12.1292865997377 11.9479398181818  12.1292865997377 11.5717128332156  L 12.1292865997377 7.99987893727508  C 12.1292865997377 7.62365195230888  11.9272387777217 7.41928174203747  11.5556565692665 7.41928174203747  L 2.45885981663472 7.41928174203747  C 2.09192239928699 7.41928174203747  1.88755218901557 7.62365195230888  1.88755218901557 7.98826698140114  L 1.88755218901557 11.5740352214711  C 1.88755218901557 11.63441733071  1.88987457727105 11.6947994399489  1.90148651854841 11.7528591609323  C 1.96186862778731 12.0129667039317  2.15694928503683 12.1476652519423  2.46582698140114 12.1476652519423  Z M 3.40174965270911 5.61943046453436  C 4.46075893075034 5.62175285278983  5.69394735714526 5.62175285278983  6.75295662058992 5.62175285278983  L 9.66987689711768 5.62175285278983  C 10.076294929405 5.62175285278983  10.27369797491 5.42434980728483  10.27369797491 5.01793177499748  L 10.27369797491 2.48652802186123  C 10.27369797491 2.07546521306293  10.080939705916 1.88270694406888  9.67219928537315 1.88270695866546  L 3.40174965270911 1.88270695866546  C 2.9999763969327 1.88270695866546  2.80489573968318 2.07778761591498  2.80489573968318 2.47723846883934  L 2.80489573968318 5.02025416325295  C 2.80489573968318 5.41970503077389  3.00229878518817 5.61943046453436  3.40174965270911 5.61943046453436  Z M 7.47754191686005 4.66260628433054  L 7.47754191686005 2.7791490150338  L 9.30293947976995 2.7791490150338  L 9.30293947976995 4.66260628433054  L 7.47754191686005 4.66260628433054  Z " fill-rule="nonzero" fill="#676a6c" stroke="none" transform="matrix(1 0 0 1 299 172 )" />
  </g>
</svg>