<?xml version="1.0" encoding="utf-8"?>
<svg version="1.1" xmlns:xlink="http://www.w3.org/1999/xlink" width="7px" height="4px" xmlns="http://www.w3.org/2000/svg">
  <g transform="matrix(1 0 0 1 -162 -604 )">
    <path d="M 6.87004950495049 2.30392156862745  C 6.02552049515618 3.40391790532911  4.78683450831626 4.01290974994601  3.5 3.96078431372549  C 2.21316549168374 4.01290974994601  0.974479504843825 3.40391790532911  0.129950495049504 2.30392156862745  C -0.0011901801562356 2.12848227224388  -0.0011901801562356 1.87151772775612  0.129950495049505 1.69607843137255  C 0.974479504843823 0.59608209467089  2.21316549168374 -0.0129097499460078  3.5 0.0392156862745098  C 4.78683450831626 -0.0129097499460078  6.02552049515618 0.596082094670886  6.87004950495049 1.69607843137255  C 7.00119018015623 1.87151772775612  7.00119018015623 2.12848227224388  6.87004950495049 2.30392156862745  Z M 3.5 1.01960784313725  C 2.60703576404293 0.996853132967168  1.73773564288148 1.34569915969624  1.05693069306931 2  C 1.73773564288148 2.65430084030376  2.60703576404292 3.00314686703283  3.5 2.98039215686275  C 4.39296423595708 3.00314686703283  5.26226435711852 2.65430084030376  5.94306930693069 2  C 5.26226435711852 1.34569915969624  4.39296423595708 0.996853132967168  3.5 1.01960784313725  Z " fill-rule="nonzero" fill="#4d4d4d" stroke="none" transform="matrix(1 0 0 1 162 604 )" />
  </g>
</svg>