<?xml version="1.0" encoding="utf-8"?>
<svg version="1.1" xmlns:xlink="http://www.w3.org/1999/xlink" width="12px" height="12px" xmlns="http://www.w3.org/2000/svg">
  <g transform="matrix(1 0 0 1 -157 -596 )">
    <path d="M 4.17073170731707 11.9451219512195  L 0.51219512195122 11.9451219512195  C 0.259625876601771 11.9451219512195  0.0548780487804878 11.7403741233982  0 11.4878048780488  L 0 0.51219512195122  C 0.0548780487804878 0.259625876601771  0.259625876601771 0.0548780487804878  0.51219512195122 0  L 11.4878048780488 0  C 11.7403741233982 0.0548780487804878  11.9451219512195 0.259625876601771  11.9451219512195 0.51219512195122  L 11.9451219512195 7.82926829268293  C 11.9451219512195 8.08183753803237  11.7403741233982 8.28658536585366  11.4878048780488 8.28658536585366  C 11.2352356326993 8.28658536585366  11.030487804878 8.08183753803237  11.030487804878 7.82926829268293  L 11.030487804878 1  L 1 1  L 1 11.030487804878  L 4.17073170731707 11.030487804878  C 4.42330095266652 11.030487804878  4.6280487804878 11.2352356326993  4.6280487804878 11.4878048780488  C 4.6280487804878 11.7403741233982  4.42330095266652 11.9451219512195  4.17073170731707 11.9451219512195  Z " fill-rule="nonzero" fill="#4d4d4d" stroke="none" transform="matrix(1 0 0 1 157 596 )" />
  </g>
</svg>