<?xml version="1.0" encoding="utf-8"?>
<svg version="1.1" xmlns:xlink="http://www.w3.org/1999/xlink" width="12px" height="5px" xmlns="http://www.w3.org/2000/svg">
  <g transform="matrix(1 0 0 1 -157 -600 )">
    <path d="M 11.4878048780488 1.03515625  C 11.4878048780488 1.03515625  11.4878048780488 1.03515625  11.4878048780488 1  L 0.51219512195122 1  C 0.51219512195122 1.03515625  0.51219512195122 1.03515625  0.51219512195122 1.03515625  C 0.259625876601771 1.03515625  0.0548780487804878 0.816545288003317  0.0548780487804878 0.546875  C 0.0548780487804878 0.277204711996683  0.259625876601771 0.05859375  0.51219512195122 0.05859375  C 0.51219512195122 0.05859375  0.51219512195122 0.05859375  0.51219512195122 0  L 11.4878048780488 0  C 11.4878048780488 0.05859375  11.4878048780488 0.05859375  11.4878048780488 0.05859375  C 11.7403741233982 0.05859375  11.9451219512195 0.277204711996683  11.9451219512195 0.546875  C 11.9451219512195 0.816545288003317  11.7403741233982 1.03515625  11.4878048780488 1.03515625  Z M 11.4878048780488 4.94140625  C 11.4878048780488 4.94140625  11.4878048780488 4.94140625  11.4878048780488 5  L 0.51219512195122 5  C 0.51219512195122 4.94140625  0.51219512195122 4.94140625  0.51219512195122 4.94140625  C 0.259625876601771 4.94140625  0.0548780487804878 4.72279528800332  0.0548780487804878 4.453125  C 0.0548780487804878 4.18345471199668  0.259625876601771 3.96484375  0.51219512195122 3.96484375  C 0.51219512195122 3.96484375  0.51219512195122 3.96484375  0.51219512195122 4  L 11.4878048780488 4  C 11.4878048780488 3.96484375  11.4878048780488 3.96484375  11.4878048780488 3.96484375  C 11.7403741233982 3.96484375  11.9451219512195 4.18345471199668  11.9451219512195 4.453125  C 11.9451219512195 4.72279528800332  11.7403741233982 4.94140625  11.4878048780488 4.94140625  Z " fill-rule="nonzero" fill="#4d4d4d" stroke="none" transform="matrix(1 0 0 1 157 600 )" />
  </g>
</svg>