<?xml version="1.0" encoding="utf-8"?>
<svg version="1.1" xmlns:xlink="http://www.w3.org/1999/xlink" width="5px" height="8px" xmlns="http://www.w3.org/2000/svg">
  <g transform="matrix(1 0 0 1 -161 -600 )">
    <path d="M 1.03515625 7.50877192982456  C 1.03515625 7.75100208325912  0.816545288003317 7.94736842105263  0.546875 7.94736842105263  C 0.277204711996683 7.94736842105263  0.05859375 7.75100208325912  0.05859375 7.50877192982456  L 0.05859375 0.491228070175439  C 0.05859375 0.24899791674088  0.277204711996683 0.0526315789473684  0.546875 0.0526315789473684  C 0.816545288003317 0.0526315789473684  1.03515625 0.24899791674088  1.03515625 0.491228070175439  L 1.03515625 7.50877192982456  Z M 4.94140625 4  C 4.94140625 4.24223015343456  4.72279528800332 4.43859649122807  4.453125 4.43859649122807  C 4.18345471199668 4.43859649122807  3.96484375 4.24223015343456  3.96484375 4  L 3.96484375 0.491228070175439  C 3.96484375 0.24899791674088  4.18345471199668 0.0526315789473684  4.453125 0.0526315789473684  C 4.72279528800332 0.0526315789473684  4.94140625 0.24899791674088  4.94140625 0.491228070175439  L 4.94140625 4  Z " fill-rule="nonzero" fill="#4d4d4d" stroke="none" transform="matrix(1 0 0 1 161 600 )" />
  </g>
</svg>