<?xml version="1.0" encoding="utf-8"?>
<svg version="1.1" xmlns:xlink="http://www.w3.org/1999/xlink" width="10px" height="10px" xmlns="http://www.w3.org/2000/svg">
  <g transform="matrix(1 0 0 1 -449 -596 )">
    <path d="M 9.98466257668712 8.06748466257669  C 9.98466257668712 9.14110429447853  9.14110429447853 9.98466257668712  8.06748466257669 9.98466257668712  L 1.93251533742331 9.98466257668712  C 0.858895705521472 9.98466257668712  0.0153374233128834 9.14110429447853  0.0153374233128834 8.06748466257669  L 0.0153374233128834 1.93251533742331  C 0.0153374233128834 0.858895705521472  0.858895705521472 0.0153374233128834  1.93251533742331 0.0153374233128834  L 8.06748466257669 0.0153374233128834  C 9.14110429447853 0.0153374233128834  9.98466257668712 0.858895705521472  9.98466257668712 1.93251533742331  L 9.98466257668712 8.06748466257669  Z M 8.06748466257669 0.782208588957055  L 1.93251533742331 0.782208588957055  C 1.31901840490798 0.782208588957055  0.782208588957055 1.31901840490798  0.782208588957055 1.93251533742331  L 0.782208588957055 8.06748466257669  C 0.782208588957055 8.68098159509202  1.31901840490798 9.21779141104295  1.93251533742331 9.21779141104295  L 8.06748466257669 9.21779141104295  C 8.68098159509202 9.21779141104295  9.21779141104295 8.68098159509202  9.21779141104295 8.06748466257669  L 9.21779141104295 1.93251533742331  C 9.21779141104295 1.31901840490798  8.68098159509202 0.782208588957055  8.06748466257669 0.782208588957055  Z " fill-rule="nonzero" fill="#333333" stroke="none" transform="matrix(1 0 0 1 449 596 )" />
  </g>
</svg>