<?xml version="1.0" encoding="utf-8"?>
<svg version="1.1" xmlns:xlink="http://www.w3.org/1999/xlink" width="9px" height="9px" xmlns="http://www.w3.org/2000/svg">
  <g transform="matrix(1 0 0 1 -452 -599 )">
    <path d="M 8.98369565217391 6.94565217391304  C 8.98369565217391 8.08695652173913  8.08695652173913 8.98369565217391  6.94565217391304 8.98369565217391  L 0.423913043478261 8.98369565217391  C 0.179347826086957 8.98369565217391  0.016304347826087 8.82065217391304  0.016304347826087 8.57608695652174  C 0.016304347826087 8.33152173913044  0.179347826086957 8.16847826086957  0.423913043478261 8.16847826086957  L 6.94565217391304 8.16847826086957  C 7.59782608695652 8.16847826086957  8.16847826086957 7.59782608695652  8.16847826086957 6.94565217391304  L 8.16847826086957 0.423913043478261  C 8.16847826086957 0.179347826086957  8.33152173913044 0.016304347826087  8.57608695652174 0.016304347826087  C 8.82065217391304 0.016304347826087  8.98369565217391 0.179347826086957  8.98369565217391 0.423913043478261  L 8.98369565217391 6.94565217391304  Z " fill-rule="nonzero" fill="#333333" stroke="none" transform="matrix(1 0 0 1 452 599 )" />
  </g>
</svg>