<?xml version="1.0" encoding="utf-8"?>
<svg version="1.1" xmlns:xlink="http://www.w3.org/1999/xlink" width="11px" height="11px" xmlns="http://www.w3.org/2000/svg">
  <g transform="matrix(1 0 0 1 -652 -597 )">
    <path d="M 6.20114943090682 10.9597739854555  C 6.20019157220058 10.9597739854555  6.19923371392816 10.959772694535  6.19827585870151 10.9597701126976  C 6.01963666050959 10.9602017087484  5.8437529207603 10.9157367189348  5.68678161256286 10.8304597712374  L 4.27586207121049 10.054597697782  C 3.93302522822253 9.86641372000267  3.72032169291259 9.50603001369657  3.72126436557112 9.11494252761315  L 3.72126436557112 4.63793103223779  C 3.72127214871691 4.57088883666361  3.68923447603882 4.50788141250638  3.63505747126437 4.46839080347522  L 0.376436784976652 1.87356322063578  L 0.327586205774066 1.8304597734824  C 0.140611811893475 1.63343663494849  0.0363758319055209 1.37217359146362  0.0363758319055209 1.10055337666957  C 0.0363758319055209 0.514941096352016  0.511108383664119 0.0402085445934174  1.09672066398167 0.0402085445934174  C 1.09896321932452 0.0402085445934174  1.10120576902502 0.0402156588655583  1.10344827922953 0.0402298873024425  L 9.8850574690194 0.0402298873024425  C 10.4748026538713 0.0411164991066914  10.9524159198461 0.519448339610346  10.9524159198461 1.1091941909196  C 10.9524159198461 1.37614425046867  10.8525336279542 1.63343393814358  10.6724137942259 1.8304597734824  L 10.6293103470726 1.87356322063578  L 7.34195402523348 4.50862069077766  C 7.29278981204611 4.55099984096121  7.2653442484704 4.61328015882943  7.2672413826778 4.67816091954023  L 7.2672413826778 9.89367816091954  C 7.26724138268484 10.4824683605619  6.78993575779116 10.9597739854555  6.20114943090682 10.9597739854555  Z M 0.931034478268678 1.24425287244073  L 0.931034478268678 1.23563218054059  L 4.16954023325251 3.82183908382723  C 4.42153748798216 4.01821201208979  4.57061482924409 4.31848126892444  4.57471264143319 4.63793103223779  L 4.57471264143319 9.11494252761315  C 4.57349005163022 9.19343576797817  4.61394947302098 9.26670012512375  4.68103447939116 9.30747125987788  L 6.09195402074354 10.0747126414332  C 6.15952437188211 10.1137244018523  6.24277447757011 10.1137244018523  6.31034482870869 10.0747126414332  C 6.37676425282375 10.0350232374661  6.41638323104886 9.96238844562966  6.41379310681573 9.8850574690194  L 6.41379310681573 4.67816091954023  C 6.41200173759934 4.35589969963523  6.55686444466539 4.05031340085608  6.80747126324533 3.84770114718032  L 10.0574712699802 1.23563218054059  C 10.1051165447532 1.17039079138459  10.1128537178983 1.08417652952382  10.0775862012841 1.01149425287356  C 10.0384299117782 0.942403877275677  9.96445054063021 0.900445428959243  9.8850574690194 0.902298855064655  L 1.10344827922953 0.902298855064655  C 1.10223857199119 0.902278204489309  1.1010287105377 0.902267878637563  1.0998188270521 0.902267878637563  C 0.982378967695759 0.902267878637563  0.88717515113615 0.997471695197171  0.88717515113615 1.11491155455351  C 0.88717515113615 1.1616751254728  0.902590359882558 1.20713463306493  0.931034478268678 1.24425287244073  Z M 10.5459770126167 5.5  L 8.21264367254849 5.5  C 7.97458990044977 5.5  7.78160918866739 5.30701928821762  7.78160918866739 5.06896551611889  C 7.78160918866739 4.83091174402017  7.97458990044977 4.63793103223779  8.21264367254849 4.63793103223779  L 10.5459770126167 4.63793103223779  C 10.7840307847155 4.63793103223779  10.9770114964978 4.83091174402017  10.9770114964978 5.06896551611889  C 10.9770114964978 5.30701928821762  10.7840307847155 5.5  10.5459770126167 5.5  Z M 10.5459770126167 7.09195402186602  L 8.21264367254849 7.09195402186602  C 7.97458990044977 7.09195402186602  7.78160918866739 6.89897331008364  7.78160918866739 6.66091953798491  C 7.78160918866739 6.42286576588619  7.97458990044977 6.22988505410381  8.21264367254849 6.22988505410381  L 10.5459770126167 6.22988505410381  C 10.7840307847155 6.22988505410381  10.9770114964978 6.42286576588619  10.9770114964978 6.66091953798491  C 10.9770114964978 6.89897331008364  10.7840307847155 7.09195402186602  10.5459770126167 7.09195402186602  Z M 10.5459770126167 8.67241379198096  L 8.21264367254849 8.67241379198096  C 7.97458990044977 8.67241379198096  7.78160918866739 8.47943308019858  7.78160918866739 8.24137930809986  C 7.78160918866739 8.00332553600114  7.97458990044977 7.81034482421875  8.21264367254849 7.81034482421875  L 10.5459770126167 7.81034482421875  C 10.7840307847155 7.81034482421875  10.9770114964978 8.00332553600114  10.9770114964978 8.24137930809986  C 10.9770114964978 8.47943308019858  10.7840307847155 8.67241379198096  10.5459770126167 8.67241379198096  Z " fill-rule="nonzero" fill="#333333" stroke="none" transform="matrix(1 0 0 1 652 597 )" />
  </g>
</svg>