<?xml version="1.0" encoding="utf-8"?>
<svg version="1.1" xmlns:xlink="http://www.w3.org/1999/xlink" width="12px" height="13px" xmlns="http://www.w3.org/2000/svg">
  <g transform="matrix(1 0 0 1 -425 -734 )">
    <path d="M 11.4 1.86206675909091  C 11.39858322 1.16085789181818  10.77866079 0.590909090909091  10.01280939 0.590909090909091  L 1.985773839 0.590909090909091  C 1.219922457 0.590909090909091  0.6 1.15955828772727  0.6 1.86206675909091  L 0.6 10.8424786954545  C 0.6 11.5449872022727  1.219922457 12.1136363636364  1.985773839 12.1136363636364  L 10.01422617 12.1136363636364  C 10.78007757 12.1136363636364  11.4 11.5449872022727  11.4 10.8424786954545  L 11.4 1.86206675909091  Z M 2.941002249 6.91059728568182  C 2.541321663 6.91059729454545  2.217304347 6.61341149772727  2.217260877 6.24678815977273  C 2.217260877 5.88013661772727  2.541290928 5.58290682181818  2.941002249 5.58290682181818  L 5.669101824 5.58290682181818  C 6.068813145 5.58290682181818  6.392843196 5.88013661772727  6.392843196 6.24678815977273  C 6.392843196 6.61343969295455  6.068813145 6.91066948886364  5.669101824 6.91066948886364  L 2.941002249 6.91066948886364  Z M 9.94275717 8.52405633181818  L 9.21484419 9.17631342727273  L 9.38596038 10.09498945  C 9.43924731 10.3767149022727  9.11519691 10.5915828318182  8.83892373 10.4590953113636  L 7.93847769 10.0242332568182  L 7.03661487 10.4603227477273  C 6.760341663 10.5941820045455  6.437629365 10.3780144886364  6.490994955 10.0962890363636  L 6.66352797 9.17761301363636  L 5.934198174 8.52535591818182  C 5.711133138 8.32593890227273  5.834550912 7.97721162727273  6.14317407 7.93605749772727  L 7.150115148 7.80227039090909  L 7.601754948 6.96474748272727  C 7.740599946 6.70865317613636  8.13895287 6.70865317613636  8.2778766 6.96474748272727  L 8.72809962 7.80227039090909  L 9.73511934 7.93605749772727  C 10.0423257 7.97721162727273  10.16566485 8.32463922727273  9.94267851 8.52405633181818  Z M 9.43224207 4.16763745272727  L 2.941002249 4.16763745272727  C 2.541290928 4.16763745272727  2.217260877 3.87040765681818  2.217260877 3.50375612363636  C 2.217260877 3.13710459045455  2.541290928 2.83987479454545  2.941002249 2.83987479454545  L 9.43224207 2.83987479454545  C 9.8319534 2.83987479454545  10.15598346 3.13710459045455  10.15598346 3.50375612363636  C 10.15598346 3.87040765681818  9.8319534 4.16763745272727  9.43224207 4.16763745272727  Z " fill-rule="nonzero" fill="#ffa12e" stroke="none" transform="matrix(1 0 0 1 425 734 )" />
  </g>
</svg>